<svg width="720" height="650" viewBox="0 0 720 650" fill="none" xmlns="http://www.w3.org/2000/svg">
<rect width="720" height="650" fill="white"/>
<g clip-path="url(#clip0_73_22939)">
<path d="M521.489 104.352L520.044 101.282C519.448 100.017 518.377 99.0372 517.061 98.5602C515.525 98.002 513.83 98.0815 512.354 98.7814L503.73 102.867C503.329 103.057 502.907 103.202 502.475 103.303L496.855 104.587C496.319 104.709 495.764 104.727 495.222 104.64L490.849 103.935C490.141 103.821 489.472 103.531 488.905 103.09L484.723 99.8374C484.444 99.6214 484.195 99.3725 483.978 99.0942L480.436 94.5628C479.678 93.5915 479.375 92.342 479.605 91.1322L480.706 85.3564C480.81 84.8138 481.017 84.297 481.316 83.8339L485.315 77.6537L488.141 71.2471C488.279 70.9325 488.386 70.6024 488.459 70.2654L490.014 63.0051C490.118 62.5195 490.151 62.0217 490.109 61.5257L489.919 59.2531C489.829 58.1833 489 57.3226 487.934 57.1965L482.388 56.5363C481.648 56.4481 480.898 56.5242 480.193 56.761L473.658 58.9385C471.095 59.7923 468.837 61.3771 467.16 63.4976L463.982 67.5175C463.23 68.4681 462.606 69.5154 462.126 70.6284L459.469 76.7878C458.761 78.4279 458.377 80.1907 458.337 81.976L458.196 88.3791L457.776 91.7371C457.39 94.8255 456.091 97.7272 454.046 100.072L451.463 103.036C450.692 103.921 449.822 104.716 448.874 105.408L444.823 108.354C442.579 109.986 439.942 110.991 437.182 111.266L436.911 111.294C434.536 111.531 432.139 111.221 429.903 110.39L426.802 109.237C425.363 108.702 424.101 107.773 423.159 106.559L420.235 102.782C419.907 102.357 419.537 101.965 419.131 101.612L415.577 98.517C414.209 97.3245 412.484 96.6177 410.671 96.5053L401.691 95.9523C400.777 95.8953 399.861 95.992 398.979 96.2375L389.998 98.733C389.588 98.8471 389.173 98.9491 388.758 99.0389L382.43 100.415C380.862 100.755 379.264 100.926 377.66 100.926H371.246C370.116 100.926 368.986 100.841 367.869 100.67L363.239 99.9653C361.335 99.6749 359.643 98.5896 358.585 96.9789C358.502 97.0739 358.423 97.1724 358.347 97.2727L352.611 104.842C351.299 106.572 349.436 107.803 347.331 108.33C344.488 109.04 342.129 111.023 340.938 113.701L338.506 119.175C337.955 120.416 337.867 121.814 338.256 123.113L340.428 130.353C341.095 132.574 343.045 134.167 345.355 134.378C347.39 134.563 349.168 135.825 350.013 137.684L354.088 146.649C354.741 148.086 355.965 149.187 357.463 149.687L358.044 149.88C361.236 150.945 364.2 152.595 366.786 154.749L367.733 155.539C372.171 159.237 375.529 164.066 377.452 169.515C378.069 171.264 379.127 172.826 380.523 174.048C385.046 178.006 385.468 184.895 381.46 189.374L380.05 190.95C378.551 192.625 377.613 194.725 377.364 196.958L375.873 210.386C375.828 210.784 375.743 211.176 375.615 211.554L373.37 218.291C372.843 219.872 372.618 221.537 372.705 223.201L373.647 241.113C373.788 243.812 373.106 246.489 371.69 248.791C369.775 251.902 366.668 254.09 363.094 254.842L359.506 255.597C357.467 256.025 355.559 256.928 353.931 258.229L347.708 263.206C345.336 265.102 344.877 268.528 346.662 270.983L347.797 272.546C348.352 273.31 348.71 274.2 348.834 275.136L349.254 278.29C349.678 281.465 351.74 284.182 354.684 285.444C357.386 286.602 359.361 288.995 359.987 291.867L362.095 301.566C362.182 301.962 362.225 302.367 362.225 302.773V307.833C362.225 308.108 362.246 308.383 362.285 308.656L371.54 312.705C372.209 312.997 372.767 313.498 373.13 314.132L376.405 319.863C377.19 321.237 378.819 321.887 380.333 321.433L382.521 320.776C383.581 320.458 384.421 319.644 384.77 318.595L385.549 316.258C385.924 315.135 386.856 314.286 388.01 314.02L393.513 312.75C394.194 312.593 394.809 312.23 395.276 311.711L399.282 307.259C399.975 306.49 400.279 305.446 400.108 304.425L399.6 301.376C399.308 299.627 400.409 297.949 402.128 297.519C403.424 297.196 404.409 296.143 404.648 294.828L405.102 292.329C405.369 290.867 406.552 289.747 408.027 289.564L413.021 288.94C414.679 288.732 416.239 289.759 416.708 291.361L420.152 303.172C420.328 303.779 420.672 304.325 421.142 304.746L421.661 305.213C423.774 307.116 427.151 305.737 427.329 302.897L427.355 302.469C427.459 300.799 428.762 299.454 430.426 299.295L438.255 298.551C439.959 298.388 441.574 299.346 442.248 300.92C442.754 302.102 443.805 302.961 445.065 303.224L454.49 305.187C456.708 305.649 458.856 304.15 459.189 301.909L460.192 295.146C460.785 291.149 458.98 287.174 455.579 284.987C453.353 283.556 451.765 281.322 451.143 278.75L447.949 265.52C447.705 264.513 447.342 263.54 446.867 262.62L440.747 250.789C438.938 247.291 438.826 243.157 440.442 239.566L441.803 236.54C443.032 233.809 443.272 230.738 442.486 227.85C442.011 226.106 441.907 224.279 442.182 222.492L443.11 216.456C443.886 211.409 447.107 207.071 451.713 204.868L454.34 203.611C457.501 202.099 460.055 199.557 461.581 196.403L468.273 182.573C468.705 181.678 469.224 180.828 469.82 180.033L473.734 174.814C474.405 173.92 474.977 172.954 475.44 171.938L480.338 161.162C480.917 159.89 481.686 158.713 482.621 157.675L485.459 154.522C486.499 153.366 487.334 152.042 487.928 150.604L491.89 141.032C493.694 136.671 497.619 133.55 502.273 132.776C502.313 132.769 502.352 132.766 502.392 132.76L503.528 130.206C503.928 129.302 504.421 128.442 504.995 127.638L508.154 123.215C508.842 122.251 509.645 121.375 510.544 120.604L518.53 113.758C518.914 113.43 519.256 113.057 519.552 112.647L520.879 110.808C521.444 110.027 521.824 109.127 521.992 108.176C522.222 106.877 522.042 105.537 521.48 104.345L521.489 104.352Z" fill="#B4BFFA" stroke="#4D4D4D" stroke-width="0.75" stroke-linecap="round" stroke-linejoin="bevel"/>
<path d="M380.529 174.047C379.132 172.825 378.074 171.264 377.457 169.513C375.534 164.064 372.176 159.235 367.738 155.537L366.791 154.747C364.207 152.594 361.241 150.942 358.049 149.879L357.469 149.685C355.97 149.186 354.747 148.085 354.093 146.647L350.018 137.683C349.173 135.823 347.395 134.561 345.361 134.376C343.05 134.166 341.1 132.574 340.433 130.351L338.261 123.112C337.87 121.81 337.96 120.414 338.512 119.173L340.943 113.7C342.134 111.021 344.491 109.04 347.336 108.328C349.443 107.801 351.306 106.571 352.616 104.841L358.352 97.2711C358.428 97.1709 358.507 97.0724 358.59 96.9773C358.589 96.9739 358.585 96.9704 358.583 96.967L357.159 94.7894C356.942 94.4558 356.553 94.2726 356.157 94.3176C355.53 94.3867 354.982 93.8959 354.982 93.2651V88.5781L354.608 85.7213C354.484 84.769 355.225 83.9239 356.186 83.9239C357.08 83.9239 357.797 83.1894 357.778 82.2959L357.633 75.9394C357.619 75.3276 357.667 74.7158 357.776 74.1127L359.04 67.1617C359.166 66.4652 359.366 65.7843 359.638 65.131L361.269 61.1975C362.194 58.9681 362.645 56.571 362.596 54.1584L362.505 49.7082C362.481 48.5071 362.332 47.3111 362.062 46.1411L361.608 44.1692C360.977 41.4368 359.698 38.8963 357.877 36.7636L353.565 31.712L347.927 25.3227C347.638 24.9943 347.327 24.6867 346.997 24.4015L341.422 19.5694L334.499 13.3667C332.701 11.7577 330.375 10.8677 327.962 10.8677C326.009 10.8677 324.19 11.8614 323.132 13.505L319.56 19.063C319.428 19.2669 319.285 19.4622 319.129 19.6471L314.102 25.6424L311.357 28.6478C310.379 29.7193 309.083 30.4504 307.661 30.7355C306.446 30.9792 305.188 30.8859 304.021 30.4677L298.014 28.3108C297.945 28.2866 297.877 28.2572 297.813 28.2244L295.546 27.0907C294.481 26.5584 293.201 27.1615 292.933 28.3212C292.879 28.5562 292.777 28.7792 292.637 28.9762L292.181 29.6156C291.958 29.9267 291.839 30.3 291.839 30.6837V32.7075C291.839 33.1136 291.704 33.5059 291.458 33.8274L290.28 35.3603C289.983 35.7474 289.851 36.2348 289.913 36.7187L290.166 38.6509C290.325 39.8745 289.841 41.0929 288.887 41.8741C288.453 42.2283 288.218 42.771 288.256 43.3292L288.334 44.4854C288.375 45.099 288.738 45.6434 289.288 45.9181L292.449 47.4978L292.634 52.8847C292.644 53.201 292.736 53.5103 292.898 53.7816L295.312 57.8067C295.553 58.2059 295.931 58.5015 296.377 58.6346C297.167 58.8713 297.708 59.5989 297.708 60.4233V61.0921C297.708 61.7782 297.224 62.3676 296.552 62.5024C296.019 62.6095 295.592 63.0053 295.447 63.5272L294.813 65.8085C294.721 66.1369 294.751 66.4877 294.892 66.797L294.943 66.9076C295.383 67.8616 294.687 68.9487 293.636 68.9487H293.489C293.081 68.9487 292.692 69.1215 292.419 69.4257L291.396 70.5629C291.158 70.8273 291.026 71.1695 291.026 71.5255V73.8068L290.966 73.8517C290.053 74.5361 289.735 75.7597 290.199 76.8018C290.677 77.8803 290.32 79.1471 289.345 79.8142L287.369 81.1656C287.245 81.2503 287.127 81.3471 287.02 81.4543L286.631 81.8431C285.875 82.6001 285.698 83.7597 286.194 84.7085L287.143 86.5215C287.428 87.0641 287.497 87.6949 287.34 88.286L286.83 90.1992C286.794 90.3322 286.777 90.4705 286.777 90.6088V92.2506C286.777 92.8537 287.117 93.4033 287.656 93.6729L288.123 93.9062C288.552 94.1205 288.861 94.5163 288.965 94.9847L289.487 97.3368C289.566 97.6928 289.519 98.0661 289.357 98.3928L288.391 100.327C288.142 100.823 287.653 101.154 287.1 101.201C286.243 101.272 285.598 102.012 285.643 102.871L285.871 107.217C285.926 108.278 285.254 109.239 284.24 109.552C283.664 109.728 283.196 110.147 282.95 110.694L281.758 113.377C281.288 114.433 280.049 114.903 278.996 114.426C278.787 114.331 278.562 114.27 278.332 114.249L275.828 114.011C275.057 113.938 274.377 114.507 274.313 115.279C274.262 115.889 273.818 116.394 273.219 116.522L271.795 116.828C271.532 116.883 271.293 117.015 271.103 117.205L268.896 119.412C267.643 120.665 266.94 122.362 266.94 124.133C266.94 124.178 266.936 124.223 266.93 124.268L266.434 127.569C266.373 127.972 266.053 128.284 265.649 128.335C265.137 128.398 264.783 128.875 264.868 129.384L265.269 131.786C265.302 131.986 265.269 132.19 265.17 132.368L264.524 133.552C264.29 133.981 263.76 134.147 263.323 133.929C262.633 133.585 261.795 133.856 261.439 134.539L260.81 135.744C260.063 137.173 259.868 138.827 260.259 140.391L259.909 144.936C259.873 145.406 259.96 145.878 260.158 146.305L260.172 146.334C260.789 147.655 260.264 149.226 258.978 149.912L258.843 149.984C258.444 150.197 258.103 150.506 257.853 150.883L257.234 151.811C256.838 152.405 256.227 152.82 255.528 152.971L254.948 153.095C254.204 153.254 253.562 153.714 253.171 154.365C252.787 155.006 252.157 155.463 251.429 155.629L249.028 156.175C248.458 156.304 247.988 156.705 247.77 157.25L247.056 159.037C246.956 159.289 246.799 159.514 246.598 159.695L243.227 162.747C242.862 163.077 242.376 163.242 241.886 163.202L241.049 163.133C240.527 163.089 240.014 163.278 239.644 163.648L238.91 164.382C238.275 165.016 237.268 165.079 236.559 164.529C236.186 164.239 235.714 164.109 235.246 164.168L233.602 164.374C233.058 164.441 232.512 164.254 232.123 163.865L232.052 163.795C230.852 162.595 228.92 162.557 227.674 163.706L227.569 163.805C227.377 163.983 227.239 164.211 227.171 164.463L226.636 166.472C226.527 166.876 226.242 167.211 225.858 167.379L223.342 168.485C222.429 168.886 221.404 168.219 221.404 167.222C221.404 166.89 221.285 166.568 221.067 166.318L219.095 164.043C218.886 163.803 218.603 163.643 218.288 163.587L215.141 163.039C214.521 162.932 214.025 162.462 213.885 161.849C213.682 160.971 212.782 160.445 211.918 160.699L210.824 161.021C210.35 161.161 209.839 161.067 209.443 160.772L208.926 160.385C208.62 160.155 208.242 160.046 207.86 160.077L201.654 160.58C201.213 160.616 200.809 160.836 200.539 161.187L199.208 162.917C199.032 163.147 198.918 163.42 198.88 163.706C198.719 164.911 197.357 165.538 196.338 164.875L194.832 163.897C194.604 163.748 194.345 163.658 194.074 163.636L190.355 163.312C190.014 163.283 189.674 163.361 189.38 163.537L187.653 164.572C186.722 165.132 186.592 166.432 187.398 167.161C187.781 167.51 187.977 168.024 187.918 168.54L187.857 169.08C187.824 169.38 187.707 169.665 187.52 169.902L186.127 171.675C185.787 172.109 185.248 172.341 184.698 172.287L183.037 172.128C182.111 172.04 181.299 172.749 181.264 173.68L181.174 175.994C181.147 176.724 180.635 177.342 179.925 177.51L177.742 178.023C177.704 178.032 177.666 178.04 177.626 178.046L172.625 178.846L170.787 179.352C168.499 179.983 167.065 182.249 167.471 184.585C167.531 184.933 167.483 185.29 167.334 185.61L166.399 187.613C166.235 187.964 166.196 188.36 166.284 188.737L166.674 190.394C166.844 191.113 166.536 191.86 165.91 192.25C165.542 192.48 165.274 192.839 165.16 193.258L164.313 196.362C164.192 196.807 164.255 197.284 164.488 197.684L165.223 198.944C165.428 199.294 165.501 199.707 165.432 200.107L164.73 204.142L162.696 209.083C162.167 210.367 161.859 211.731 161.787 213.117L161.559 217.437C161.514 218.286 161.545 219.138 161.65 219.981L162.068 223.331C162.222 224.565 162.217 225.814 162.049 227.047L161.348 232.235C161.308 232.527 161.208 232.808 161.054 233.059L160.404 234.115C159.958 234.839 159.991 235.759 160.484 236.45C160.613 236.631 160.708 236.837 160.764 237.055L161.645 240.579C161.678 240.708 161.695 240.841 161.699 240.974L161.871 249.265C161.887 250.001 162.354 250.654 163.047 250.905C163.703 251.143 164.16 251.743 164.217 252.438L164.569 256.783C164.676 258.105 164.531 259.435 164.141 260.704L162.468 266.145C162.359 266.497 162.326 266.867 162.369 267.233L162.469 268.085C162.611 269.283 161.923 270.425 160.8 270.863C159.76 271.267 159.086 272.28 159.113 273.396L159.229 278.016C159.253 279.008 158.721 279.931 157.85 280.406L154.817 282.06L152.485 282.838C152.039 282.986 151.687 283.33 151.526 283.771L151.262 284.5C151.08 284.998 150.657 285.366 150.14 285.478C149.139 285.693 148.623 286.807 149.108 287.71L149.331 288.124C149.476 288.394 149.539 288.702 149.508 289.006L149.02 293.885C148.974 294.343 149.136 294.799 149.463 295.124L150.386 296.047C151.149 296.81 151.578 297.846 151.578 298.926C151.578 300.163 152.14 301.332 153.106 302.104L156.464 304.79C156.58 304.881 156.682 304.99 156.764 305.113L159.376 308.867C159.699 309.333 159.865 309.892 159.844 310.458L159.711 314.207C159.687 314.877 159.922 315.533 160.366 316.035C161.533 317.358 161.089 319.43 159.485 320.157L158.927 320.411C158.489 320.61 158.005 320.684 157.528 320.627L156.201 320.468C154.352 320.247 152.529 321.056 151.454 322.579C151.004 323.216 150.411 323.742 149.725 324.113L147.271 325.442C146.385 325.923 145.662 326.655 145.194 327.549L143.685 330.43L142.906 330.931C141.611 331.762 140.782 333.154 140.664 334.687L140.633 335.084C140.516 336.615 141.12 338.114 142.268 339.133L142.541 341.045C142.626 341.641 142.914 342.191 143.357 342.598C144.428 343.587 144.485 345.262 143.485 346.321L142.517 347.346C142.093 347.794 141.843 348.376 141.807 348.99L141.741 350.111C141.691 350.967 141.224 351.744 140.491 352.192L139.826 352.598C138.644 353.32 137.284 353.704 135.898 353.704H134.88C133.036 353.704 131.541 355.199 131.541 357.043C131.541 357.766 131.776 358.469 132.208 359.046L132.694 359.694C133.127 360.271 133.361 360.975 133.361 361.697V364.73C133.361 365.328 133.2 365.914 132.896 366.429L130.729 370.097L128.845 377.635C128.753 378 128.76 378.383 128.864 378.745L130.103 383.079C130.246 383.582 130.201 384.119 129.977 384.59L128.85 386.956C128.511 387.666 128.589 388.504 129.052 389.138L129.154 389.278C129.626 389.926 129.697 390.782 129.337 391.499C129.189 391.796 129.111 392.125 129.111 392.458V399.29C129.111 399.9 129.37 400.481 129.826 400.889L131.491 402.378C132.32 403.12 132.445 404.373 131.776 405.263L131.6 405.498C131.299 405.899 131.148 406.391 131.173 406.893L131.327 409.953C131.333 410.095 131.332 410.237 131.321 410.378L131.152 412.755C131.026 414.514 129.612 415.905 127.851 416.004C127.479 416.025 127.106 415.985 126.745 415.888L123.095 414.905C122.4 414.718 121.664 414.749 120.986 414.995L118.887 415.758C118.043 416.064 117.35 416.683 116.949 417.485L114.972 421.441C114.727 421.933 114.148 422.158 113.634 421.959C112.867 421.664 112.069 422.31 112.197 423.122L112.397 424.398C112.468 424.844 112.25 425.286 111.854 425.502L111.407 425.746C110.824 426.064 110.669 426.831 111.084 427.35L113.526 430.404L113.479 431.152C113.382 432.693 114.115 434.169 115.399 435.025L115.518 435.104C116.448 435.723 117.101 436.679 117.343 437.769L117.376 437.916C117.632 439.064 118.342 440.059 119.346 440.673L119.505 440.77C120.694 441.495 121.418 442.788 121.418 444.181C121.418 445.6 121.965 446.964 122.943 447.992L127.547 452.826C128.838 454.181 130.449 455.188 132.232 455.757L133.641 456.204C133.857 456.274 134.073 456.35 134.284 456.431L138.269 457.974C139.572 458.479 140.766 459.224 141.794 460.169L149.311 467.096C150.14 467.86 151.08 468.494 152.1 468.976L157.575 471.562C157.757 471.648 157.941 471.724 158.13 471.795L159.979 472.476C161.101 472.889 162.096 473.591 162.862 474.51C164.054 475.941 165.779 476.822 167.639 476.949L172.173 477.258C173.136 477.324 174.102 477.184 175.006 476.848L177.802 475.813C178.584 475.523 179.463 475.74 180.021 476.359L181.496 477.998C181.605 478.119 181.694 478.25 181.769 478.388L184.316 477.752C185.204 477.529 186.017 477.07 186.665 476.423L190.598 472.49C193.256 469.832 196.808 468.255 200.563 468.067L204.499 467.87C206.522 467.768 208.422 466.859 209.768 465.343C211.652 463.225 212.189 460.23 211.163 457.587L210.202 455.114C209.063 452.188 209.854 448.861 212.189 446.761L213.432 445.643C214.317 444.846 215.001 443.851 215.43 442.74L216.499 439.961C217.44 437.515 219.583 435.73 222.158 435.248L224.235 434.859C226.627 434.411 228.359 432.324 228.359 429.89V420.613C228.359 417.207 229.587 413.914 231.817 411.341L232.821 410.181C235.341 407.274 238.934 405.517 242.776 405.315L244.801 405.208C247.153 405.083 248.968 403.087 248.864 400.733L248.6 394.664C250.554 392.493 251.578 389.641 251.451 386.722L255.274 382.476C257.948 379.505 257.829 374.962 255.003 372.136C253.67 370.803 252.888 369.018 252.808 367.136L252.383 356.92C252.321 355.415 252.932 353.96 254.052 352.952L257.504 349.845C258.313 349.117 258.866 348.146 259.08 347.078C259.617 344.394 262.192 342.624 264.892 343.088L276.475 345.073C279.66 345.619 282.532 343.077 282.378 339.851L282.344 339.135C282.136 334.792 281.084 330.532 279.247 326.592L275.082 317.667C273.711 314.729 273.248 311.447 273.754 308.244C274.494 303.564 277.235 299.437 281.265 296.944L286.047 293.983C287.668 292.979 289.101 291.698 290.278 290.2L293.366 286.27C294.816 284.424 296.868 283.144 299.165 282.651C302.581 281.918 305.374 279.464 306.537 276.168L307.59 273.189C308.215 271.417 309.323 269.859 310.789 268.685L312.45 267.358C314.116 266.025 316.162 265.258 318.293 265.165L328.835 264.707C329.533 264.676 330.235 264.719 330.925 264.835L344.994 267.18C345.191 267.213 345.388 267.23 345.587 267.238C345.698 265.712 346.42 264.238 347.702 263.212L353.926 258.234C355.552 256.933 357.462 256.031 359.501 255.602L363.089 254.847C366.663 254.095 369.772 251.907 371.685 248.796C373.102 246.494 373.783 243.817 373.642 241.118L372.7 223.206C372.612 221.542 372.838 219.876 373.365 218.296L375.61 211.56C375.736 211.18 375.823 210.789 375.868 210.391L377.359 196.963C377.608 194.73 378.546 192.63 380.045 190.956L381.455 189.379C385.463 184.9 385.041 178.011 380.518 174.053L380.529 174.047Z" fill="#B4BFFA" stroke="#4D4D4D" stroke-width="0.75" stroke-linecap="round" stroke-linejoin="bevel"/>
<path d="M330.935 264.829C330.245 264.713 329.545 264.672 328.846 264.701L318.303 265.159C316.172 265.253 314.126 266.02 312.46 267.352L310.799 268.68C309.334 269.853 308.224 271.412 307.6 273.183L306.548 276.163C305.385 279.459 302.592 281.915 299.175 282.646C296.88 283.138 294.829 284.417 293.377 286.265L290.288 290.195C289.11 291.695 287.679 292.975 286.058 293.978L281.276 296.938C277.247 299.432 274.504 303.559 273.765 308.239C273.258 311.442 273.722 314.723 275.092 317.661L279.257 326.586C281.096 330.527 282.148 334.787 282.354 339.13L282.389 339.845C282.543 343.074 279.67 345.614 276.485 345.068L264.902 343.082C262.205 342.619 259.628 344.389 259.09 347.073C258.876 348.141 258.325 349.11 257.514 349.84L254.063 352.947C252.943 353.955 252.331 355.41 252.393 356.915L252.818 367.131C252.896 369.014 253.681 370.798 255.013 372.13C257.839 374.956 257.958 379.5 255.285 382.471L251.462 386.717C251.588 389.636 250.565 392.487 248.61 394.658L248.875 400.728C248.977 403.082 247.164 405.078 244.812 405.202L242.786 405.309C238.944 405.511 235.351 407.267 232.831 410.176L231.827 411.336C229.596 413.909 228.369 417.201 228.369 420.608V429.885C228.369 432.318 226.636 434.406 224.245 434.854L222.168 435.242C219.591 435.725 217.45 437.51 216.51 439.955L215.44 442.734C215.013 443.846 214.329 444.841 213.442 445.638L212.2 446.756C209.865 448.857 209.075 452.183 210.212 455.109L211.173 457.582C212.201 460.224 211.662 463.219 209.778 465.338C208.432 466.852 206.533 467.763 204.509 467.865L200.574 468.062C196.818 468.25 193.268 469.826 190.609 472.484L186.675 476.418C186.027 477.066 185.215 477.526 184.327 477.747L181.779 478.383C182.189 479.135 182.09 480.087 181.484 480.738L180.298 482.016C180.179 482.143 180.044 482.256 179.895 482.351L174.557 485.731C174.218 485.946 173.855 486.125 173.478 486.265L170.642 487.316C169.315 487.809 168.216 488.773 167.556 490.026C166.911 491.251 166.731 492.667 167.048 494.015L167.118 494.314C167.272 494.967 167.07 495.651 166.588 496.118L162.889 499.69C162.124 500.428 162.113 501.65 162.865 502.402L163.067 502.604C163.361 502.898 163.551 503.28 163.607 503.691L164.04 506.875C164.096 507.286 164.286 507.668 164.58 507.962C165.248 508.63 165.325 509.69 164.756 510.447L163.925 511.556L164.879 513.357C165.395 514.332 165.214 515.53 164.434 516.309C163.861 516.883 163.6 517.699 163.733 518.499L163.937 519.722C164.058 520.448 164.492 521.084 165.122 521.464L165.145 521.478C165.782 521.86 166.218 522.507 166.334 523.241L166.757 525.927L167.996 530.729C168.238 531.668 168.083 532.665 167.564 533.484L166.743 534.786C166.337 535.429 166.638 536.282 167.359 536.528L172.944 538.439C173.369 538.584 173.84 538.475 174.158 538.157C174.709 537.606 175.637 537.734 176.017 538.415L178.091 542.117L179.728 544.846C179.849 545.046 180.025 545.205 180.236 545.305L182.877 546.548C183.179 546.69 183.407 546.954 183.502 547.276L184.036 549.056C184.359 550.136 184.041 551.306 183.215 552.073C182.465 552.77 182.576 553.988 183.44 554.538C183.773 554.75 184.014 555.08 184.114 555.462L184.964 558.724C185.096 559.223 185.464 559.627 185.951 559.8L187.767 560.448C187.925 560.505 188.073 560.587 188.205 560.69L192.207 563.824C192.499 564.052 192.862 564.169 193.234 564.154L196.132 564.038C197.162 563.996 198.149 563.616 198.942 562.956L199.476 562.51C200.658 561.525 201.281 560.023 201.141 558.49L200.99 556.845C200.968 556.605 200.961 556.364 200.966 556.124L201.122 549.935C201.139 549.272 201.885 548.892 202.432 549.27L203.532 550.032C203.704 550.15 203.849 550.302 203.959 550.476L204.457 551.259C205.888 553.508 207.744 555.454 209.92 556.992L210.064 557.094L215.056 560.358C215.236 560.476 215.419 560.588 215.604 560.695L216.313 561.107C218.183 562.189 219.721 563.761 220.761 565.654C221.183 566.421 221.536 567.226 221.814 568.058L222.092 568.894C222.436 569.928 222.897 570.92 223.463 571.851L224.823 574.086C225.217 574.734 225.87 575.183 226.617 575.318C227.292 575.441 227.894 575.821 228.295 576.376L229.487 578.028C229.995 578.733 230.128 579.64 229.841 580.461L229.071 582.667C228.948 583.019 228.9 583.392 228.931 583.766L229.245 587.549C229.273 587.886 229.366 588.214 229.517 588.517L230.502 590.487L231.886 593.254C232.175 593.833 232.353 594.46 232.408 595.105L232.603 597.345C232.681 598.235 233.232 599.014 234.045 599.384C234.629 599.65 235.292 599.678 235.897 599.463L239.333 598.245C240.437 597.853 241.666 598.29 242.274 599.291L243.576 601.428C243.883 601.933 244.404 602.267 244.991 602.336L246.785 602.547C247.248 602.602 247.675 602.821 247.986 603.169L248.831 604.107C249.148 604.46 249.324 604.916 249.324 605.391V606.171C249.324 606.964 248.835 607.676 248.093 607.961C247.271 608.277 246.77 609.114 246.879 609.99L247.141 612.092C247.231 612.811 246.763 613.481 246.056 613.644L245.679 613.73C245.078 613.868 244.635 614.383 244.587 614.999L244.495 616.184C244.475 616.452 244.378 616.71 244.217 616.924C243.704 617.606 243.911 618.585 244.654 619.005L245.683 619.582C246.172 619.857 246.452 620.396 246.396 620.954L246.092 623.989C246.085 624.051 246.077 624.112 246.061 624.172L245.406 626.955C245.32 627.317 245.382 627.701 245.579 628.019L246.673 629.796C246.816 630.029 246.889 630.299 246.882 630.572L246.74 636.207C246.709 637.44 247.432 638.567 248.565 639.052C249.186 639.318 249.877 639.368 250.529 639.194L251.583 638.912C252.215 638.743 252.775 638.373 253.18 637.858L255.712 634.623C256.03 634.217 256.201 633.717 256.201 633.202V629.73C256.201 628.417 257.298 627.368 258.61 627.426C259.775 627.48 260.796 626.654 260.988 625.503L261.69 621.293C261.805 620.6 262.113 619.955 262.58 619.43L264.234 617.568C264.797 616.934 265.127 616.127 265.17 615.28C265.251 613.652 266.383 612.264 267.963 611.858L269.244 611.53C271.048 611.067 272.232 609.342 272.016 607.493L271.451 602.64C271.404 602.237 271.223 601.864 270.937 601.577C270.462 601.102 270.293 600.404 270.497 599.762L271.556 596.434C271.573 596.378 271.594 596.325 271.617 596.271L273.072 592.875C274.083 590.516 275.726 588.482 277.819 586.996L280.298 585.238C280.662 584.979 280.851 584.537 280.781 584.094C280.609 582.973 281.222 581.875 282.268 581.434L283.388 580.963C283.93 580.734 284.558 580.94 284.86 581.445C285.225 582.053 286.04 582.205 286.6 581.77L290.587 578.667C290.857 578.458 291.021 578.144 291.042 577.803L291.331 572.9C291.384 571.979 291.811 571.118 292.513 570.517L293.41 569.748C293.956 569.28 294.635 568.998 295.352 568.939C297.431 568.773 298.873 566.791 298.39 564.76L297.571 561.318C297.388 560.545 296.939 559.861 296.303 559.384L293.185 557.045C292.215 556.318 291.706 555.131 291.847 553.928L292.024 552.431L293.78 550.381C294.213 549.875 294.452 549.232 294.452 548.565V546.316C294.452 545.689 294.663 545.079 295.052 544.587L295.916 543.493C296.807 542.364 296.695 540.743 295.656 539.747L294.689 538.819C293.558 537.738 293.539 535.937 294.645 534.831C295.169 534.307 295.463 533.597 295.463 532.857V532.383C295.463 531.613 295.769 530.875 296.313 530.329L296.448 530.194C297.314 529.328 297.544 528.011 297.022 526.903C296.56 525.923 296.683 524.771 297.338 523.908L299.211 521.444C299.78 520.695 299.951 519.717 299.671 518.818L299.173 517.225C299.128 517.083 299.096 516.936 299.073 516.789L297.385 505.539C297.322 505.12 297.476 504.7 297.794 504.422C298.373 503.916 298.356 503.009 297.756 502.526L294.087 499.562C293.799 499.329 293.439 499.201 293.067 499.201C291.903 499.201 291.116 498.009 291.576 496.939L291.764 496.5C291.802 496.412 291.832 496.322 291.853 496.229L293.031 491.175C293.159 490.629 292.995 490.055 292.597 489.658L291.815 488.875C291.237 488.298 291.179 487.383 291.676 486.737L292.392 485.807C292.672 485.444 292.784 484.978 292.703 484.527L292.509 483.462C292.456 483.167 292.321 482.89 292.119 482.667L291.692 482.192C291.092 481.525 291.146 480.498 291.813 479.898L293.98 477.947C294.398 477.57 294.592 477.004 294.492 476.451L294.047 474.003C293.923 473.319 294.187 472.621 294.735 472.19L296.078 471.136C296.463 470.834 296.714 470.393 296.78 469.907C296.937 468.731 298.133 467.993 299.256 468.381L301.508 469.161C302.051 469.349 302.642 469.354 303.188 469.178L308.378 467.495C309.278 467.203 309.954 466.451 310.149 465.525C310.428 464.204 311.653 463.309 312.992 463.44C312.975 463.28 312.946 463.121 312.906 462.963L311.888 459.007C311.383 457.048 310.671 455.145 309.766 453.335L305.02 443.844C304.783 443.372 304.661 442.852 304.661 442.323V435.082C304.661 433.692 305.507 432.441 306.798 431.924L309.325 430.913C310.442 430.466 311.24 429.463 311.423 428.274L311.705 426.439C312.089 423.941 314.536 422.315 316.986 422.929C318.87 423.4 320.835 422.547 321.779 420.85C324.924 415.19 325.977 408.603 324.753 402.243L323.813 397.352C323.561 396.042 323.932 394.689 324.82 393.69L328.006 390.108C331.538 386.133 332.549 380.514 330.62 375.559C329.711 373.224 329.44 370.689 329.831 368.214L330.327 365.071C330.871 361.618 332.674 358.488 335.387 356.284L337.485 354.58C340.141 352.422 342.283 349.7 343.755 346.61L346.759 340.303C347.568 338.606 348.755 337.118 350.231 335.953L354.525 332.562C358.067 329.768 359.785 325.254 359.002 320.812C358.568 318.351 358.896 315.816 359.944 313.545L362.214 308.625L362.275 308.65C362.235 308.379 362.214 308.104 362.214 307.828V302.767C362.214 302.361 362.171 301.957 362.085 301.561L359.976 291.862C359.352 288.99 357.377 286.596 354.674 285.438C351.731 284.177 349.667 281.46 349.244 278.285L348.824 275.131C348.7 274.194 348.344 273.304 347.787 272.541L346.652 270.978C345.832 269.851 345.487 268.521 345.582 267.228C345.383 267.219 345.184 267.202 344.989 267.169L330.919 264.824L330.935 264.829Z" fill="#B4BFFA" stroke="#4D4D4D" stroke-width="0.75" stroke-linecap="round" stroke-linejoin="bevel"/>
<path d="M393.722 586.833C395.267 584.741 395.334 581.905 393.893 579.741C392.977 578.365 392.941 576.583 393.803 575.175L394.486 574.058C396.589 570.617 397.282 566.496 396.42 562.555L394.977 555.962C394.596 554.223 395.341 552.431 396.843 551.475C398.521 550.407 400.716 550.649 402.121 552.054L403.526 553.459C403.891 553.824 404.415 553.978 404.917 553.871C408.711 553.058 411.894 550.495 413.5 546.965C415.036 543.584 415.831 539.912 415.831 536.198V536.013C415.831 535.398 416.203 534.843 416.772 534.609L419.03 533.68C421.818 532.532 423.099 529.299 421.851 526.554C421.747 526.326 421.702 526.075 421.718 525.825C422.012 521.411 420.387 517.087 417.259 513.959L412.644 509.344C411.886 508.586 411.54 507.509 411.716 506.451C412.105 504.115 410.59 501.885 408.274 501.389L400.816 499.791C399.603 499.531 398.737 498.458 398.737 497.219C398.737 496.144 399.392 495.176 400.391 494.777L401.546 494.316C402.743 493.837 403.416 492.561 403.136 491.303L402.897 490.232C402.164 486.932 403.647 483.538 406.566 481.836L410.799 479.366C412.489 478.381 413.854 476.924 414.729 475.175L416.369 471.895C417.586 469.462 417.765 466.639 416.867 464.071L415.755 460.893C415.216 459.351 413.761 458.32 412.128 458.32C410.011 458.32 408.179 456.849 407.719 454.784L407.088 451.949C406.753 450.442 407.211 448.868 408.303 447.777C410.042 446.039 410.069 443.227 408.365 441.454L400.742 433.526C399.783 432.527 399.325 431.15 399.496 429.776C399.859 426.874 402.807 425.046 405.567 426.012L407.916 426.835C409.216 427.289 410.652 427.137 411.827 426.418L417.378 423.026C418.273 422.478 418.954 421.641 419.307 420.653C419.578 419.894 419.912 418.956 420.225 418.078C420.636 416.921 422.177 416.707 422.895 417.711L422.924 417.753C423.341 418.335 424.117 418.527 424.756 418.207L428.743 416.213C429.626 415.77 430.689 416.277 430.903 417.241L431.785 421.207C432.054 422.422 433.591 422.813 434.408 421.878L435.234 420.934C435.615 420.501 436.206 420.319 436.764 420.466L443.476 422.232C444.527 422.509 445.645 422.303 446.528 421.672C447.75 420.8 448.314 419.27 447.949 417.813L446.103 410.428C445.476 407.916 444.022 405.688 441.98 404.098L438.416 401.326C437.051 400.265 435.941 398.911 435.169 397.365L432.011 391.051C430.713 388.456 428.489 386.442 425.777 385.41C421.899 383.933 418.738 381.022 416.948 377.279L414.746 372.675C414.492 372.143 414.266 371.597 414.072 371.04L412.422 366.325C411.455 363.565 409.758 361.118 407.512 359.247C405.908 357.911 404.579 356.276 403.597 354.435L398.151 344.223C397.574 343.141 396.72 342.234 395.677 341.591L393.247 340.096C391.753 339.176 390.665 337.723 390.203 336.031C389.725 334.277 388.574 332.782 387.001 331.871L382.654 329.355C381.07 328.437 379.913 326.927 379.442 325.157L378.456 321.46C377.613 321.227 376.868 320.674 376.41 319.872L373.135 314.141C372.772 313.507 372.216 313.006 371.545 312.714L362.23 308.638L359.959 313.559C358.912 315.828 358.583 318.363 359.017 320.826C359.802 325.268 358.082 329.782 354.541 332.576L350.246 335.967C348.77 337.132 347.583 338.62 346.774 340.317L343.771 346.623C342.3 349.714 340.157 352.437 337.501 354.594L335.402 356.298C332.689 358.503 330.887 361.632 330.342 365.085L329.846 368.228C329.456 370.703 329.729 373.238 330.636 375.573C332.563 380.53 331.554 386.148 328.021 390.122L324.836 393.704C323.949 394.701 323.578 396.055 323.828 397.366L324.769 402.257C325.992 408.615 324.938 415.204 321.794 420.864C320.851 422.561 318.886 423.414 317.002 422.943C314.551 422.329 312.104 423.957 311.72 426.453L311.439 428.288C311.255 429.477 310.459 430.481 309.341 430.927L306.814 431.938C305.523 432.455 304.676 433.704 304.676 435.096V442.337C304.676 442.864 304.799 443.386 305.036 443.858L309.781 453.349C310.687 455.16 311.397 457.062 311.904 459.021L312.921 462.977C312.961 463.135 312.991 463.294 313.008 463.454C313.02 463.454 313.032 463.454 313.044 463.456L313.936 463.555C314.18 463.582 314.418 463.643 314.645 463.736L317.84 465.043C318.41 465.276 319.06 465.203 319.565 464.851C320.272 464.356 321.227 464.427 321.853 465.022L324.369 467.412C324.665 467.694 324.857 468.065 324.915 468.47L324.971 468.859C325.114 469.859 326.049 470.55 327.048 470.393L327.138 470.379C328.184 470.215 329.146 470.976 329.227 472.03V472.059C329.262 472.476 329.437 472.87 329.725 473.172L337.402 481.214C337.642 481.466 337.976 481.608 338.325 481.608C339.03 481.608 339.6 482.178 339.6 482.883V488.692C338.575 488.692 337.725 489.487 337.658 490.51L337.248 496.652C337.2 497.39 336.871 498.081 336.331 498.586L335.143 499.694C334.505 500.288 334.168 501.139 334.226 502.008L334.493 506.171C334.521 506.605 334.837 506.968 335.264 507.053C335.905 507.181 336.235 507.898 335.914 508.468C335.171 509.79 335.038 511.372 335.551 512.799L336.401 515.16C336.509 515.457 336.676 515.728 336.896 515.957L339.813 519.002C340.611 519.835 340.653 521.138 339.906 522.019C339.348 522.679 339.215 523.602 339.567 524.392L340.122 525.64C340.428 526.328 340.371 527.124 339.968 527.76L338.534 530.03C338.304 530.393 337.974 530.679 337.582 530.854L335.828 531.633C335.045 531.981 334.54 532.759 334.54 533.614V536.64C334.54 537.608 335.181 538.458 336.113 538.724L338.498 539.405C338.691 539.461 338.892 539.488 339.094 539.488H341.138C342.227 539.488 343.271 539.92 344.04 540.691C344.941 541.592 346.209 542.024 347.472 541.859L350.048 541.524C350.099 541.517 350.15 541.512 350.201 541.51L353.95 541.324C354.097 541.317 354.244 541.293 354.385 541.251C355.666 540.885 356.926 541.892 356.85 543.223L356.639 546.906C356.613 547.347 356.739 547.782 356.997 548.142L359.636 551.837L360.104 555.272C360.196 555.943 360.426 556.588 360.78 557.165L363.085 560.925C363.73 561.978 364.751 562.749 365.942 563.079L366.058 563.112C367.142 563.412 368.089 564.078 368.737 564.997L371.301 568.623C372.641 570.515 372.463 573.09 370.878 574.782C370.672 575 370.519 575.261 370.424 575.545L369.203 579.205C368.929 580.029 369.196 580.938 369.876 581.481L371.213 582.551C371.581 582.845 372.038 583.005 372.51 583.005H374.571C374.995 583.005 375.408 583.135 375.755 583.377L379.091 585.698C379.588 586.044 379.91 586.592 379.97 587.195C380.038 587.867 380.428 588.465 381.018 588.797L385.179 591.139C385.919 591.555 386.854 591.247 387.205 590.477C387.426 589.989 387.898 589.664 388.432 589.631L389.98 589.535C390.49 589.504 390.978 589.742 391.266 590.164L391.278 590.183C391.316 590.109 391.359 590.038 391.408 589.972L393.72 586.842L393.722 586.833Z" fill="#B4BFFA" stroke="#4D4D4D" stroke-width="0.75" stroke-linecap="round" stroke-linejoin="bevel"/>
<path d="M609.664 211.022C609.384 210.276 608.641 209.805 607.846 209.875C606.659 209.978 605.468 209.714 604.436 209.121L602.703 208.124C601.306 207.32 600.304 205.974 599.934 204.406L599.505 202.581C599.443 202.315 599.362 202.053 599.262 201.797L597.931 198.387C597.461 197.184 596.607 196.171 595.499 195.508L592.155 193.501C591.849 193.318 591.536 193.147 591.218 192.988L591.113 192.936C588.792 191.776 586.843 189.991 585.482 187.781C584.67 186.462 584.084 185.017 583.749 183.505L583.286 181.424C583.015 180.206 582.897 178.96 582.933 177.712L583.092 172.256C583.13 170.922 582.423 169.677 581.257 169.029C580.132 168.404 578.758 168.433 577.659 169.104L577.413 169.254C577.123 169.432 576.77 169.473 576.445 169.372L575.369 169.029C574.638 168.796 573.884 169.316 573.841 170.082C573.81 170.644 573.385 171.103 572.828 171.179L570.758 171.461L565.813 171.06C565.711 171.051 565.609 171.057 565.509 171.076L563.577 171.426C563.026 171.527 562.481 171.222 562.277 170.702L561.354 168.354C561.206 167.973 560.869 167.699 560.468 167.628L559.236 167.41C558.938 167.358 558.632 167.422 558.382 167.59C557.634 168.087 556.628 167.595 556.564 166.698L556.464 165.303C556.443 165.011 556.313 164.738 556.102 164.538L554.654 163.162C554.137 162.671 553.308 162.751 552.893 163.33L551.3 165.561C551.065 165.889 550.676 166.074 550.273 166.05L549.447 165.998C549.001 165.97 548.578 166.198 548.356 166.586L547.77 167.61C547.669 167.787 547.617 167.987 547.617 168.191V168.423C547.617 169.304 546.682 169.869 545.901 169.461L544.967 168.972C544.807 168.888 544.668 168.768 544.561 168.621L542.606 165.922C542.116 165.244 541.343 164.826 540.508 164.786C539.148 164.721 537.944 165.661 537.676 166.997L535.713 176.817L533.993 186.559C533.926 186.941 533.782 187.307 533.571 187.634L530.739 192.024C530.182 192.886 529.214 193.392 528.19 193.358L520.345 193.092C518.931 193.043 517.756 191.989 517.557 190.589C517.518 190.314 517.44 190.046 517.326 189.794L515.146 185C514.692 183.999 514.135 183.049 513.487 182.162C511.616 179.601 510.542 176.544 510.401 173.374L510.314 171.442C510.247 169.911 509.912 168.402 509.326 166.985L508.121 164.073C507.897 163.53 507.641 163.001 507.352 162.49L502.729 154.272C502.456 153.786 502.211 153.287 501.995 152.773L500.329 148.818C499.506 146.865 499.117 144.756 499.188 142.637C499.25 140.75 499.677 138.894 500.444 137.169L502.401 132.766C502.361 132.771 502.321 132.774 502.281 132.781C497.627 133.557 493.702 136.678 491.898 141.037L487.937 150.61C487.343 152.046 486.508 153.371 485.467 154.528L482.63 157.68C481.695 158.719 480.924 159.896 480.347 161.168L475.449 171.943C474.986 172.961 474.415 173.925 473.743 174.819L469.829 180.038C469.232 180.833 468.714 181.684 468.282 182.579L461.59 196.408C460.064 199.562 457.51 202.104 454.349 203.617L451.722 204.873C447.114 207.077 443.895 211.414 443.119 216.461L442.19 222.498C441.916 224.285 442.019 226.11 442.495 227.855C443.283 230.743 443.041 233.816 441.812 236.545L440.45 239.571C438.834 243.162 438.947 247.296 440.756 250.794L446.876 262.626C447.351 263.545 447.716 264.52 447.958 265.526L451.151 278.755C451.772 281.329 453.362 283.562 455.588 284.993C458.987 287.179 460.792 291.152 460.2 295.151L459.198 301.914C458.866 304.154 456.716 305.654 454.499 305.192L445.073 303.229C443.815 302.966 442.763 302.107 442.256 300.925C441.582 299.351 439.968 298.393 438.264 298.556L430.435 299.301C428.771 299.46 427.468 300.804 427.364 302.474L427.338 302.902C427.16 305.74 423.785 307.119 421.669 305.218L421.151 304.752C420.681 304.328 420.339 303.784 420.161 303.177L416.716 291.366C416.25 289.764 414.687 288.738 413.03 288.945L408.035 289.569C406.561 289.754 405.377 290.874 405.111 292.334L404.657 294.833C404.418 296.147 403.431 297.199 402.137 297.524C400.417 297.954 399.316 299.633 399.608 301.382L400.116 304.43C400.286 305.452 399.982 306.494 399.29 307.264L395.284 311.716C394.818 312.235 394.202 312.598 393.521 312.755L388.019 314.025C386.864 314.291 385.933 315.14 385.558 316.263L384.778 318.6C384.429 319.649 383.589 320.463 382.53 320.781L380.342 321.438C379.711 321.628 379.061 321.623 378.46 321.455L379.445 325.152C379.917 326.921 381.073 328.432 382.658 329.35L387.004 331.866C388.579 332.777 389.73 334.272 390.207 336.026C390.668 337.718 391.757 339.171 393.25 340.091L395.68 341.586C396.724 342.229 397.578 343.136 398.155 344.218L403.601 354.43C404.582 356.272 405.913 357.905 407.515 359.241C409.762 361.113 411.459 363.56 412.425 366.32L414.075 371.035C414.271 371.591 414.495 372.137 414.749 372.67L416.951 377.274C418.742 381.017 421.903 383.929 425.781 385.405C428.492 386.439 430.717 388.452 432.015 391.046L435.172 397.359C435.945 398.906 437.054 400.259 438.419 401.321L441.983 404.093C444.028 405.683 445.479 407.912 446.107 410.423L447.952 417.808C448.317 419.263 447.754 420.794 446.532 421.667C445.649 422.298 444.529 422.504 443.48 422.227L436.767 420.461C436.211 420.314 435.618 420.495 435.238 420.929L434.412 421.873C433.592 422.809 432.058 422.417 431.788 421.202L430.907 417.236C430.692 416.272 429.63 415.767 428.746 416.208L424.759 418.202C424.12 418.522 423.342 418.33 422.928 417.747L422.898 417.706C422.181 416.702 420.639 416.918 420.228 418.072C419.915 418.949 419.58 419.889 419.31 420.647C418.958 421.636 418.277 422.474 417.382 423.02L411.83 426.413C410.655 427.132 409.221 427.284 407.919 426.829L405.571 426.007C402.811 425.041 399.862 426.867 399.499 429.771C399.328 431.145 399.786 432.524 400.746 433.521L408.369 441.449C410.073 443.222 410.045 446.032 408.307 447.772C407.214 448.864 406.756 450.437 407.092 451.944L407.722 454.779C408.182 456.846 410.014 458.315 412.131 458.315C413.764 458.315 415.22 459.346 415.759 460.888L416.87 464.066C417.769 466.634 417.589 469.456 416.372 471.89L414.732 475.17C413.858 476.919 412.492 478.376 410.802 479.361L406.57 481.831C403.651 483.533 402.166 486.929 402.901 490.226L403.139 491.298C403.419 492.556 402.745 493.832 401.549 494.31L400.395 494.772C399.396 495.171 398.741 496.139 398.741 497.214C398.741 498.455 399.607 499.526 400.82 499.785L408.277 501.384C410.593 501.88 412.11 504.109 411.72 506.446C411.544 507.504 411.889 508.58 412.648 509.339L417.262 513.954C420.39 517.082 422.015 521.407 421.721 525.82C421.704 526.07 421.751 526.321 421.854 526.549C423.102 529.293 421.823 532.527 419.034 533.674L416.775 534.604C416.206 534.839 415.835 535.392 415.835 536.008V536.192C415.835 539.906 415.04 543.577 413.503 546.959C411.898 550.49 408.714 553.053 404.921 553.866C404.418 553.973 403.894 553.819 403.53 553.454L402.125 552.049C400.718 550.642 398.523 550.402 396.847 551.47C395.345 552.426 394.598 554.218 394.98 555.957L396.423 562.55C397.286 566.49 396.593 570.61 394.489 574.053L393.807 575.17C392.944 576.58 392.981 578.362 393.896 579.736C395.34 581.899 395.27 584.735 393.725 586.828L391.413 589.958C391.363 590.026 391.321 590.096 391.283 590.169L393.48 593.39C393.712 593.729 394.074 593.954 394.481 594.009L397.813 594.464C398.125 594.507 398.416 594.65 398.641 594.875L399.086 595.321C399.358 595.592 399.726 595.744 400.11 595.744H401.81C402.273 595.744 402.707 595.965 402.98 596.341L403.996 597.739C404.109 597.892 404.188 598.067 404.233 598.252L404.945 601.218C405.234 602.419 405.712 603.568 406.364 604.617L408.595 608.21C408.861 608.639 409.331 608.9 409.836 608.9H414.45C415.171 608.9 415.785 609.425 415.894 610.137C416.013 610.915 416.727 611.457 417.508 611.366L418.156 611.29C419.015 611.19 419.862 611.563 420.363 612.266C420.494 612.449 420.598 612.65 420.672 612.861L421.488 615.194C421.787 616.048 422.546 616.658 423.444 616.765L426.14 617.088C426.718 617.157 427.3 617.012 427.777 616.682L433.962 612.387C434.201 612.221 434.406 612.014 434.569 611.775L436.681 608.678C437.077 608.098 437.821 607.864 438.478 608.117C439.296 608.431 440.21 607.989 440.471 607.154L440.785 606.148C440.922 605.713 441.247 605.362 441.67 605.193L444.095 604.223C444.671 603.993 445.049 603.435 445.049 602.815V599.398C445.049 598.599 444.812 597.82 444.37 597.156L442.991 595.088C442.04 593.662 442.092 591.793 443.12 590.423C443.587 589.803 444.221 589.327 444.949 589.058L447.895 587.965C448.801 587.63 449.555 586.982 450.025 586.139L450.659 584.998C451.089 584.226 451.24 583.327 451.086 582.456C450.871 581.243 451.552 580.048 452.707 579.616L458.441 577.466C458.664 577.383 458.916 577.446 459.074 577.625C459.772 578.424 460.885 578.719 461.887 578.372L464.756 577.378C465.23 577.214 465.625 576.882 465.869 576.443L466.369 575.543C466.972 574.456 466.469 573.087 465.304 572.651C464.663 572.411 464.186 571.863 464.034 571.195L463.261 567.774C463 566.622 463.147 565.414 463.676 564.358C463.923 563.865 463.895 563.279 463.602 562.811C463.272 562.284 463.282 561.612 463.628 561.095L464.497 559.792C464.853 559.258 465.496 558.992 466.123 559.118L466.811 559.256C467.488 559.391 468.119 558.874 468.119 558.183C468.119 557.578 468.608 557.089 469.213 557.089H471.747C473.053 557.089 474.305 556.57 475.229 555.647C475.615 555.262 476.064 554.951 476.56 554.724L477.701 554.206C479.27 553.492 480.3 551.951 480.357 550.228C480.423 548.282 481.722 546.593 483.587 546.033L485.594 545.432C486.181 545.255 486.819 545.39 487.284 545.789C487.704 546.149 488.271 546.284 488.808 546.149L489.453 545.988C490.03 545.845 490.49 545.409 490.668 544.842L491.129 543.366C491.295 542.836 491.71 542.418 492.24 542.25L495.356 541.258C495.676 541.156 496.02 541.151 496.341 541.244C496.914 541.408 497.531 541.261 497.968 540.857L499.197 539.723C499.63 539.322 499.824 538.726 499.708 538.147L499.117 535.195C499.095 535.086 499.084 534.974 499.084 534.863V534.195C499.084 533.222 499.903 532.447 500.876 532.504C501.794 532.558 502.586 531.87 502.662 530.956L502.847 528.732C502.897 528.122 503.273 527.588 503.83 527.334L504.246 527.143C504.96 526.817 505.358 526.043 505.204 525.272L504.915 523.832L502.712 522.455L503.389 520.509C503.662 519.726 503.614 518.867 503.258 518.119L503.216 518.03C502.734 517.018 501.751 516.337 500.633 516.245C499.684 516.166 498.821 515.663 498.286 514.875L497.27 513.378C496.787 512.666 496.616 511.788 496.796 510.948L497.086 509.591C497.251 508.829 497.124 508.034 496.736 507.359L496.599 507.122C495.491 505.198 495.813 502.772 497.382 501.203L498.949 499.635C499.651 498.933 499.632 497.791 498.908 497.112C498.377 496.614 498.208 495.842 498.483 495.168L499.21 493.379C499.419 492.867 499.375 492.287 499.089 491.813L498.787 491.31C498.483 490.804 497.947 490.484 497.358 490.46L495.719 490.389C495.339 490.372 494.973 490.232 494.679 489.99L493.46 488.987C493.037 488.64 492.802 488.115 492.821 487.567L492.911 485.14C492.921 484.86 492.997 484.587 493.136 484.344L495.407 480.306L496.155 474.639C496.288 473.632 496.958 472.775 497.904 472.403C499.228 471.883 499.95 470.452 499.582 469.078L498.227 464.016C497.842 462.578 498.217 461.043 499.219 459.944L501.765 457.153C501.842 457.068 501.913 456.979 501.981 456.885L503.963 454.086C504.136 453.844 504.345 453.629 504.583 453.453L509.215 450.034C509.728 449.656 510.097 449.113 510.259 448.496L510.318 448.272C510.563 447.338 511.113 446.516 511.88 445.93L512.025 445.819C513.019 445.062 513.638 443.911 513.721 442.665L513.74 442.377C513.819 441.177 513.397 439.999 512.573 439.122C511.979 438.492 511.588 437.697 511.451 436.839L511.358 436.26C511.197 435.258 510.691 434.344 509.924 433.678L509.485 433.296C508.508 432.446 507.962 431.205 507.998 429.911L508.042 428.371C508.066 427.476 507.814 426.594 507.316 425.849L505.361 422.918C505.154 422.607 504.988 422.27 504.867 421.916L503.431 417.708C503.227 417.112 502.89 416.569 502.444 416.125C501.412 415.093 501.003 413.593 501.365 412.181L501.562 411.415C501.856 410.271 502.556 409.27 503.529 408.602L505.85 407.006C506.177 406.782 506.621 406.842 506.875 407.148L507.703 408.142C508.176 408.709 509.099 408.348 509.061 407.61C509.051 407.411 509.118 407.216 509.248 407.065L511.256 404.755C511.609 404.348 511.828 403.844 511.884 403.308L512.122 401.001C512.181 400.439 512.419 399.912 512.801 399.497L513.209 399.055C513.631 398.597 513.876 398.004 513.9 397.382L513.964 395.724C513.989 395.104 513.792 394.496 513.408 394.008L511.303 391.33C511.083 391.051 510.924 390.73 510.833 390.388L510.109 387.669C509.955 387.09 509.606 386.58 509.12 386.228C507.89 385.333 507.68 383.58 508.666 382.42L509.023 381.999C509.129 381.876 509.22 381.743 509.302 381.603L512.01 376.864C512.314 376.332 512.383 375.696 512.198 375.11L510.66 370.242C510.299 369.096 510.923 367.872 512.062 367.492L514.682 366.619C514.868 366.557 515.067 366.533 515.264 366.55C516.028 366.614 516.709 366.077 516.826 365.32L517.13 363.344C517.156 363.171 517.215 363.004 517.3 362.852L519.968 358.109C520.563 357.052 520.765 355.816 520.539 354.623C520.407 353.934 520.136 353.277 519.742 352.696L518.572 350.973C518.017 350.156 517.709 349.195 517.685 348.206L517.594 344.339C517.587 344.071 517.602 343.801 517.637 343.537L518.567 336.562C518.643 335.986 518.515 335.402 518.202 334.911L517.452 333.732C517.003 333.026 516.809 332.186 516.906 331.353C517.068 329.951 518.022 328.769 519.356 328.313L522.438 327.264C523.089 327.042 523.416 326.315 523.15 325.681C522.844 324.956 523.316 324.141 524.097 324.042L525.578 323.857C525.756 323.835 525.927 323.773 526.078 323.674L528.113 322.35C528.423 322.15 528.62 321.816 528.649 321.45L528.824 319.276C528.86 318.83 528.744 318.386 528.495 318.012C527.825 317.007 528.198 315.64 529.289 315.114L529.517 315.004C530.353 314.601 531.356 314.829 531.935 315.553L532.038 315.681C532.394 316.127 532.925 316.396 533.493 316.426L534.282 316.466C534.907 316.497 535.472 316.089 535.637 315.484L535.832 314.77C536.025 314.062 536.755 313.642 537.463 313.832C537.945 313.96 538.457 313.809 538.794 313.441L540.574 311.492C540.897 311.137 541.435 311.079 541.827 311.355C542.486 311.82 543.389 311.309 543.327 310.503L543.267 309.71C543.232 309.262 543.516 308.851 543.946 308.723L545.347 308.308C546.355 308.009 547.197 307.309 547.674 306.371L551.198 299.437L551.365 299.102C552.195 297.443 552.046 295.461 550.978 293.943C550.527 293.302 550.793 292.408 551.521 292.116C551.918 291.957 552.202 291.601 552.269 291.178L552.535 289.491C552.561 289.327 552.62 289.17 552.71 289.028L554.334 286.474C554.445 286.301 554.509 286.102 554.521 285.898L554.777 281.802L554.441 277.997C554.391 277.432 554.552 276.868 554.893 276.414C555.09 276.153 555.228 275.852 555.299 275.532L555.554 274.379C555.675 273.837 555.988 273.356 556.436 273.026L557.117 272.523C557.869 271.97 558.211 271.018 557.984 270.112L557.312 267.427C557.274 267.276 557.252 267.123 557.246 266.969L557.03 261.981C556.999 261.255 556.738 260.56 556.284 259.994C555.38 258.865 555.285 257.289 556.045 256.06L556.227 255.766C557.157 254.261 557.499 252.465 557.188 250.723C557.051 249.961 556.792 249.225 556.422 248.544L555.33 246.541L555.451 241.567C555.461 241.137 555.646 240.729 555.964 240.439C556.605 239.851 556.652 238.857 556.071 238.213L555.197 237.241C554.849 236.854 554.713 236.322 554.834 235.815L555.008 235.084C555.193 234.31 555.923 233.793 556.714 233.876L556.975 233.904C557.571 233.966 558.152 233.688 558.475 233.183L559.659 231.334C559.965 230.857 560.502 230.579 561.068 230.607L561.586 230.631C562.41 230.671 563.126 230.071 563.231 229.252L563.454 227.522C563.534 226.905 564.073 226.45 564.695 226.476L566.439 226.549C566.736 226.561 567.028 226.462 567.256 226.272L568.361 225.353C568.985 224.833 569.256 224.003 569.059 223.215C568.839 222.337 569.202 221.418 569.961 220.927L573.006 218.956C573.24 218.806 573.528 218.768 573.793 218.856L575.377 219.385C575.867 219.548 576.392 219.276 576.542 218.784L577.916 214.269C578.068 213.768 578.611 213.497 579.104 213.677L579.221 213.72C579.525 213.831 579.748 214.093 579.807 214.411L579.949 215.166C580.044 215.676 580.545 216.005 581.051 215.889L583.756 215.27C584.35 215.134 584.909 215.607 584.872 216.215C584.838 216.794 585.346 217.259 585.92 217.175L591.132 216.399C591.227 216.385 591.317 216.34 591.384 216.271L592.33 215.325C592.622 215.033 593.037 214.899 593.444 214.963L594.659 215.154C595.124 215.227 595.511 215.547 595.672 215.989L596.476 218.2C596.77 219.008 597.76 219.309 598.455 218.799C598.866 218.497 599.417 218.466 599.86 218.72L601.18 219.473C601.68 219.758 602.309 219.679 602.722 219.278L606.821 215.293C606.928 215.189 607.06 215.116 607.203 215.08L607.583 214.985C609.32 214.551 610.29 212.702 609.662 211.026L609.664 211.022Z" fill="#B4BFFA" stroke="#4D4D4D" stroke-width="0.75" stroke-linecap="round" stroke-linejoin="bevel"/>
<path d="M226.801 245.651H224.003V243.902H237.539V245.651H234.741V249.317H232.581V245.651H228.962V249.317H226.801V245.651ZM228.823 242.715C228.194 242.715 227.634 242.637 227.144 242.48C226.651 242.322 226.236 242.098 225.896 241.802C225.555 241.508 225.294 241.154 225.113 240.738C224.93 240.321 224.84 239.856 224.84 239.338C224.84 238.819 224.931 238.354 225.113 237.938C225.296 237.523 225.557 237.167 225.896 236.873C226.235 236.579 226.651 236.353 227.144 236.196C227.634 236.038 228.196 235.961 228.823 235.961H232.702C233.32 235.961 233.877 236.04 234.375 236.196C234.871 236.353 235.292 236.578 235.636 236.873C235.98 237.167 236.245 237.521 236.428 237.938C236.611 238.354 236.701 238.819 236.701 239.338C236.701 239.856 236.609 240.321 236.428 240.738C236.245 241.154 235.982 241.508 235.636 241.802C235.291 242.096 234.871 242.322 234.375 242.48C233.877 242.637 233.32 242.715 232.702 242.715H228.823ZM232.793 240.981C233.351 240.981 233.797 240.829 234.131 240.525C234.466 240.221 234.632 239.825 234.632 239.339C234.632 238.854 234.464 238.458 234.131 238.154C233.796 237.85 233.35 237.698 232.793 237.698H228.747C228.189 237.698 227.743 237.85 227.41 238.154C227.074 238.458 226.909 238.854 226.909 239.339C226.909 239.825 227.076 240.221 227.41 240.525C227.745 240.829 228.191 240.981 228.747 240.981H232.793Z" fill="#333333"/>
<path d="M238.223 241.301C238.73 241.23 239.202 241.071 239.637 240.822C240.073 240.573 240.451 240.269 240.771 239.91C241.091 239.55 241.341 239.142 241.524 238.686C241.708 238.23 241.797 237.748 241.797 237.241V235.812H243.942V237.241C243.942 237.729 244.025 238.19 244.193 238.625C244.36 239.061 244.594 239.452 244.893 239.797C245.192 240.143 245.551 240.433 245.973 240.672C246.393 240.91 246.858 241.08 247.364 241.182V242.839C246.918 242.768 246.477 242.652 246.04 242.49C245.605 242.327 245.193 242.132 244.808 241.904C244.423 241.676 244.063 241.422 243.728 241.144C243.393 240.865 243.104 240.568 242.86 240.253C242.354 240.983 241.699 241.577 240.899 242.034C240.097 242.49 239.205 242.799 238.222 242.962V241.304L238.223 241.301ZM242.983 249.316C241.877 249.316 241.011 249.062 240.382 248.556C239.753 248.05 239.438 247.355 239.438 246.472C239.438 245.589 239.753 244.896 240.382 244.387C241.011 243.881 241.877 243.627 242.983 243.627H247.758C248.862 243.627 249.73 243.881 250.359 244.387C250.988 244.894 251.303 245.589 251.303 246.472C251.303 247.355 250.988 248.048 250.359 248.556C249.73 249.062 248.864 249.316 247.758 249.316H242.983ZM247.622 247.673C248.118 247.673 248.512 247.564 248.8 247.346C249.089 247.128 249.234 246.836 249.234 246.472C249.234 246.107 249.089 245.815 248.8 245.597C248.512 245.379 248.118 245.271 247.622 245.271H243.12C242.622 245.271 242.229 245.379 241.941 245.597C241.652 245.815 241.507 246.107 241.507 246.472C241.507 246.836 241.652 247.128 241.941 247.346C242.229 247.564 242.622 247.673 243.12 247.673H247.622ZM248.93 239.384H246.284V237.62H248.93V235.734H250.999V243.323H248.93V239.384Z" fill="#333333"/>
<path d="M252.9 242.806H263.074V237.863H253.888V236.099H265.142V242.806H266.435V244.555H260.748V249.315H258.587V244.555H252.9V242.806Z" fill="#333333"/>
<path d="M393.489 198.251H399.192V199.984H395.497V208.684H399.558V210.417H393.49V198.251H393.489ZM400.319 197.946H402.265V202.92H403.785V197.87H405.731V211.451H403.785V204.775H402.265V211.147H400.319V197.946Z" fill="#333333"/>
<path d="M407.861 198.022H415.921V199.664H409.929V203.269H416.59V204.911H407.861V198.022ZM408.469 206.067H419.875V211.451H417.807V207.77H408.469V206.066V206.067ZM413.792 200.546H417.807V197.869H419.875V205.533H417.807V202.308H413.792V200.544V200.546Z" fill="#333333"/>
<path d="M421.776 204.942H431.951V199.999H422.765V198.235H434.019V204.942H435.312V206.691H429.624V211.451H427.464V206.691H421.776V204.942Z" fill="#333333"/>
<path d="M454.63 335.86H460.47V334.811H455.619V329.701H467.253V331.343H457.688V333.168H467.482V334.809H462.63V335.858H468.166V337.486H454.63V335.858V335.86ZM464.303 338.293C465.297 338.293 466.075 338.515 466.638 338.955C467.202 339.396 467.482 339.998 467.482 340.758C467.482 341.518 467.2 342.12 466.638 342.561C466.075 343.001 465.297 343.222 464.303 343.222H458.493C457.499 343.222 456.722 343.001 456.158 342.561C455.595 342.12 455.315 341.518 455.315 340.758C455.315 339.998 455.596 339.396 456.158 338.955C456.722 338.515 457.499 338.293 458.493 338.293H464.303ZM464.167 341.579C464.552 341.579 464.856 341.499 465.079 341.344C465.302 341.187 465.415 340.991 465.415 340.758C465.415 340.525 465.302 340.329 465.079 340.172C464.856 340.015 464.552 339.937 464.167 339.937H458.631C458.246 339.937 457.942 340.017 457.719 340.172C457.496 340.329 457.383 340.525 457.383 340.758C457.383 340.991 457.496 341.187 457.719 341.344C457.942 341.501 458.246 341.579 458.631 341.579H464.167Z" fill="#333333"/>
<path d="M469.078 336.712H479.253V331.769H470.067V330.005H481.321V336.712H482.614V338.461H476.926V343.22H474.766V338.461H469.078V336.712Z" fill="#333333"/>
<path d="M354.667 431.672H368.203V433.3H362.515V434.472H364.34C365.334 434.472 366.112 434.693 366.675 435.134C367.238 435.574 367.518 436.176 367.518 436.936C367.518 437.697 367.237 438.298 366.675 438.739C366.112 439.179 365.334 439.401 364.34 439.401H358.53C357.536 439.401 356.758 439.179 356.195 438.739C355.631 438.298 355.352 437.697 355.352 436.936C355.352 436.176 355.633 435.574 356.195 435.134C356.758 434.693 357.536 434.472 358.53 434.472H360.355V433.3H354.667V431.672ZM355.428 429.664C356.036 429.624 356.611 429.539 357.154 429.413C357.697 429.287 358.181 429.126 358.606 428.934C359.031 428.743 359.387 428.523 359.67 428.281C359.954 428.037 360.142 427.775 360.234 427.49H355.656V425.877H367.214V427.49H362.636C362.728 427.773 362.914 428.037 363.199 428.281C363.483 428.525 363.839 428.743 364.264 428.934C364.689 429.128 365.175 429.287 365.716 429.413C366.258 429.539 366.834 429.624 367.442 429.664V431.2C366.184 431.119 365.035 430.908 363.989 430.569C362.945 430.231 362.093 429.761 361.435 429.163C360.776 429.761 359.924 430.229 358.881 430.569C357.837 430.91 356.686 431.119 355.428 431.2V429.664ZM364.202 437.755C364.587 437.755 364.891 437.676 365.114 437.52C365.337 437.363 365.45 437.168 365.45 436.934C365.45 436.701 365.337 436.506 365.114 436.349C364.891 436.191 364.587 436.114 364.202 436.114H358.666C358.281 436.114 357.977 436.193 357.754 436.349C357.531 436.506 357.418 436.701 357.418 436.934C357.418 437.168 357.531 437.363 357.754 437.52C357.977 437.678 358.281 437.755 358.666 437.755H364.202Z" fill="#333333"/>
<path d="M369.115 432.888H379.289V427.946H370.104V426.181H381.358V432.888H382.651V434.637H376.963V439.397H374.803V434.637H369.115V432.888Z" fill="#333333"/>
<path d="M261.821 417.713C262.348 417.561 262.837 417.302 263.288 416.937C263.739 416.572 264.125 416.126 264.444 415.599C264.764 415.072 265.015 414.481 265.198 413.828C265.381 413.175 265.471 412.482 265.471 411.752V407.114H267.616V411.752C267.616 412.411 267.693 413.05 267.851 413.669C268.008 414.288 268.236 414.858 268.535 415.38C268.834 415.902 269.202 416.361 269.638 416.756C270.073 417.151 270.566 417.455 271.114 417.668V419.538C270.657 419.417 270.201 419.227 269.745 418.968C269.289 418.708 268.858 418.409 268.452 418.071C268.046 417.732 267.681 417.359 267.356 416.953C267.031 416.546 266.774 416.137 266.58 415.72C266.347 416.208 266.064 416.659 265.728 417.073C265.393 417.49 265.022 417.865 264.61 418.199C264.199 418.534 263.758 418.817 263.286 419.051C262.815 419.284 262.325 419.462 261.819 419.583V417.713H261.821ZM272.755 412.831H269.653V411.037H272.755V406.885H274.824V420.466H272.755V412.831Z" fill="#333333"/>
<path d="M276.725 413.956H286.899V409.013H277.714V407.249H288.968V413.956H290.261V415.705H284.573V420.464H282.413V415.705H276.725V413.956Z" fill="#333333"/>
<path d="M540.507 164.788C539.147 164.723 537.942 165.663 537.674 166.999L535.711 176.819L533.991 186.561C533.924 186.943 533.78 187.309 533.57 187.636L530.737 192.025C530.18 192.888 529.213 193.394 528.188 193.36L520.343 193.093C518.93 193.045 517.754 191.991 517.556 190.591C517.516 190.316 517.438 190.048 517.324 189.796L515.145 185.002C514.69 184.001 514.134 183.051 513.486 182.164C511.614 179.603 510.541 176.546 510.399 173.376L510.313 171.444C510.245 169.911 509.91 168.404 509.324 166.987L508.119 164.075C507.895 163.532 507.639 163.003 507.35 162.491L502.727 154.274C502.454 153.788 502.209 153.289 501.993 152.775L500.327 148.819C499.504 146.866 499.115 144.758 499.186 142.639C499.248 140.752 499.675 138.896 500.443 137.171L503.536 130.213C503.937 129.309 504.43 128.449 505.003 127.645L508.163 123.222C508.851 122.258 509.654 121.382 510.553 120.611L518.539 113.765C518.923 113.437 519.265 113.064 519.56 112.654L520.888 110.815C521.453 110.034 521.833 109.134 522.001 108.183C522.231 106.884 522.051 105.544 521.489 104.352L520.044 101.282C519.448 100.017 518.377 99.0373 517.061 98.5603C515.525 98.0021 513.83 98.0816 512.354 98.7816L503.73 102.867C503.329 103.057 502.907 103.202 502.475 103.303L496.855 104.587C496.319 104.709 495.764 104.727 495.222 104.64L490.849 103.935C490.141 103.821 489.472 103.531 488.905 103.09L484.723 99.8375C484.444 99.6215 484.195 99.3726 483.978 99.0944L480.436 94.5629C479.678 93.5916 479.375 92.3421 479.605 91.1324L480.706 85.3566C480.81 84.8139 481.017 84.2972 481.316 83.834L485.315 77.6538L488.141 71.2472C488.279 70.9327 488.386 70.6026 488.459 70.2656L490.014 63.0052C490.118 62.5196 490.151 62.0219 490.109 61.5259L489.919 59.2532C489.829 58.1834 489 57.3228 487.934 57.1966L482.388 56.5364C481.648 56.4483 480.898 56.5243 480.193 56.7611L473.658 58.9387C471.095 59.7924 468.837 61.3772 467.16 63.4978L463.982 67.5177C463.23 68.4682 462.606 69.5155 462.126 70.6285L459.469 76.788C458.761 78.4281 458.377 80.1909 458.337 81.9761L458.196 88.3793L457.776 91.7372C457.39 94.8256 456.091 97.7273 454.046 100.073L451.463 103.036C450.692 103.921 449.822 104.716 448.874 105.408L444.823 108.354C442.579 109.986 439.942 110.992 437.182 111.266L436.911 111.294C434.536 111.531 432.139 111.221 429.903 110.39L426.802 109.237C425.363 108.702 424.101 107.774 423.159 106.559L420.235 102.782C419.907 102.357 419.537 101.965 419.131 101.612L415.577 98.5171C414.209 97.3246 412.484 96.6178 410.671 96.5055L401.691 95.9524C400.777 95.8954 399.861 95.9922 398.979 96.2376L389.998 98.7332C389.588 98.8472 389.173 98.9492 388.758 99.0391L382.43 100.415C380.862 100.755 379.263 100.926 377.66 100.926H371.246C370.116 100.926 368.986 100.842 367.869 100.671L363.239 99.9654C361.33 99.6751 359.634 98.5845 358.576 96.9686L357.152 94.791C356.935 94.4575 356.546 94.2743 356.15 94.3192C355.523 94.3884 354.975 93.8975 354.975 93.2685V88.5815L354.601 85.7247C354.477 84.7724 355.218 83.9273 356.179 83.9273C357.073 83.9273 357.79 83.1928 357.771 82.2993L357.626 75.9428C357.612 75.331 357.66 74.7192 357.769 74.1161L359.033 67.1651C359.159 66.4686 359.359 65.7877 359.631 65.1344L361.262 61.2009C362.187 58.9715 362.638 56.5744 362.589 54.1618L362.498 49.7116C362.474 48.5105 362.325 47.3145 362.055 46.1445L361.601 44.1726C360.97 41.4402 359.689 38.8997 357.87 36.7671L353.558 31.7154L347.92 25.3261C347.631 24.9977 347.32 24.6901 346.99 24.405L341.415 19.5728L334.492 13.3701C332.694 11.7611 330.368 10.8711 327.955 10.8711C326.003 10.8711 324.183 11.8648 323.125 13.5084L319.553 19.0664C319.421 19.2703 319.278 19.4656 319.122 19.6506L314.095 25.6458L311.351 28.6512C310.372 29.7228 309.076 30.4538 307.654 30.739C306.439 30.9826 305.181 30.8893 304.014 30.4711L298.007 28.3142C297.938 28.29 297.87 28.2607 297.806 28.2278L295.539 27.0941C294.474 26.5618 293.194 27.165 292.926 28.3246C292.872 28.5596 292.77 28.7826 292.63 28.9796L292.174 29.6191C291.951 29.9301 291.832 30.3034 291.832 30.6871V32.7109C291.832 33.1153 291.697 33.5093 291.452 33.8308L290.273 35.3637C289.976 35.7509 289.844 36.2382 289.906 36.7221L290.159 38.6543C290.318 39.8779 289.834 41.0963 288.88 41.8775C288.446 42.2318 288.211 42.7744 288.249 43.3327L288.327 44.4888C288.368 45.1024 288.731 45.6468 289.281 45.9216L292.442 47.5012L292.627 52.8881C292.637 53.2044 292.729 53.5137 292.891 53.7851L295.305 57.8101C295.546 58.2094 295.924 58.5049 296.37 58.638C297.16 58.8747 297.701 59.6023 297.701 60.4267V61.0955C297.701 61.7816 297.217 62.371 296.545 62.5058C296.012 62.6129 295.585 63.0087 295.44 63.5306L294.806 65.8119C294.714 66.1403 294.744 66.4911 294.886 66.8004L294.936 66.9111C295.376 67.865 294.68 68.9521 293.629 68.9521H293.482C293.074 68.9521 292.685 69.1249 292.412 69.4291L291.389 70.5663C291.151 70.8307 291.019 71.1729 291.019 71.5289V73.8102L290.959 73.8551C290.046 74.5395 289.728 75.7631 290.192 76.8052C290.67 77.8837 290.313 79.1505 289.338 79.8176L287.363 81.169C287.238 81.2537 287.121 81.3505 287.013 81.4577L286.625 81.8465C285.868 82.6035 285.691 83.7631 286.187 84.7119L287.136 86.5249C287.421 87.0675 287.49 87.6983 287.333 88.2894L286.823 90.2026C286.787 90.3356 286.77 90.4739 286.77 90.6122V92.254C286.77 92.8571 287.11 93.4067 287.649 93.6763L288.116 93.9096C288.545 94.1239 288.854 94.5197 288.958 94.9881L289.48 97.3402C289.559 97.6962 289.512 98.0695 289.35 98.3962L288.384 100.33C288.135 100.826 287.646 101.158 287.093 101.205C286.236 101.275 285.591 102.015 285.636 102.874L285.864 107.221C285.919 108.282 285.247 109.243 284.233 109.555C283.657 109.732 283.189 110.15 282.943 110.698L281.751 113.38C281.281 114.436 280.042 114.906 278.989 114.429C278.78 114.334 278.555 114.274 278.326 114.253L275.821 114.014C275.051 113.942 274.37 114.51 274.304 115.283C274.254 115.893 273.81 116.398 273.21 116.525L271.786 116.831C271.523 116.887 271.285 117.018 271.095 117.208L268.888 119.415C267.635 120.668 266.931 122.365 266.931 124.137C266.931 124.182 266.928 124.226 266.921 124.271L266.425 127.572C266.364 127.975 266.045 128.288 265.64 128.338C265.129 128.402 264.774 128.879 264.859 129.387L265.26 131.789C265.293 131.99 265.26 132.194 265.162 132.372L264.515 133.556C264.282 133.984 263.751 134.15 263.314 133.932C262.624 133.588 261.786 133.86 261.43 134.542L260.801 135.747C260.055 137.176 259.859 138.83 260.25 140.394L259.901 144.939C259.864 145.41 259.951 145.881 260.15 146.308L260.163 146.338C260.78 147.658 260.255 149.229 258.969 149.915L258.834 149.988C258.435 150.2 258.095 150.51 257.844 150.886L257.225 151.814C256.83 152.409 256.218 152.824 255.52 152.974L254.939 153.098C254.196 153.257 253.553 153.717 253.162 154.369C252.779 155.01 252.148 155.466 251.42 155.632L249.02 156.178C248.449 156.308 247.979 156.709 247.762 157.253L247.048 159.04C246.948 159.292 246.79 159.517 246.59 159.699L243.218 162.751C242.853 163.081 242.368 163.245 241.877 163.205L241.04 163.136C240.519 163.093 240.005 163.281 239.635 163.651L238.901 164.386C238.267 165.02 237.259 165.082 236.55 164.533C236.177 164.242 235.705 164.113 235.237 164.171L233.593 164.377C233.049 164.444 232.503 164.258 232.114 163.869L232.043 163.798C230.844 162.599 228.912 162.561 227.666 163.71L227.56 163.808C227.368 163.986 227.23 164.215 227.163 164.467L226.627 166.475C226.518 166.879 226.233 167.215 225.849 167.382L223.333 168.488C222.42 168.889 221.396 168.222 221.396 167.225C221.396 166.893 221.276 166.572 221.059 166.321L219.087 164.047C218.877 163.807 218.594 163.646 218.28 163.591L215.132 163.043C214.512 162.936 214.016 162.466 213.876 161.852C213.674 160.974 212.773 160.449 211.909 160.703L210.815 161.024C210.342 161.164 209.83 161.071 209.434 160.775L208.918 160.388C208.612 160.158 208.233 160.049 207.851 160.081L201.645 160.583C201.204 160.62 200.8 160.839 200.53 161.19L199.2 162.92C199.023 163.15 198.909 163.423 198.871 163.71C198.711 164.914 197.349 165.542 196.329 164.878L194.824 163.9C194.596 163.751 194.336 163.661 194.065 163.639L190.346 163.316C190.005 163.286 189.665 163.364 189.371 163.541L187.645 164.576C186.713 165.136 186.584 166.434 187.389 167.165C187.773 167.514 187.968 168.027 187.909 168.544L187.849 169.083C187.816 169.384 187.698 169.669 187.512 169.906L186.119 171.679C185.778 172.113 185.239 172.344 184.689 172.291L183.029 172.132C182.102 172.043 181.29 172.752 181.255 173.684L181.166 175.998C181.138 176.727 180.626 177.346 179.916 177.513L177.733 178.027C177.695 178.035 177.657 178.044 177.617 178.049L172.616 178.849L170.779 179.356C168.491 179.986 167.056 182.252 167.462 184.589C167.523 184.936 167.474 185.294 167.326 185.614L166.391 187.617C166.227 187.967 166.187 188.363 166.275 188.74L166.666 190.397C166.835 191.116 166.527 191.863 165.902 192.254C165.534 192.483 165.266 192.843 165.152 193.261L164.305 196.365C164.184 196.811 164.246 197.288 164.479 197.687L165.214 198.947C165.42 199.298 165.492 199.711 165.423 200.11L164.721 204.146L162.687 209.087C162.158 210.371 161.851 211.734 161.778 213.12L161.55 217.441C161.505 218.289 161.536 219.141 161.642 219.985L162.06 223.334C162.214 224.568 162.208 225.818 162.041 227.05L161.339 232.238C161.299 232.53 161.199 232.812 161.045 233.062L160.396 234.118C159.95 234.843 159.982 235.762 160.475 236.453C160.605 236.635 160.7 236.84 160.755 237.058L161.636 240.582C161.669 240.712 161.687 240.845 161.69 240.978L161.863 249.268C161.878 250.004 162.345 250.658 163.038 250.908C163.695 251.147 164.151 251.746 164.208 252.441L164.561 256.786C164.668 258.108 164.523 259.439 164.132 260.707L162.457 266.148C162.348 266.5 162.316 266.87 162.359 267.237L162.459 268.089C162.601 269.286 161.913 270.429 160.79 270.866C159.749 271.27 159.075 272.283 159.103 273.4L159.219 278.019C159.243 279.011 158.71 279.934 157.839 280.409L154.806 282.063L152.475 282.841C152.029 282.99 151.677 283.334 151.516 283.774L151.251 284.504C151.07 285.001 150.647 285.369 150.13 285.482C149.129 285.696 148.612 286.811 149.098 287.713L149.321 288.128C149.466 288.397 149.528 288.705 149.497 289.009L149.01 293.888C148.963 294.346 149.126 294.802 149.452 295.127L150.375 296.05C151.139 296.814 151.568 297.849 151.568 298.929C151.568 300.167 152.129 301.335 153.095 302.107L156.453 304.793C156.569 304.885 156.671 304.994 156.754 305.116L159.365 308.87C159.689 309.337 159.855 309.895 159.834 310.462L159.701 314.21C159.677 314.881 159.912 315.536 160.356 316.039C161.522 317.361 161.078 319.433 159.474 320.161L158.916 320.415C158.479 320.613 157.995 320.688 157.518 320.631L156.191 320.472C154.341 320.251 152.518 321.059 151.443 322.582C150.994 323.22 150.401 323.745 149.715 324.117L147.261 325.446C146.374 325.926 145.652 326.659 145.184 327.552L143.675 330.433L142.895 330.935C141.601 331.766 140.771 333.157 140.654 334.69L140.623 335.087C140.505 336.619 141.11 338.117 142.258 339.137L142.531 341.048C142.615 341.644 142.904 342.194 143.346 342.602C144.418 343.59 144.475 345.265 143.474 346.325L142.506 347.349C142.083 347.797 141.832 348.379 141.796 348.993L141.731 350.115C141.68 350.97 141.214 351.748 140.481 352.195L139.816 352.601C138.633 353.324 137.273 353.708 135.887 353.708H134.869C133.025 353.708 131.53 355.202 131.53 357.047C131.53 357.769 131.765 358.472 132.198 359.05L132.683 359.698C133.117 360.275 133.35 360.978 133.35 361.701V364.734C133.35 365.332 133.19 365.918 132.885 366.433L130.718 370.1L128.834 377.639C128.743 378.003 128.75 378.387 128.853 378.748L130.093 383.082C130.236 383.585 130.191 384.123 129.966 384.593L128.84 386.959C128.501 387.669 128.579 388.507 129.042 389.142L129.144 389.282C129.616 389.93 129.686 390.785 129.327 391.502C129.178 391.8 129.101 392.128 129.101 392.462V399.293C129.101 399.903 129.36 400.484 129.816 400.892L131.48 402.382C132.31 403.123 132.434 404.376 131.765 405.266L131.589 405.501C131.288 405.902 131.138 406.395 131.162 406.896L131.316 409.957C131.323 410.098 131.321 410.24 131.311 410.382L131.142 412.758C131.015 414.517 129.602 415.909 127.841 416.007C127.469 416.028 127.096 415.988 126.735 415.891L123.085 414.908C122.39 414.721 121.654 414.752 120.976 414.998L118.876 415.762C118.033 416.068 117.34 416.686 116.939 417.488L114.962 421.444C114.716 421.937 114.137 422.161 113.624 421.963C112.857 421.667 112.058 422.314 112.186 423.126L112.387 424.401C112.458 424.847 112.24 425.29 111.844 425.506L111.396 425.749C110.814 426.067 110.658 426.835 111.073 427.353L113.515 430.407L113.469 431.155C113.372 432.697 114.105 434.173 115.389 435.028L115.508 435.108C116.438 435.726 117.091 436.682 117.333 437.773L117.366 437.92C117.622 439.067 118.332 440.063 119.336 440.676L119.495 440.773C120.684 441.499 121.408 442.792 121.408 444.184C121.408 445.603 121.954 446.967 122.932 447.995L127.536 452.829C128.827 454.184 130.438 455.192 132.222 455.76L133.63 456.208C133.846 456.277 134.062 456.353 134.273 456.434L138.258 457.978C139.562 458.482 140.756 459.227 141.784 460.172L149.3 467.099C150.13 467.863 151.07 468.497 152.091 468.98L157.566 471.565C157.748 471.651 157.933 471.727 158.121 471.798L159.97 472.479C161.092 472.892 162.087 473.594 162.853 474.513C164.046 475.944 165.77 476.826 167.63 476.952L172.165 477.261C173.127 477.327 174.094 477.187 174.997 476.852L177.794 475.816C178.575 475.526 179.455 475.744 180.013 476.363L181.487 478.001C182.192 478.784 182.182 479.975 181.466 480.747L180.281 482.024C180.161 482.152 180.027 482.265 179.878 482.36L174.539 485.74C174.201 485.954 173.838 486.134 173.461 486.274L170.625 487.325C169.298 487.817 168.199 488.782 167.538 490.035C166.894 491.26 166.714 492.675 167.03 494.023L167.101 494.322C167.255 494.976 167.053 495.66 166.571 496.127L162.872 499.699C162.106 500.437 162.096 501.659 162.848 502.411L163.05 502.613C163.344 502.907 163.534 503.289 163.589 503.7L164.023 506.883C164.078 507.295 164.269 507.677 164.562 507.97C165.231 508.639 165.307 509.699 164.739 510.456L163.907 511.565L164.861 513.366C165.378 514.341 165.197 515.538 164.417 516.318C163.843 516.892 163.582 517.707 163.715 518.508L163.919 519.731C164.04 520.457 164.474 521.093 165.105 521.473L165.127 521.487C165.765 521.869 166.201 522.515 166.316 523.25L166.74 525.935L167.979 530.738C168.221 531.677 168.065 532.674 167.547 533.493L166.726 534.794C166.32 535.437 166.621 536.291 167.341 536.536L172.927 538.448C173.352 538.593 173.822 538.484 174.14 538.166C174.692 537.615 175.62 537.743 176 538.424L178.074 542.126L179.71 544.855C179.831 545.055 180.008 545.214 180.218 545.314L182.859 546.557C183.162 546.699 183.39 546.963 183.485 547.284L184.019 549.065C184.342 550.145 184.024 551.315 183.198 552.082C182.448 552.779 182.558 553.997 183.423 554.547C183.756 554.759 183.996 555.089 184.097 555.471L184.947 558.732C185.078 559.232 185.446 559.636 185.934 559.811L187.75 560.459C187.907 560.516 188.056 560.597 188.187 560.701L192.19 563.834C192.482 564.062 192.845 564.18 193.217 564.164L196.115 564.048C197.145 564.007 198.132 563.627 198.925 562.967L199.459 562.521C200.641 561.536 201.263 560.034 201.123 558.501L200.973 556.855C200.95 556.615 200.944 556.375 200.949 556.135L201.104 549.946C201.122 549.282 201.868 548.904 202.414 549.281L203.515 550.043C203.686 550.16 203.831 550.312 203.942 550.487L204.44 551.27C205.871 553.518 207.727 555.464 209.903 557.002L210.046 557.104L215.039 560.369C215.219 560.486 215.402 560.599 215.587 560.706L216.295 561.117C218.165 562.199 219.704 563.772 220.744 565.664C221.166 566.432 221.518 567.237 221.796 568.068L222.075 568.905C222.419 569.938 222.88 570.93 223.445 571.862L224.805 574.096C225.199 574.744 225.853 575.194 226.599 575.329C227.275 575.451 227.876 575.832 228.277 576.386L229.47 578.039C229.978 578.744 230.111 579.651 229.824 580.472L229.053 582.677C228.931 583.03 228.882 583.403 228.913 583.776L229.228 587.559C229.256 587.896 229.349 588.225 229.499 588.527L230.484 590.497L231.869 593.264C232.157 593.843 232.335 594.471 232.391 595.115L232.586 597.355C232.664 598.245 233.215 599.025 234.027 599.394C234.611 599.661 235.275 599.688 235.88 599.474L239.316 598.255C240.42 597.863 241.649 598.3 242.257 599.301L243.559 601.439C243.866 601.944 244.386 602.277 244.974 602.346L246.768 602.557C247.231 602.612 247.658 602.832 247.969 603.179L248.814 604.118C249.13 604.47 249.307 604.926 249.307 605.402V606.181C249.307 606.974 248.818 607.686 248.076 607.972C247.253 608.288 246.752 609.124 246.861 610.001L247.124 612.102C247.214 612.821 246.745 613.492 246.039 613.654L245.662 613.74C245.06 613.879 244.618 614.394 244.57 615.009L244.478 616.195C244.457 616.463 244.36 616.72 244.2 616.934C243.686 617.617 243.894 618.595 244.637 619.015L245.665 619.592C246.154 619.867 246.434 620.406 246.379 620.965L246.075 623.999C246.068 624.062 246.059 624.122 246.044 624.183L245.389 626.965C245.302 627.328 245.365 627.712 245.562 628.03L246.656 629.806C246.799 630.04 246.872 630.309 246.865 630.582L246.723 636.218C246.692 637.45 247.416 638.577 248.548 639.063C249.168 639.329 249.86 639.379 250.511 639.204L251.565 638.923C252.198 638.753 252.758 638.384 253.162 637.868L255.694 634.633C256.012 634.227 256.183 633.728 256.183 633.213V629.741C256.183 628.427 257.281 627.378 258.592 627.437C259.757 627.49 260.779 626.664 260.971 625.513L261.672 621.303C261.788 620.61 262.096 619.966 262.562 619.44L264.216 617.579C264.78 616.945 265.11 616.138 265.153 615.291C265.234 613.663 266.366 612.275 267.946 611.869L269.226 611.54C271.031 611.077 272.214 609.353 271.998 607.503L271.433 602.65C271.387 602.248 271.205 601.874 270.92 601.588C270.445 601.112 270.275 600.414 270.479 599.773L271.539 596.444C271.556 596.389 271.577 596.335 271.599 596.282L273.054 592.886C274.065 590.527 275.709 588.493 277.802 587.006L280.28 585.249C280.645 584.989 280.833 584.547 280.764 584.105C280.591 582.983 281.205 581.886 282.25 581.445L283.37 580.973C283.913 580.745 284.54 580.951 284.843 581.455C285.207 582.064 286.023 582.216 286.583 581.78L290.57 578.678C290.84 578.469 291.004 578.154 291.025 577.814L291.313 572.911C291.367 571.99 291.794 571.129 292.495 570.528L293.392 569.758C293.938 569.29 294.618 569.008 295.335 568.95C297.414 568.784 298.855 566.801 298.373 564.771L297.554 561.328C297.371 560.556 296.921 559.871 296.285 559.394L293.168 557.056C292.198 556.328 291.688 555.141 291.83 553.938L292.006 552.442L293.762 550.392C294.196 549.885 294.434 549.243 294.434 548.575V546.327C294.434 545.7 294.645 545.09 295.034 544.597L295.898 543.503C296.79 542.375 296.678 540.753 295.639 539.758L294.671 538.83C293.541 537.748 293.522 535.947 294.628 534.841C295.152 534.317 295.445 533.607 295.445 532.867V532.394C295.445 531.623 295.751 530.885 296.296 530.339L296.431 530.204C297.296 529.338 297.526 528.021 297.004 526.914C296.543 525.934 296.666 524.781 297.321 523.919L299.194 521.454C299.763 520.706 299.934 519.728 299.654 518.829L299.156 517.236C299.111 517.094 299.078 516.947 299.056 516.8L297.367 505.549C297.305 505.131 297.459 504.711 297.777 504.433C298.356 503.926 298.339 503.019 297.739 502.537L294.07 499.573C293.781 499.34 293.422 499.212 293.05 499.212C291.885 499.212 291.099 498.019 291.559 496.949L291.747 496.51C291.785 496.422 291.814 496.332 291.835 496.239L293.014 491.186C293.142 490.64 292.978 490.066 292.58 489.668L291.797 488.885C291.22 488.308 291.161 487.394 291.659 486.748L292.374 485.818C292.654 485.455 292.767 484.988 292.685 484.537L292.492 483.473C292.438 483.177 292.304 482.901 292.101 482.678L291.674 482.202C291.075 481.535 291.128 480.509 291.795 479.909L293.963 477.958C294.381 477.581 294.574 477.014 294.474 476.461L294.03 474.014C293.906 473.33 294.17 472.631 294.718 472.201L296.061 471.147C296.446 470.844 296.697 470.404 296.762 469.918C296.92 468.741 298.116 468.003 299.239 468.392L301.491 469.171C302.034 469.36 302.625 469.365 303.171 469.189L308.361 467.505C309.261 467.213 309.937 466.462 310.132 465.535C310.412 464.203 311.658 463.302 313.011 463.453L313.903 463.551C314.147 463.579 314.385 463.639 314.612 463.733L317.807 465.039C318.378 465.272 319.027 465.2 319.532 464.847C320.239 464.353 321.195 464.424 321.82 465.018L324.336 467.409C324.632 467.69 324.824 468.062 324.883 468.466L324.938 468.855C325.081 469.856 326.016 470.547 327.015 470.39L327.105 470.376C328.151 470.212 329.113 470.972 329.195 472.026V472.056C329.229 472.472 329.404 472.866 329.692 473.169L337.369 481.21C337.609 481.463 337.943 481.604 338.292 481.604C338.997 481.604 339.567 482.175 339.567 482.88V488.688C338.543 488.688 337.692 489.483 337.625 490.507L337.215 496.649C337.167 497.387 336.839 498.078 336.298 498.583L335.11 499.69C334.473 500.285 334.136 501.135 334.193 502.005L334.461 506.168C334.488 506.602 334.804 506.965 335.231 507.049C335.873 507.177 336.203 507.894 335.881 508.465C335.138 509.787 335.005 511.368 335.518 512.796L336.369 515.156C336.476 515.454 336.643 515.725 336.863 515.953L339.78 518.998C340.579 519.831 340.62 521.134 339.873 522.016C339.315 522.676 339.182 523.599 339.535 524.389L340.089 525.637C340.395 526.324 340.338 527.121 339.936 527.757L338.501 530.026C338.271 530.389 337.941 530.676 337.549 530.851L335.795 531.63C335.012 531.977 334.507 532.755 334.507 533.611V536.637C334.507 537.605 335.148 538.455 336.08 538.721L338.465 539.402C338.658 539.457 338.859 539.485 339.061 539.485H341.106C342.194 539.485 343.238 539.917 344.007 540.688C344.908 541.588 346.176 542.02 347.44 541.856L350.015 541.521C350.067 541.514 350.117 541.509 350.169 541.507L353.917 541.32C354.064 541.313 354.211 541.289 354.353 541.248C355.633 540.881 356.893 541.889 356.817 543.22L356.606 546.902C356.58 547.343 356.706 547.779 356.964 548.138L359.603 551.833L360.071 555.269C360.163 555.939 360.393 556.584 360.747 557.161L363.053 560.922C363.697 561.974 364.719 562.745 365.909 563.075L366.025 563.108C367.109 563.409 368.056 564.074 368.704 564.994L371.269 568.62C372.608 570.514 372.43 573.087 370.845 574.779C370.64 574.997 370.486 575.258 370.391 575.541L369.171 579.202C368.896 580.026 369.164 580.935 369.843 581.478L371.18 582.547C371.549 582.841 372.005 583.002 372.477 583.002H374.538C374.962 583.002 375.375 583.132 375.722 583.374L379.058 585.695C379.556 586.04 379.877 586.588 379.938 587.191C380.005 587.864 380.395 588.462 380.985 588.793L385.146 591.135C385.886 591.552 386.821 591.244 387.172 590.473C387.393 589.986 387.865 589.661 388.399 589.628L389.947 589.531C390.457 589.5 390.945 589.739 391.233 590.16L393.442 593.401C393.674 593.74 394.036 593.964 394.443 594.02L397.775 594.474C398.087 594.517 398.378 594.661 398.603 594.885L399.048 595.331C399.32 595.603 399.688 595.755 400.072 595.755H401.772C402.235 595.755 402.669 595.976 402.942 596.351L403.958 597.749C404.071 597.903 404.15 598.077 404.195 598.262L404.907 601.228C405.196 602.429 405.674 603.578 406.326 604.627L408.557 608.221C408.823 608.649 409.293 608.91 409.798 608.91H414.412C415.133 608.91 415.747 609.435 415.856 610.148C415.975 610.925 416.689 611.468 417.47 611.376L418.118 611.3C418.977 611.2 419.824 611.573 420.325 612.277C420.456 612.46 420.56 612.66 420.634 612.871L421.45 615.204C421.749 616.058 422.508 616.668 423.406 616.775L426.102 617.098C426.68 617.168 427.262 617.022 427.739 616.692L433.924 612.398C434.163 612.232 434.368 612.024 434.531 611.786L436.643 608.689C437.039 608.108 437.783 607.875 438.44 608.127C439.258 608.442 440.172 607.999 440.433 607.165L440.747 606.159C440.884 605.723 441.209 605.372 441.632 605.203L444.057 604.233C444.632 604.004 445.011 603.445 445.011 602.825V599.408C445.011 598.61 444.774 597.83 444.332 597.167L442.953 595.098C442.002 593.672 442.054 591.804 443.082 590.433C443.549 589.813 444.183 589.338 444.911 589.068L447.857 587.976C448.763 587.641 449.516 586.993 449.987 586.149L450.621 585.008C451.051 584.236 451.202 583.337 451.048 582.466C450.833 581.253 451.514 580.059 452.669 579.627L458.403 577.477C458.626 577.394 458.878 577.456 459.036 577.636C459.734 578.434 460.847 578.73 461.849 578.382L464.718 577.389C465.192 577.225 465.587 576.893 465.831 576.454L466.331 575.553C466.934 574.466 466.431 573.097 465.266 572.662C464.625 572.422 464.148 571.874 463.996 571.205L463.223 567.785C462.962 566.632 463.109 565.424 463.638 564.368C463.885 563.876 463.857 563.29 463.564 562.821C463.234 562.294 463.244 561.622 463.59 561.105L464.459 559.802C464.815 559.268 465.458 559.002 466.085 559.128L466.773 559.266C467.451 559.401 468.081 558.884 468.081 558.193C468.081 557.588 468.57 557.099 469.175 557.099H471.709C473.015 557.099 474.267 556.581 475.191 555.658C475.577 555.272 476.026 554.961 476.522 554.735L477.663 554.216C479.232 553.503 480.262 551.961 480.319 550.238C480.385 548.292 481.684 546.604 483.549 546.044L485.556 545.442C486.143 545.266 486.781 545.401 487.246 545.8C487.666 546.159 488.233 546.294 488.77 546.159L489.415 545.999C489.992 545.855 490.452 545.42 490.63 544.853L491.091 543.377C491.257 542.846 491.672 542.428 492.202 542.26L495.318 541.268C495.638 541.166 495.982 541.161 496.303 541.255C496.876 541.419 497.492 541.272 497.93 540.867L499.159 539.734C499.592 539.333 499.786 538.737 499.67 538.158L499.079 535.206C499.057 535.097 499.046 534.985 499.046 534.874V534.205C499.046 533.232 499.865 532.458 500.838 532.515C501.756 532.568 502.548 531.881 502.624 530.966L502.809 528.742C502.859 528.132 503.235 527.598 503.792 527.342L504.208 527.152C504.922 526.826 505.32 526.051 505.166 525.28L504.877 523.841L502.674 522.463L503.351 520.517C503.624 519.735 503.576 518.876 503.22 518.127L503.178 518.039C502.696 517.026 501.713 516.345 500.595 516.254C499.646 516.174 498.784 515.671 498.248 514.883L497.232 513.387C496.749 512.675 496.578 511.797 496.758 510.957L497.048 509.6C497.211 508.838 497.086 508.043 496.698 507.367L496.561 507.13C495.453 505.207 495.775 502.78 497.344 501.211L498.911 499.644C499.613 498.942 499.594 497.8 498.87 497.121C498.339 496.623 498.17 495.85 498.445 495.176L499.172 493.387C499.381 492.876 499.337 492.295 499.051 491.822L498.749 491.319C498.445 490.812 497.909 490.493 497.32 490.469L495.681 490.398C495.301 490.38 494.935 490.24 494.641 489.998L493.423 488.996C492.999 488.649 492.764 488.123 492.785 487.575L492.875 485.149C492.885 484.869 492.961 484.596 493.099 484.352L495.37 480.315L496.119 474.648C496.252 473.641 496.922 472.783 497.868 472.412C499.191 471.892 499.914 470.461 499.546 469.087L498.191 464.025C497.805 462.587 498.18 461.052 499.183 459.953L501.728 457.162C501.806 457.077 501.877 456.987 501.944 456.894L503.927 454.094C504.1 453.852 504.309 453.638 504.547 453.462L509.179 450.043C509.692 449.665 510.06 449.122 510.223 448.505L510.282 448.28C510.527 447.347 511.076 446.524 511.844 445.939L511.989 445.828C512.983 445.071 513.601 443.92 513.684 442.674L513.703 442.385C513.783 441.186 513.361 440.007 512.537 439.131C511.942 438.5 511.552 437.705 511.415 436.848L511.322 436.269C511.161 435.267 510.655 434.353 509.887 433.687L509.448 433.305C508.472 432.455 507.926 431.214 507.962 429.92L508.005 428.38C508.03 427.484 507.777 426.603 507.28 425.858L505.325 422.927C505.118 422.616 504.952 422.279 504.831 421.925L503.394 417.716C503.191 417.12 502.854 416.578 502.408 416.133C501.376 415.102 500.966 413.601 501.329 412.19L501.526 411.424C501.82 410.28 502.52 409.279 503.493 408.61L505.814 407.015C506.141 406.79 506.585 406.851 506.839 407.157L507.667 408.151C508.14 408.717 509.063 408.356 509.025 407.618C509.015 407.42 509.082 407.224 509.212 407.074L511.22 404.763C511.573 404.357 511.792 403.852 511.847 403.317L512.086 401.01C512.145 400.448 512.383 399.921 512.765 399.506L513.173 399.064C513.595 398.606 513.84 398.013 513.864 397.391L513.928 395.733C513.952 395.113 513.755 394.504 513.372 394.017L511.267 391.338C511.047 391.06 510.888 390.739 510.797 390.396L510.072 387.678C509.919 387.099 509.569 386.589 509.084 386.237C507.853 385.341 507.644 383.589 508.629 382.429L508.987 382.008C509.092 381.885 509.184 381.752 509.265 381.612L511.973 376.873C512.278 376.341 512.347 375.705 512.162 375.119L510.624 370.25C510.263 369.104 510.886 367.881 512.025 367.501L514.645 366.628C514.832 366.566 515.031 366.541 515.228 366.559C515.992 366.623 516.673 366.085 516.79 365.328L517.094 363.353C517.12 363.18 517.179 363.012 517.265 362.86L519.934 358.118C520.528 357.06 520.73 355.825 520.504 354.632C520.373 353.943 520.101 353.286 519.707 352.705L518.537 350.982C517.983 350.165 517.675 349.204 517.651 348.215L517.559 344.347C517.552 344.08 517.568 343.81 517.602 343.545L518.532 336.57C518.608 335.995 518.48 335.411 518.167 334.92L517.417 333.741C516.968 333.034 516.775 332.194 516.871 331.361C517.034 329.96 517.988 328.778 519.322 328.321L522.403 327.272C523.055 327.051 523.382 326.324 523.115 325.689C522.809 324.965 523.281 324.149 524.063 324.051L525.544 323.866C525.722 323.844 525.893 323.781 526.043 323.683L528.079 322.359C528.388 322.159 528.585 321.825 528.615 321.459L528.789 319.284C528.826 318.839 528.71 318.394 528.461 318.021C527.79 317.015 528.164 315.648 529.254 315.123L529.482 315.012C530.319 314.61 531.321 314.838 531.9 315.562L532.004 315.69C532.36 316.136 532.89 316.405 533.459 316.435L534.247 316.474C534.873 316.505 535.436 316.098 535.602 315.493L535.797 314.779C535.991 314.07 536.72 313.65 537.429 313.84C537.911 313.968 538.422 313.818 538.759 313.45L540.54 311.5C540.863 311.146 541.4 311.087 541.793 311.364C542.451 311.829 543.355 311.317 543.293 310.512L543.232 309.719C543.198 309.271 543.481 308.86 543.911 308.732L545.313 308.317C546.321 308.018 547.162 307.318 547.639 306.38L551.163 299.446L551.331 299.111C552.16 297.452 552.012 295.469 550.944 293.952C550.492 293.311 550.759 292.417 551.486 292.125C551.884 291.966 552.167 291.61 552.235 291.187L552.501 289.5C552.527 289.336 552.585 289.178 552.675 289.037L554.3 286.482C554.41 286.31 554.474 286.111 554.486 285.907L554.742 281.811L554.407 278.005C554.357 277.44 554.518 276.877 554.858 276.422C555.055 276.161 555.193 275.861 555.264 275.541L555.52 274.388C555.641 273.846 555.954 273.365 556.401 273.035L557.082 272.532C557.834 271.979 558.176 271.027 557.95 270.121L557.278 267.435C557.24 267.285 557.217 267.131 557.212 266.977L556.996 261.99C556.965 261.264 556.704 260.569 556.249 260.002C555.345 258.874 555.25 257.298 556.011 256.069L556.192 255.775C557.122 254.27 557.464 252.474 557.153 250.732C557.017 249.97 556.757 249.234 556.388 248.553L555.295 246.55L555.416 241.576C555.427 241.145 555.612 240.738 555.93 240.447C556.571 239.86 556.617 238.866 556.037 238.221L555.162 237.25C554.815 236.863 554.678 236.331 554.799 235.824L554.974 235.093C555.159 234.319 555.888 233.802 556.68 233.885L556.941 233.913C557.537 233.975 558.118 233.697 558.441 233.192L559.625 231.343C559.93 230.866 560.468 230.588 561.033 230.615L561.552 230.639C562.376 230.679 563.091 230.08 563.197 229.26L563.42 227.53C563.499 226.913 564.038 226.459 564.661 226.485L566.404 226.557C566.702 226.569 566.994 226.471 567.222 226.281L568.326 225.361C568.95 224.841 569.221 224.012 569.024 223.224C568.805 222.346 569.168 221.426 569.927 220.935L572.972 218.965C573.205 218.815 573.494 218.777 573.758 218.865L575.343 219.394C575.832 219.556 576.357 219.285 576.508 218.792L577.882 214.278C578.034 213.777 578.576 213.506 579.069 213.685L579.187 213.729C579.491 213.839 579.714 214.102 579.772 214.42L579.914 215.175C580.009 215.685 580.51 216.013 581.017 215.898L583.721 215.279C584.316 215.142 584.874 215.616 584.838 216.224C584.803 216.803 585.311 217.268 585.885 217.183L591.098 216.407C591.193 216.394 591.282 216.349 591.35 216.28L592.295 215.334C592.587 215.042 593.002 214.907 593.41 214.971L594.625 215.163C595.09 215.236 595.477 215.555 595.638 215.998L596.441 218.208C596.735 219.017 597.725 219.318 598.42 218.808C598.831 218.505 599.383 218.474 599.825 218.728L601.146 219.482C601.645 219.767 602.274 219.688 602.687 219.287L606.787 215.301C606.894 215.198 607.025 215.125 607.168 215.089L607.549 214.994C609.286 214.56 610.255 212.711 609.628 211.034C609.348 210.288 608.605 209.818 607.81 209.887C606.622 209.99 605.432 209.726 604.4 209.133L602.666 208.136C601.27 207.332 600.268 205.986 599.898 204.419L599.469 202.594C599.407 202.327 599.326 202.065 599.225 201.809L597.895 198.399C597.425 197.196 596.571 196.184 595.463 195.52L592.119 193.513C591.813 193.33 591.5 193.159 591.182 193L591.077 192.948C588.756 191.789 586.806 190.003 585.446 187.793C584.634 186.474 584.048 185.029 583.713 183.517L583.25 181.436C582.978 180.218 582.861 178.972 582.897 177.724L583.056 172.268C583.094 170.934 582.387 169.69 581.221 169.041C580.096 168.416 578.722 168.445 577.622 169.116L577.377 169.266C577.087 169.444 576.734 169.486 576.409 169.384L575.333 169.041C574.601 168.808 573.848 169.328 573.805 170.094C573.774 170.656 573.349 171.115 572.792 171.191L570.722 171.473L565.777 171.072C565.675 171.064 565.573 171.069 565.473 171.088L563.541 171.439C562.989 171.539 562.445 171.235 562.241 170.714L561.318 168.366C561.17 167.986 560.833 167.711 560.432 167.64L559.199 167.422C558.902 167.37 558.596 167.434 558.346 167.602C557.597 168.1 556.591 167.607 556.528 166.71L556.427 165.315C556.407 165.023 556.277 164.75 556.066 164.55L554.618 163.174C554.101 162.683 553.272 162.763 552.857 163.342L551.263 165.573C551.028 165.901 550.639 166.086 550.237 166.062L549.411 166.01C548.965 165.983 548.541 166.211 548.32 166.598L547.734 167.623C547.632 167.799 547.58 167.999 547.58 168.203V168.435C547.58 169.316 546.645 169.881 545.864 169.474L544.931 168.984C544.77 168.9 544.632 168.781 544.525 168.634L542.57 165.934C542.079 165.257 541.307 164.838 540.472 164.799L540.507 164.788Z" stroke="#4D4D4D" stroke-width="0.75" stroke-linecap="round" stroke-linejoin="bevel"/>
<path d="M530.906 459.094V473.547H528.547V466.516H527.609V472.891H525.328V459.312H527.609V464.531H528.547V459.094H530.906ZM524.031 460.719V462.719H521.172V468.391C522.281 468.359 523.391 468.289 524.609 468.078L524.781 470.094C523 470.422 521.422 470.469 519.719 470.469H518.656V460.719H524.031ZM544.453 459.125V469.625H541.953V464.703H540V462.703H541.953V459.125H544.453ZM544.766 471.344V473.344H534.672V468.734H537.172V471.344H544.766ZM540.531 459.969V461.953H537.891C537.914 463.492 538.695 465.203 541.047 465.938L539.844 467.922C538.289 467.438 537.258 466.5 536.641 465.312C536 466.625 534.922 467.664 533.266 468.172L531.984 466.156C534.469 465.422 535.273 463.625 535.328 461.953H532.672V459.969H540.531ZM551.891 460.703V469.625H553.719V472.016H546.812V469.625H548.906V463.656L546.812 465.109V462.391L549.188 460.703H551.891Z" fill="black"/>
</g>
<defs>
<clipPath id="clip0_73_22939">
<rect width="500.72" height="630.162" fill="white" transform="translate(110 10)"/>
</clipPath>
</defs>
</svg>
