<svg width="720" height="650" viewBox="0 0 720 650" fill="none" xmlns="http://www.w3.org/2000/svg">
<rect width="720" height="650" fill="white"/>
<g clip-path="url(#clip0_65_17692)">
<path d="M511.365 400.523C511.075 398.56 509.868 396.852 508.113 395.923L506.751 395.203C505.803 394.7 505.001 393.964 504.421 393.062C503.147 391.079 500.864 389.983 498.52 390.23L496.806 390.41C496.33 390.459 495.849 390.441 495.379 390.357L492.981 389.92C490.588 389.485 488.847 387.4 488.847 384.966C488.847 381.948 486.209 379.608 483.214 379.967C481.702 380.149 480.273 379.243 479.792 377.798L478.874 375.044C477.921 372.182 475.482 370.067 472.513 369.526C471.074 369.264 469.634 369.985 468.98 371.294C468.031 373.192 465.56 373.71 463.929 372.351L463.217 371.757C463.187 371.733 463.155 371.708 463.124 371.685L461.608 370.575C459.423 368.971 457.845 366.675 457.131 364.06C456.56 361.963 455.429 360.062 453.859 358.559C450.293 355.14 447.965 350.631 447.248 345.743L447.197 345.396C446.897 343.36 445.505 341.653 443.572 340.95L442.392 340.52C440.573 339.859 439.225 338.305 438.827 336.412C438.41 334.43 436.954 332.826 435.02 332.222L434.494 332.058C433.444 331.73 432.514 331.099 431.82 330.245L430.178 328.223C429.177 326.99 428.745 325.39 428.993 323.822L429.219 322.389C429.409 321.182 428.43 320.111 427.212 320.192L425.17 320.327C424.832 320.35 424.495 320.281 424.192 320.13L421.975 319.022C421.579 318.824 421.126 318.77 420.696 318.87L420.058 319.018C418.097 319.471 416.062 319.51 414.085 319.133L410.906 318.526C410.433 318.436 410.011 318.17 409.728 317.781L409.305 317.203C407.597 314.875 404.787 313.622 401.915 313.91L399.69 314.132C397.908 314.31 396.227 313.275 395.586 311.605C395.262 310.761 394.388 310.26 393.496 310.41L391.364 310.766C391.174 310.798 390.982 310.799 390.791 310.775L384.041 309.844C382.785 309.672 382.047 308.343 382.561 307.183L383.784 304.433C384.025 303.89 384.506 303.492 385.083 303.354L386.647 302.982C389.449 302.315 391.794 300.41 393.02 297.804C393.449 296.894 394.337 296.288 395.339 296.221L396.218 296.163C397.609 296.07 398.713 294.958 398.796 293.566L398.861 292.471C398.934 291.247 399.804 290.214 401 289.939C402.308 289.638 403.212 288.439 403.141 287.098L403.006 284.52C402.96 283.664 403.316 282.834 403.968 282.275L406.096 280.45C406.894 279.766 408.098 279.858 408.782 280.656L409.004 280.915C409.333 281.299 409.8 281.535 410.304 281.574L411.888 281.696C412.94 281.777 413.858 280.986 413.934 279.932L414.008 278.887C414.075 277.939 414.832 277.185 415.78 277.123C417.241 277.026 418.05 275.384 417.237 274.166L415.178 271.077C415.134 271.012 415.095 270.943 415.06 270.873L415.007 270.767C412.943 266.638 412.327 261.937 413.257 257.417L413.83 254.634C414.004 253.789 413.588 252.932 412.817 252.546C411.588 251.933 410.781 250.712 410.695 249.341L410.565 247.26C410.524 246.62 410.327 246.002 409.987 245.459L409.335 244.418C408.175 242.564 408.792 240.116 410.69 239.032L410.695 239.029C411.425 238.611 412.27 238.446 413.104 238.553L417.239 239.092C418.379 239.24 419.391 238.354 419.391 237.203V234.652C419.391 233.055 420.109 231.545 421.348 230.539C423.336 228.925 426.12 228.727 428.315 230.044C429.157 230.549 430.109 230.842 431.088 230.9L434.008 231.071C434.79 231.117 435.559 231.314 436.267 231.651L439.816 233.341C441.308 234.051 442.982 234.287 444.612 234.016L445.209 233.915C448.106 233.432 450.418 231.231 451.041 228.361C451.445 226.509 451.406 224.586 450.93 222.752L450.515 221.145C449.778 218.308 450.375 215.289 452.134 212.944C452.897 211.925 453.371 210.718 453.505 209.453L453.57 208.836C453.813 206.519 455.187 204.473 457.237 203.368C457.853 203.035 458.237 202.392 458.237 201.691V198.54C458.237 197.752 458.722 197.046 459.459 196.762C461.302 196.054 462.517 194.283 462.517 192.309V188.251C462.517 186.043 461.427 183.978 459.603 182.735L457.119 181.042C455.975 180.261 455.32 178.941 455.394 177.558L455.813 169.581C455.889 168.155 456.722 166.881 458 166.243C459.178 165.653 459.987 164.516 460.158 163.211L460.528 160.37C460.752 158.652 460.435 156.908 459.619 155.38C458.726 153.704 458.431 151.774 458.787 149.91L459.36 146.907C459.49 146.224 459.534 145.526 459.49 144.832L459.229 140.671C459.228 140.631 459.222 140.59 459.217 140.55L459.097 139.61C458.193 140.093 457.094 140.19 456.074 139.788L454.19 139.048C452.958 138.564 452.09 137.445 451.924 136.132C451.778 134.958 451.064 133.929 450.018 133.379L443.412 129.911C442.386 129.374 441.128 129.589 440.341 130.437C439.312 131.545 437.552 131.526 436.545 130.396L433.92 127.443C433.058 126.473 431.61 126.301 430.544 127.037L428.017 128.787C426.842 129.601 425.232 129.328 424.389 128.17C424.07 127.732 423.625 127.402 423.11 127.228L414.635 124.332C413.994 124.114 413.461 123.656 413.148 123.053L410.524 117.992C410.269 117.499 409.862 117.099 409.365 116.849L408.508 116.42C407.656 115.994 407.099 115.138 407.056 114.186L406.88 110.323C406.716 106.699 407.827 103.132 410.018 100.242C411.41 98.406 412.376 96.2844 412.846 94.0288L414.235 87.3644C414.466 86.2595 413.846 85.1529 412.781 84.774C411.81 84.4269 411.197 83.4665 411.291 82.4392L411.534 79.7713C411.597 79.0788 411.974 78.455 412.558 78.0779C414.64 76.7298 415.919 74.4355 415.969 71.9527L416.082 66.2962C416.119 64.4353 415.459 62.6274 414.235 61.2265L412.635 59.3974L411.62 56.8581C410.662 54.4616 408.857 52.5003 406.549 51.3461C404.618 50.3805 402.512 49.8166 400.359 49.6844L397.993 49.5417C396.25 49.4359 394.537 49.0465 392.922 48.3875L392.153 48.0738C389.821 47.1222 387.296 46.7363 384.785 46.946L384.327 46.9848C381.633 47.2086 379.205 45.3671 378.694 42.7134C378.466 41.5327 377.783 40.4895 376.791 39.8111L375.414 38.8701C374.259 38.0789 372.801 37.8639 371.466 38.2851C369.843 38.7979 368.07 38.3644 366.869 37.1608L363.872 34.1634C363.672 33.9643 363.519 33.7229 363.424 33.4568L363.197 32.8224C362.761 31.6048 361.266 31.1642 360.24 31.9519C359.548 32.4841 358.582 32.4788 357.895 31.9361L349.663 25.4267C348.794 24.7395 348.264 23.7121 348.206 22.6073L348.202 22.5473C348.11 20.8028 346.858 19.3402 345.148 18.979C343.977 18.7323 342.757 19.0442 341.848 19.8231L339.265 22.0381C338.5 22.6936 337.944 23.5518 337.653 24.5157C337.338 25.5677 336.821 27.0479 336.09 28.4135C335.463 29.5854 333.711 29.3122 333.48 28.003C333.362 27.3351 332.783 26.8487 332.106 26.8487H329.028C328.017 26.8487 327.157 26.1104 327.002 25.1113C326.862 24.2126 326.149 23.5112 325.247 23.3914L320.692 22.7835C319.834 22.6689 319.143 22.0222 318.974 21.1729L318.666 19.631C318.563 19.1217 318.269 18.6706 317.844 18.3711L315.133 16.4627C313.755 15.4935 311.864 16.5314 311.944 18.216C311.977 18.9138 311.647 19.5799 311.073 19.9781L310.416 20.4328C309.346 21.1729 308.62 22.3165 308.407 23.6011L308.316 24.1491C308.108 25.3985 307.415 26.5157 306.39 27.2576L303.519 29.3369C301.853 30.544 299.601 30.5581 297.918 29.3704C296.986 28.7131 295.851 28.4065 294.715 28.5087L288.814 29.0338C286.627 29.2276 284.537 28.0963 283.505 26.1597C283.306 25.7862 283.064 25.4373 282.786 25.1201L278.305 20.0275C277.903 19.5711 277.428 19.1852 276.899 18.8838L270.258 15.1146C269.062 14.4344 267.715 14.0573 266.339 14.0168L261.76 13.8776C260.768 13.8476 259.825 14.3128 259.244 15.1181L256.893 18.3816C256.157 19.4054 256.141 20.7817 256.856 21.8213C257.739 23.1059 257.487 24.8522 256.278 25.8338L255.517 26.4523C254.819 27.0197 254.412 27.8726 254.412 28.7713V29.7933C254.412 31.3739 253.182 32.6815 251.605 32.7766L247.359 33.0339C246.58 33.0815 245.812 32.8436 245.195 32.3643C243.456 31.0109 240.903 31.7739 240.191 33.8603L238.619 38.4613C238.315 39.3529 237.635 40.0666 236.757 40.4102L233.242 41.7918C231.95 42.2993 230.483 42.0244 229.464 41.0834C228.486 40.1812 227.092 39.8869 225.833 40.3204L220.607 42.1178C220.117 42.2869 219.6 42.3662 219.081 42.3521L212.38 42.1759C211.108 42.1424 209.897 42.7275 209.132 43.746C208.473 44.6253 207.474 45.1892 206.38 45.2984L205.015 45.4359C203.765 45.561 202.592 46.0879 201.67 46.9407L200.53 47.9945C200.095 48.3963 199.494 48.5654 198.913 48.4491L197.396 48.1461C196.145 47.8958 195.02 48.9584 195.2 50.2219C195.283 50.7981 195.089 51.3796 194.677 51.7919L191.096 55.3726C190.917 55.5524 190.702 55.6933 190.466 55.785L186.547 57.3286C183.934 58.3577 181.626 60.037 179.839 62.2045C179.317 62.8371 178.845 63.5067 178.424 64.2098L175.304 69.4116C174.808 70.2363 174.514 71.1632 174.44 72.1218C174.35 73.2954 173.927 74.4197 173.221 75.3624L169.625 80.159C169.249 80.6594 169.047 81.2691 169.047 81.8947V83.9388C169.047 85.0137 169.642 85.9987 170.592 86.4992C172.236 87.3644 172.65 89.5336 171.441 90.9433L167.107 96.0007C166.587 96.6069 166.34 97.4016 166.427 98.1963L167.433 107.458C167.503 108.112 167.35 108.769 166.998 109.324L166.21 110.563C165.935 110.995 165.78 111.49 165.761 112.001L165.648 114.822C165.588 116.325 166.689 117.624 168.18 117.809L168.277 117.821C169.086 117.922 169.815 118.361 170.284 119.027L176.919 128.445C177.178 128.812 177.48 129.145 177.82 129.439L180.849 132.054C182.094 133.131 182.792 134.708 182.748 136.354L182.644 140.294C182.595 142.15 181.613 143.854 180.033 144.826C177.74 146.238 174.763 145.778 173.002 143.743L170.71 141.09C169.036 139.154 166.538 138.135 163.988 138.349C162.707 138.456 161.419 138.252 160.233 137.757L149.777 133.385C148.775 132.965 147.726 132.667 146.653 132.498L142.971 131.917C140.691 131.557 138.583 133.203 138.381 135.503L138.076 138.949C138.028 139.487 137.873 140.009 137.618 140.484L131.282 152.284C130.936 152.927 130.365 153.422 129.678 153.67C128.64 154.048 127.897 154.969 127.749 156.063L127.715 156.307C127.467 158.13 125.638 159.292 123.883 158.744L121.011 157.847C119.836 157.478 118.747 156.876 117.811 156.074L113.972 152.782L109.244 154.095C106.584 154.833 104.503 156.909 103.756 159.567C103.093 161.919 101.38 163.835 99.1128 164.751L92.8506 167.283C91.5943 167.791 90.4737 168.585 89.5768 169.602L84.2943 175.599C83.1314 176.918 83.8344 179.003 85.5595 179.348C86.266 179.489 86.8633 179.956 87.1734 180.607L88.4703 183.329C88.8967 184.224 89.8517 184.742 90.8349 184.612L92.0154 184.455C92.6092 184.376 93.2083 184.533 93.6876 184.892L94.9439 185.835C95.5676 186.302 96.387 186.42 97.1164 186.147L98.1067 185.775C100.478 184.885 103.146 185.363 105.063 187.017C106.585 188.332 107.461 190.246 107.461 192.258V204.207C107.461 205.363 108.15 206.41 109.214 206.864C110.277 207.321 110.968 208.366 110.968 209.522V211.689C110.968 212.139 110.864 212.581 110.663 212.983L109.271 215.767C109.07 216.169 108.966 216.611 108.966 217.06V223.848C108.966 224.671 108.615 225.455 108.002 226.003L107.223 226.701C105.324 228.4 104.328 230.89 104.533 233.429C104.638 234.742 103.844 235.957 102.6 236.391L99.9515 237.313C99.3013 237.538 98.5965 237.559 97.9358 237.369C96.4715 236.95 94.9086 237.575 94.1369 238.888L93.7034 239.624C93.2206 240.446 92.4119 241.02 91.478 241.207L90.5565 241.392C89.6825 241.566 88.9143 242.084 88.4227 242.828L81.5897 253.175C80.832 254.323 79.7536 255.223 78.4903 255.766C77.4613 256.206 76.5503 256.888 75.8367 257.752L73.3752 260.731C72.5823 261.69 71.5498 262.423 70.3833 262.853L64.7854 264.915C63.3652 265.438 61.9098 265.859 60.428 266.176L59.6122 266.351C56.9745 266.917 54.4196 267.812 52.0074 269.019L45.8509 272.097C44.5136 272.767 43.7365 274.201 43.9074 275.687L44.2722 278.85C44.3391 279.423 44.5435 279.971 44.8677 280.448L52.987 292.344C54.15 294.048 56.5128 294.408 58.1303 293.129L62.6129 289.585C64.3361 288.223 66.8699 288.732 67.9324 290.654L71.1604 296.498L71.5815 296.441C73.317 296.211 74.8394 297.608 74.7548 299.356V299.365C74.7002 300.507 75.3434 301.567 76.3812 302.047C77.3274 302.484 77.9529 303.407 78.0075 304.447L78.1079 306.368C78.1467 307.101 77.8965 307.821 77.4102 308.371L75.2782 310.787C74.7302 311.409 74.4835 312.241 74.6068 313.06L75.1636 316.775L73.7452 318.547C73.3629 319.025 73.1268 319.603 73.0616 320.211C72.8519 322.2 74.4994 323.89 76.4939 323.733L81.343 323.351C81.8874 323.309 82.4108 323.127 82.8653 322.824L83.401 322.467C84.06 322.028 84.8599 321.848 85.644 321.964L88.2906 322.356C89.9292 322.599 91.1115 324.052 91.0146 325.707L90.8913 327.818C90.782 329.69 92.2956 331.253 94.1704 331.203L99.4194 331.06C99.7718 331.052 100.119 330.983 100.448 330.861L110.162 327.247C110.531 327.11 110.888 326.946 111.234 326.757L112.974 325.8C114.492 324.967 116.396 325.524 117.224 327.043L123.369 326.588C123.776 326.558 124.172 326.449 124.535 326.267L134.288 321.392C134.755 321.159 135.273 321.046 135.794 321.064L141.767 321.27C142.093 321.281 142.419 321.242 142.735 321.152L148.673 319.455C150.697 318.877 152.695 320.444 152.618 322.548L152.586 323.393C152.547 324.424 151.999 325.369 151.122 325.912L148.537 327.512C147.734 328.008 147.194 328.838 147.068 329.776L146.662 332.749C146.569 333.434 146.253 334.07 145.764 334.558C144.987 335.335 144.669 336.458 144.921 337.526L146.498 344.187C146.671 344.918 147.099 345.565 147.707 346.011L156.262 352.284C157.407 353.124 158.808 353.537 160.226 353.454C161.564 353.375 162.89 353.739 164 354.49L169.115 357.951C170.236 358.71 171.411 359.387 172.627 359.979L175.887 361.565C178.651 362.91 181.617 363.801 184.665 364.203L186.142 364.397C188.372 364.691 190.452 365.688 192.076 367.244L192.414 367.569C194.432 369.502 197.175 370.483 199.961 370.27C201.325 370.164 202.675 370.61 203.709 371.507C205.041 372.661 206.87 373.051 208.556 372.536L208.838 372.45C210.561 371.925 212.433 372.323 213.793 373.502C214.801 374.376 215.437 375.599 215.572 376.926L216.219 383.234C216.309 384.113 216.794 384.905 217.535 385.386L219.405 386.595C220.17 387.09 220.658 387.913 220.728 388.82C220.813 389.93 220.259 390.993 219.299 391.557L218.548 391.997C217.407 392.669 216.86 394.026 217.22 395.301L218.485 399.798C218.725 400.653 219.341 401.351 220.157 401.696L227.313 404.716C229.034 405.444 230.185 407.095 230.269 408.963C230.34 410.505 231.14 411.92 232.423 412.777L233.758 413.666C234.949 414.461 235.73 415.742 235.887 417.164L235.971 417.92C236.077 418.867 235.723 419.806 235.021 420.449L234.847 420.609C233.841 421.533 233.589 423.022 234.236 424.223C234.65 424.992 235.377 425.54 236.228 425.725C239.102 426.35 241.715 427.843 243.713 430.002L245.854 432.314C246.543 433.057 247.047 433.954 247.326 434.929C247.701 436.243 248.483 437.404 249.56 438.245L251.494 439.755C254.388 442.016 256.624 445.012 257.966 448.43L258.243 449.137C258.521 449.847 258.976 450.474 259.564 450.961L264.315 454.892C265.363 455.759 266.662 456.265 268.02 456.332C269.869 456.423 271.585 457.324 272.711 458.793L276.538 463.785C276.642 463.919 276.763 464.039 276.899 464.14L284.907 470.029C285.105 470.175 285.316 470.3 285.54 470.404L287.543 471.338C288.451 471.761 289.148 472.531 289.481 473.475C290.056 475.105 291.677 476.126 293.395 475.942L296.017 475.662C296.878 475.571 297.571 474.915 297.714 474.062C297.865 473.155 298.635 472.482 299.553 472.452L304.573 472.29C305.287 472.267 305.954 472.64 306.31 473.26L306.841 474.189C307.345 475.072 308.446 475.41 309.36 474.966L316.176 471.646C316.986 471.252 317.952 471.352 318.666 471.905C319.339 472.429 320.241 472.55 321.028 472.223L322.207 471.731C322.567 471.581 322.873 471.326 323.085 470.998L324.105 469.421C325.005 468.03 326.432 467.068 328.059 466.755C330.46 466.293 332.904 467.317 334.261 469.35L336.344 472.475C337.323 473.946 337.13 475.904 335.88 477.155C335.496 477.539 335.292 478.069 335.318 478.612L335.642 485.268C335.729 487.039 336.49 488.707 337.769 489.934L340.439 492.493C341.32 493.337 342.409 493.934 343.596 494.223L347.453 495.16C349.7 495.707 351.525 497.338 352.322 499.509L352.877 501.023C353.472 502.646 354.653 503.989 356.186 504.787C358.554 506.019 360.004 508.5 359.914 511.168L359.888 511.961C359.838 513.432 359.061 514.782 357.812 515.563L357.409 515.815C356.39 516.451 355.675 517.473 355.426 518.648C355.143 519.991 354.802 521.512 354.802 521.075C354.802 520.507 351.953 523.788 350.553 525.434C350.05 526.024 349.402 526.472 348.672 526.733C347.196 527.26 346.111 528.528 345.816 530.069L345.552 531.459C345.381 532.359 344.934 533.184 344.273 533.818L339.755 538.162C339.115 538.777 338.652 539.552 338.412 540.407L337.829 542.492C337.334 544.259 337.852 546.155 339.177 547.424L342.89 550.982C342.986 551.073 343.085 551.163 343.189 551.246L347.925 555.105C349.106 556.067 350.66 556.436 352.145 556.104C353.516 555.799 354.952 556.088 356.099 556.901L357.673 558.016C359.274 559.151 361.394 559.237 363.084 558.236L365.003 557.098C366.368 556.289 367.864 555.725 369.422 555.433L372.183 554.915C374.07 554.561 376.019 554.765 377.791 555.505C379.523 556.228 381.493 555.237 381.948 553.417C382.191 552.448 382.891 551.657 383.823 551.297L387.519 549.875C388.222 549.604 389.005 550.011 389.188 550.742C389.391 551.554 390.319 551.944 391.042 551.519L392.895 550.428C393.441 550.108 394.141 550.243 394.527 550.746L395.723 552.302C396.09 552.777 396.742 552.927 397.279 552.659L400.091 551.253C400.555 551.021 400.828 550.527 400.778 550.013L400.498 547.075C400.424 546.307 401.055 545.655 401.825 545.704L403.763 545.826C404.142 545.849 404.491 546.044 404.71 546.354L406.991 549.588C407.226 549.921 407.608 550.118 408.017 550.118H411.98C412.237 550.118 412.487 550.039 412.697 549.893L418.978 545.514C419.741 544.982 420.797 545.436 420.936 546.356L421.864 552.49C421.878 552.578 421.882 552.668 421.877 552.756L421.699 555.602C421.662 556.199 422.049 556.739 422.627 556.894L424.958 557.516C425.237 557.59 425.482 557.759 425.653 557.993L432.232 567.09C433.34 568.623 434.234 570.298 434.887 572.075L436.78 577.21C437.176 578.284 438.047 579.118 439.139 579.465C441.185 580.115 442.254 582.359 441.472 584.359L440.878 585.878C440.735 586.241 440.653 586.623 440.63 587.012L440.244 593.569C440.191 594.463 440.402 595.351 440.852 596.124L443.391 600.496C444.185 601.866 444.214 603.55 443.463 604.944C443.105 605.608 442.919 606.35 442.919 607.104V611.464L440.88 614.583C439.687 616.408 440.307 618.865 442.224 619.903L442.815 620.224C443.965 620.847 445.361 620.821 446.488 620.155C448.439 619.002 450.957 619.841 451.827 621.931L452.273 623.002C452.514 623.582 453.112 623.928 453.734 623.85L455.459 623.635C456.158 623.547 456.816 623.996 456.986 624.682C457.11 625.177 457.494 625.565 457.987 625.693L459.978 626.213C461.872 626.708 463.888 626.407 465.555 625.38C465.971 625.124 466.464 625.027 466.944 625.108C468.142 625.307 468.894 626.514 468.543 627.677L467.884 629.873C467.765 630.271 467.798 630.7 467.976 631.075L469.451 634.174C469.86 635.034 470.903 635.382 471.745 634.937L472.815 634.375C473.851 633.829 475.114 634.488 475.258 635.651C475.369 636.546 476.169 637.191 477.066 637.114L477.799 637.05C479.878 636.869 481.662 635.487 482.354 633.517L485.393 624.879C485.719 623.954 486.708 623.443 487.651 623.713C488.651 623.998 489.693 623.404 489.954 622.396L491.027 618.257C491.148 617.787 490.968 617.29 490.572 617.006C489.992 616.592 489.911 615.762 490.399 615.244L495.809 609.506C496.995 608.248 498.781 607.753 500.446 608.218C502.525 608.801 504.733 607.874 505.775 605.982L506.219 605.173C506.567 604.54 506.737 603.825 506.712 603.103L506.575 599.233C506.529 597.954 507.098 596.729 508.107 595.939L510.904 593.751C511.769 593.074 512.875 592.782 513.963 592.946L514.84 593.078C516.329 593.301 517.566 594.341 518.042 595.768C518.191 596.216 518.419 596.634 518.713 597.002L520.253 598.926C521.432 600.399 523.479 600.849 525.165 600.005L531.243 596.965C532.254 596.459 533.382 596.232 534.509 596.308L536.077 596.412C538.634 596.583 541.043 595.201 542.188 592.91L543.325 590.637C543.999 589.289 543.432 587.65 542.07 587.005C541.203 586.595 541.242 585.349 542.132 584.993C542.83 584.715 543.046 583.833 542.56 583.263L539.293 579.419L535.463 578.549C534.552 578.343 534.002 577.412 534.259 576.515L534.726 574.882C534.768 574.736 534.79 574.586 534.79 574.434V571.532C534.79 570.633 534.062 569.904 533.161 569.904H530.908C530.009 569.904 529.28 569.176 529.28 568.275C529.28 567.375 528.552 566.647 527.652 566.647C525.077 566.647 522.833 564.894 522.209 562.397L522.189 562.323C522.077 561.87 522.018 561.405 522.018 560.938V554.45C522.018 554.08 522.144 553.722 522.374 553.433L524.043 551.347C525.268 549.815 525.581 547.746 524.864 545.921C523.93 543.545 524.762 540.839 526.869 539.397L526.927 539.359C527.657 538.86 528.453 538.469 529.294 538.199L532.488 537.172C534.005 536.684 535.036 535.272 535.036 533.677C535.036 533.131 534.915 532.592 534.68 532.099L533.616 529.862C533.135 528.853 533.928 527.7 535.043 527.79C537.415 527.98 539.744 527.087 541.383 525.364C542.773 523.899 543.548 521.957 543.548 519.938V503.437C543.548 502.792 544.033 502.25 544.674 502.179C545.316 502.109 545.8 501.566 545.8 500.921V485.599C545.8 485.22 545.758 484.843 545.672 484.475C545.284 482.795 545.79 481.035 547.007 479.816L549.419 477.403C550.135 476.688 551.144 476.351 552.145 476.494C554.08 476.771 555.812 475.269 555.812 473.313V472.353C555.812 471.349 555.343 470.402 554.543 469.794L551.608 467.563C550.408 466.651 550.003 465.028 550.635 463.659L553.646 457.132C553.914 456.552 554.371 456.081 554.942 455.796L556.198 455.169C557.051 454.742 557.629 453.912 557.734 452.966C557.914 451.35 556.688 449.919 555.063 449.849L553.035 449.761C552.558 449.739 552.084 449.842 551.657 450.055L550.207 450.779C549.335 451.216 548.75 452.074 548.665 453.045L548.204 458.279C548.11 459.331 547.435 460.242 546.457 460.638L536.699 464.58C535.746 464.964 534.656 464.587 534.145 463.694C533.547 462.647 533.974 461.313 535.068 460.807L538.023 459.444C538.971 459.006 539.633 458.122 539.788 457.089L540.615 451.576C540.856 449.97 539.817 448.451 538.232 448.094L535.052 447.375C534.028 447.144 532.987 447.681 532.583 448.65C532.249 449.456 531.463 449.979 530.591 449.979H530.409C529.444 449.979 528.594 449.338 528.332 448.407L525.571 438.634C525.539 438.52 525.516 438.403 525.502 438.285L524.843 432.359C524.804 432.009 525.077 431.702 525.43 431.702C525.756 431.702 526.022 431.438 526.022 431.11V427.827C526.022 426.935 525.698 426.074 525.107 425.406L520.607 420.292C520.545 420.222 520.478 420.153 520.41 420.088L512.347 412.472C511.802 411.957 511.464 411.261 511.395 410.514L511.279 409.238C511.182 408.179 511.635 407.198 512.403 406.574C512.268 406.354 512.174 406.109 512.135 405.853L511.346 400.526L511.365 400.523Z" fill="#B4BFFA" stroke="#4D4D4D" stroke-width="0.75" stroke-linecap="round" stroke-linejoin="bevel"/>
<path d="M657.628 253.022C655.79 253.133 654.135 254.175 653.24 255.784C652.067 257.895 649.632 258.968 647.283 258.409L644.18 257.671C642.599 257.294 640.934 257.652 639.646 258.642C639.044 259.105 638.305 259.356 637.546 259.356H630.655C629.321 259.356 628.112 260.145 627.577 261.368C627.129 262.39 626.204 263.125 625.106 263.326L616.057 264.987C615.814 265.031 615.579 265.116 615.364 265.236L609.777 268.341C608.566 269.012 608.233 270.602 609.07 271.703C610.714 273.867 610.816 276.833 609.324 279.106L607.846 281.354C607.042 282.575 605.712 283.349 604.253 283.439C603.432 283.49 602.702 283.982 602.345 284.723L600.747 288.054C600.399 288.778 600.459 289.631 600.905 290.299L601.393 291.03C602.593 292.831 602.581 295.18 601.362 296.969C600.473 298.273 600.209 299.903 600.643 301.42L601.011 302.706C601.219 303.436 601.27 304.202 601.157 304.953L600.962 306.257C600.755 307.637 600.142 308.923 599.201 309.954L597.818 311.468C596.562 312.844 595.903 314.664 595.987 316.525C596.049 317.899 596.514 319.226 597.325 320.34L598.724 322.264C599.386 323.175 600.257 323.914 601.265 324.416L604.167 325.866C605.573 326.569 606.3 328.153 605.92 329.678C605.62 330.879 604.681 331.817 603.481 332.116L602.147 332.449C600.937 332.753 600.197 333.975 600.489 335.188L600.916 336.955C601.249 338.335 600.25 339.68 598.831 339.759C597.984 339.806 597.18 339.376 596.749 338.645L595.274 336.148C594.8 335.345 593.884 334.913 592.962 335.059L592.426 335.144C591.167 335.343 589.979 334.495 589.757 333.239C589.586 332.27 588.828 331.512 587.859 331.341L586.337 331.071C585.856 330.987 585.361 331.059 584.926 331.278L581.472 333.005L586.966 343.995C588.065 346.194 588.784 348.566 589.089 351.007C589.445 353.861 589.232 356.758 588.458 359.528L587.6 362.603C587.077 364.48 588.277 366.401 590.192 366.753L592.06 367.097C594.661 367.576 596.946 369.116 598.366 371.349L600.153 374.156C602.003 377.063 602.137 380.746 600.503 383.781L599.573 385.509C598.47 387.559 597.892 389.848 597.892 392.176V399.016C597.892 400.266 598.06 401.51 598.387 402.715L599.341 406.209C599.376 406.342 599.42 406.472 599.467 406.599L600.75 409.935C601.404 411.632 603.034 412.752 604.852 412.752C605.789 412.752 606.688 412.38 607.352 411.716L611.269 407.799C612.288 406.78 612.691 405.298 612.33 403.905L611.652 401.286C611.359 400.156 611.821 398.965 612.799 398.327L614.874 396.974C616.055 396.204 617.593 396.514 618.472 397.614C619.2 398.525 620.428 398.87 621.524 398.472L623.207 397.86C624.32 397.455 625.025 396.304 624.784 395.145C624.465 393.615 625.67 392.197 627.228 392.26L628.276 392.304C629.395 392.35 630.332 393.168 630.533 394.269L630.835 395.926C631.042 397.064 632.033 397.892 633.19 397.892H634.473C635.504 397.892 636.418 397.233 636.744 396.255L637.158 395.011C637.345 394.449 637.736 393.975 638.253 393.684L642.05 391.538C642.77 391.131 643.23 390.38 643.264 389.552L643.442 385.286C643.452 385.014 643.53 384.752 643.667 384.517L644.732 382.694C645.029 382.183 645.576 381.869 646.168 381.869H648.372C649.586 381.869 650.389 380.611 649.882 379.509L649.623 378.947C649.522 378.729 649.374 378.533 649.189 378.376L645.905 375.585C645.14 374.935 643.977 375.106 643.433 375.948L642.064 378.063C641.835 378.417 641.481 378.671 641.072 378.773L636.533 379.908C636.01 380.038 635.456 379.908 635.048 379.557L632.775 377.61C632.406 377.294 632.195 376.833 632.195 376.348V372.399C632.195 372.045 632.308 371.701 632.517 371.416L634.036 369.344C634.551 368.642 635.52 368.455 636.258 368.917L636.33 368.961C636.727 369.21 637.21 369.278 637.659 369.151L643.211 367.597L647.79 366.203C648.49 365.99 648.969 365.345 648.969 364.612V360.589C648.969 360.261 648.872 359.941 648.691 359.668L646.96 357.072C646.652 356.61 646.132 356.332 645.577 356.332H641.979C641.491 356.332 641.028 356.547 640.712 356.917L637.772 360.376C637.289 360.945 636.485 361.121 635.809 360.809L634.695 360.295C634.091 360.016 633.712 359.405 633.73 358.741L633.862 353.867C633.911 352.022 635.4 350.541 637.245 350.501L643.886 350.356C644.772 350.337 645.517 351.015 645.581 351.9L645.611 352.326C645.672 353.178 646.368 353.845 647.221 353.87L650.516 353.964C651.989 354.006 652.786 352.251 651.781 351.17C651.431 350.793 651.276 350.274 651.36 349.766L652.477 343.061L656.778 331.447C657.191 330.335 656.768 329.087 655.765 328.455C654.29 327.522 652.34 328.344 651.973 330.049L651.633 331.637C651.394 332.76 650.421 333.575 649.274 333.618L644.465 333.796C644.465 333.796 642.462 336.05 642.462 336.8V326.622C642.462 324.729 643.907 323.152 645.79 322.985L652.935 322.351C653.452 322.305 653.968 322.419 654.417 322.68L658.937 325.304C659.952 325.893 661.194 325.033 660.998 323.875L659.122 312.773C658.709 310.338 659.143 307.836 660.35 305.681L660.933 304.639C661.571 303.501 661.448 302.088 660.62 301.076C660.057 300.389 659.807 299.496 659.934 298.616L660.383 295.473C660.45 295 660.694 294.572 661.062 294.271C662.23 293.314 662.908 291.883 662.908 290.373C662.908 288.799 664.048 286.914 665.444 286.183L665.75 286.022C666.979 285.379 667.749 284.105 667.749 282.718V276.112C667.749 275.853 667.659 275.603 667.495 275.402L666.334 273.983C665.895 273.446 666.043 272.644 666.646 272.3C667.014 272.089 667.232 271.689 667.209 271.264L667.051 268.417C667.019 267.861 666.587 267.412 666.032 267.363L665.035 267.273C664.559 267.229 664.165 266.891 664.048 266.429L662.313 259.484C661.765 257.294 661.488 255.045 661.488 252.788C661.469 252.788 661.448 252.788 661.428 252.79L657.638 253.017L657.628 253.022Z" fill="#B4BFFA"/>
<path d="M642.462 336.8C642.462 336.05 644.465 333.796 644.465 333.796L649.274 333.618C650.421 333.575 651.394 332.76 651.633 331.637L651.973 330.049C652.34 328.344 654.29 327.522 655.765 328.455C656.768 329.087 657.191 330.335 656.778 331.447L652.477 343.061L651.36 349.766C651.276 350.274 651.431 350.793 651.781 351.17C652.786 352.251 651.989 354.006 650.516 353.964L647.221 353.87C646.368 353.845 645.672 353.178 645.611 352.326L645.581 351.9C645.517 351.015 644.772 350.337 643.886 350.356L637.245 350.501C635.4 350.541 633.911 352.022 633.862 353.867L633.73 358.741C633.712 359.405 634.091 360.016 634.695 360.295L635.809 360.809C636.485 361.121 637.289 360.945 637.772 360.376L640.712 356.917C641.028 356.547 641.491 356.332 641.979 356.332H645.577C646.132 356.332 646.652 356.61 646.96 357.072L648.691 359.668C648.872 359.941 648.969 360.261 648.969 360.589V364.612C648.969 365.345 648.49 365.99 647.79 366.203L643.211 367.597L637.659 369.151C637.21 369.278 636.727 369.21 636.33 368.961L636.258 368.917C635.52 368.455 634.551 368.642 634.036 369.344L632.517 371.416C632.308 371.701 632.195 372.045 632.195 372.399V376.348C632.195 376.833 632.406 377.294 632.775 377.61L635.048 379.557C635.456 379.908 636.01 380.038 636.533 379.908L641.072 378.773C641.481 378.671 641.835 378.417 642.064 378.063L643.433 375.948C643.977 375.106 645.14 374.935 645.905 375.585L649.189 378.376C649.374 378.533 649.522 378.729 649.623 378.947L649.882 379.509C650.389 380.611 649.586 381.869 648.372 381.869H646.168C645.576 381.869 645.029 382.183 644.732 382.694L643.667 384.517C643.53 384.752 643.452 385.014 643.442 385.286L643.264 389.552C643.23 390.38 642.77 391.131 642.05 391.538L638.253 393.684C637.736 393.975 637.345 394.449 637.158 395.011L636.744 396.255C636.418 397.233 635.504 397.892 634.473 397.892H633.19C632.033 397.892 631.042 397.064 630.835 395.926L630.533 394.269C630.332 393.168 629.395 392.35 628.276 392.304L627.228 392.26C625.67 392.197 624.465 393.615 624.784 395.145C625.025 396.304 624.32 397.455 623.207 397.86L621.524 398.472C620.428 398.87 619.2 398.525 618.472 397.614C617.593 396.514 616.055 396.204 614.874 396.974L612.799 398.327C611.821 398.965 611.359 400.156 611.652 401.286L612.33 403.905C612.691 405.298 612.288 406.78 611.269 407.799L607.352 411.716C606.688 412.38 605.789 412.752 604.852 412.752C603.034 412.752 601.404 411.632 600.75 409.935L599.467 406.599C599.42 406.472 599.376 406.342 599.341 406.209L598.387 402.715C598.06 401.51 597.892 400.266 597.892 399.016V392.176C597.892 389.848 598.47 387.559 599.573 385.509L600.503 383.781C602.137 380.746 602.003 377.063 600.153 374.156L598.366 371.349C596.946 369.116 594.661 367.576 592.06 367.097L590.192 366.753C588.277 366.401 587.077 364.48 587.6 362.603L588.458 359.528C589.232 356.758 589.445 353.861 589.089 351.007C588.784 348.566 588.065 346.194 586.966 343.995L581.472 333.005L584.926 331.278C585.361 331.059 585.856 330.987 586.337 331.071L587.859 331.341C588.828 331.512 589.586 332.27 589.757 333.239C589.979 334.495 591.167 335.343 592.426 335.144L592.962 335.059C593.884 334.913 594.8 335.345 595.274 336.148L596.749 338.645C597.18 339.376 597.984 339.806 598.831 339.759C600.25 339.68 601.249 338.335 600.916 336.955L600.489 335.188C600.197 333.975 600.937 332.753 602.147 332.449L603.481 332.116C604.681 331.817 605.62 330.879 605.92 329.678C606.3 328.153 605.573 326.569 604.167 325.866L601.265 324.416C600.257 323.914 599.386 323.175 598.724 322.264L597.325 320.34C596.514 319.226 596.049 317.899 595.987 316.525C595.903 314.664 596.562 312.844 597.818 311.468L599.201 309.954C600.142 308.923 600.755 307.637 600.962 306.257L601.157 304.953C601.27 304.202 601.219 303.436 601.011 302.706L600.643 301.42C600.209 299.903 600.473 298.273 601.362 296.969C602.581 295.18 602.593 292.831 601.393 291.03L600.905 290.299C600.459 289.631 600.399 288.778 600.747 288.054L602.345 284.723C602.702 283.982 603.432 283.49 604.253 283.439C605.712 283.349 607.042 282.575 607.846 281.354L609.324 279.106C610.816 276.833 610.714 273.867 609.07 271.703C608.233 270.602 608.566 269.012 609.777 268.341L615.364 265.236C615.579 265.116 615.814 265.031 616.057 264.987L625.106 263.326C626.204 263.125 627.129 262.39 627.577 261.368C628.112 260.145 629.321 259.356 630.655 259.356H637.546C638.305 259.356 639.044 259.105 639.646 258.642C640.934 257.652 642.599 257.294 644.18 257.671L647.283 258.409C649.632 258.968 652.067 257.895 653.24 255.784C654.135 254.175 655.79 253.133 657.628 253.022L657.638 253.017L661.428 252.79C661.448 252.788 661.469 252.788 661.488 252.788C661.488 255.045 661.765 257.294 662.313 259.484L664.048 266.429C664.165 266.891 664.559 267.229 665.035 267.273L666.032 267.363C666.587 267.412 667.019 267.861 667.051 268.417L667.209 271.264C667.232 271.689 667.014 272.089 666.646 272.3C666.043 272.644 665.895 273.446 666.334 273.983L667.495 275.402C667.659 275.603 667.749 275.853 667.749 276.112V282.718C667.749 284.105 666.979 285.379 665.75 286.022L665.444 286.183C664.048 286.914 662.908 288.799 662.908 290.373C662.908 291.883 662.23 293.314 661.062 294.271C660.694 294.572 660.45 295 660.383 295.473L659.934 298.616C659.807 299.496 660.057 300.389 660.62 301.076C661.448 302.088 661.571 303.501 660.933 304.639L660.35 305.681C659.143 307.836 658.709 310.338 659.122 312.773L660.998 323.875C661.194 325.033 659.952 325.893 658.937 325.304L654.417 322.68C653.968 322.419 653.452 322.305 652.935 322.351L645.79 322.985C643.907 323.152 642.462 324.729 642.462 326.622V336.8ZM642.462 336.8C642.462 336.82 642.462 336.832 642.462 336.828" stroke="#4D4D4D" stroke-width="0.75" stroke-linecap="round" stroke-linejoin="bevel"/>
<path d="M419.151 277.351C419.917 278.117 420.795 278.764 421.755 279.269L423.734 280.311C424.337 280.628 424.967 280.887 425.617 281.084L427.968 281.8C429.233 282.186 430.558 282.334 431.878 282.24L432.866 282.17C435.078 282.011 437.285 282.54 439.187 283.68C440.27 284.33 441.46 284.785 442.7 285.025L443.666 285.21C445.681 285.597 447.544 286.552 449.036 287.962L449.466 288.369C450.384 289.236 451.144 290.258 451.709 291.388L451.91 291.791C452.675 293.319 454.155 294.36 455.852 294.563L461.617 295.25C462.336 295.337 463.067 295.266 463.758 295.048C466.064 294.313 467.534 292.054 467.266 289.647L467.192 288.981C467.093 288.094 467.227 287.199 467.578 286.38L467.666 286.174C468.147 285.053 469.009 284.138 470.099 283.592C471.35 282.966 472.802 282.877 474.122 283.342L479.244 285.15C479.619 285.282 480.011 285.372 480.407 285.414L487.844 286.218C488.112 286.246 488.382 286.255 488.65 286.241L495.146 285.923C496.769 285.844 498.395 285.996 499.976 286.371L504.023 287.335C506.101 287.83 508.252 287.934 510.368 287.641C512.62 287.331 514.911 287.469 517.108 288.047L517.726 288.209C520.81 289.019 524.057 288.96 527.109 288.036L529.965 287.171L530.224 287.049C529.651 286.07 529.176 285.032 528.813 283.944C528.367 282.605 528.094 281.215 528.004 279.805L527.852 277.47C527.747 275.828 528.427 274.233 529.685 273.174L530.668 272.346C531.542 271.609 532.148 270.607 532.391 269.49L533.006 266.682C533.383 264.957 532.857 263.16 531.609 261.912C530.432 260.735 529.893 259.066 530.157 257.424L530.61 254.614C530.786 253.523 530.813 252.414 530.691 251.317L530.568 250.205C530.319 247.961 529.674 245.782 528.665 243.762L527.428 241.288C526.839 240.111 526.374 238.876 526.038 237.602L525.215 234.477C524.586 232.084 524.425 229.591 524.746 227.136L525.505 221.32C525.587 220.692 525.516 220.054 525.298 219.46L524.846 218.238C524.346 216.881 523.139 215.91 521.707 215.714L514.267 214.692C513.092 214.53 511.906 214.912 511.045 215.728L509.614 217.085C508.655 217.994 507.302 218.357 506.016 218.051C504.386 217.663 503.183 216.278 503.026 214.609L502.943 213.732C502.751 211.688 501.014 210.14 498.963 210.185L495.102 210.269C493.338 210.308 491.819 211.52 491.391 213.233L491.005 214.778C490.583 216.468 489.095 217.675 487.355 217.741L485.624 217.804C484.641 217.841 483.668 218.042 482.752 218.398C480.987 219.083 479.491 220.32 478.481 221.922L477.19 223.973C476.539 225.004 475.447 225.676 474.233 225.785L473.392 225.861C472 225.987 470.647 225.362 469.842 224.22L467.546 220.967C466.461 219.429 464.431 218.882 462.72 219.667L462.553 219.742C461.014 220.447 459.312 220.722 457.63 220.535C455.323 220.28 453.195 219.173 451.658 217.432L451.322 217.052C451.08 216.778 450.802 216.542 450.497 216.347C450.099 217.904 450.092 219.557 450.506 221.152L450.922 222.759C451.397 224.594 451.436 226.516 451.033 228.368C450.409 231.239 448.099 233.44 445.2 233.922L444.603 234.023C442.973 234.294 441.299 234.06 439.807 233.348L436.258 231.658C435.55 231.321 434.783 231.124 433.999 231.078L431.08 230.907C430.1 230.849 429.149 230.557 428.306 230.051C426.123 228.742 423.357 228.93 421.373 230.52C420.097 231.543 419.384 233.114 419.384 234.751V237.211C419.384 238.359 418.372 239.248 417.232 239.1L413.097 238.56C412.263 238.451 411.417 238.619 410.686 239.036L410.681 239.04C408.782 240.123 408.167 242.571 409.326 244.425L409.978 245.468C410.318 246.011 410.515 246.629 410.556 247.269L410.679 249.251C410.766 250.642 411.539 251.937 412.79 252.547C413.572 252.929 413.995 253.791 413.821 254.642L413.248 257.422C412.318 261.942 412.933 266.645 414.998 270.774L415.051 270.88C415.086 270.95 415.126 271.019 415.169 271.084L417.297 274.277C417.655 274.815 417.685 275.432 417.482 275.955L417.792 276.002L419.144 277.354L419.151 277.351Z" fill="#B4BFFA" stroke="#4D4D4D" stroke-width="0.75" stroke-linecap="round" stroke-linejoin="bevel"/>
<path d="M576.371 388.549C576.977 387.835 577.129 386.84 576.759 385.978L573.191 377.654C572.484 376.006 571.27 374.626 569.725 373.717L568.401 372.938C567.7 372.526 567.27 371.773 567.27 370.959C566.581 368.991 564.634 367.752 562.56 367.958C561.718 367.958 560.906 368.27 560.28 368.834L559.139 369.861C558.781 370.182 558.321 370.367 557.842 370.381L551.1 370.573C550.32 370.596 549.597 370.168 549.24 369.474L546.242 363.627C545.367 361.919 547.573 360.312 548.93 361.669C549.497 361.782 549.99 362.134 550.281 362.635L551.259 364.311C551.465 364.663 551.772 364.945 552.142 365.121L555.511 366.718C556.034 366.964 556.637 366.979 557.169 366.751L562.996 364.279C564.025 363.842 565.179 363.803 566.234 364.168L570.925 365.793C571.043 365.833 571.164 365.863 571.286 365.882L573.783 366.256C575.007 366.439 576.108 365.491 576.108 364.252V358.244C576.108 357.486 575.932 356.737 575.592 356.058L574.371 353.614C574.033 352.936 573.855 352.189 573.855 351.429V346.846C573.855 344.622 572.352 342.678 570.2 342.118L567.193 339.787C566.43 339.588 565.878 338.925 565.825 338.137L565.512 333.591C565.455 332.766 564.853 332.081 564.042 331.919L563.658 331.841C562.59 331.628 560.397 330.4 560.721 329.36L561.086 324.694C561.352 323.841 562.194 323.305 563.078 323.424C564.227 323.577 565.228 322.638 565.151 321.482L563.128 312.868C562.994 312.296 563.29 311.809 563.722 311.584C563.662 311.511 563.6 311.443 563.535 311.376L560.055 307.776C558.247 305.904 556.156 304.331 553.856 303.109L552.381 302.325C550.817 301.495 549.347 300.498 547.996 299.354L547.844 299.226C545.372 297.134 542.516 295.546 539.436 294.553C537.847 294.04 536.354 293.263 535.024 292.253L534.472 291.835C532.747 290.526 531.309 288.894 530.226 287.046L529.967 287.167L527.111 288.033C524.059 288.958 520.811 289.018 517.728 288.205L517.109 288.043C514.912 287.465 512.622 287.328 510.37 287.638C508.254 287.93 506.102 287.826 504.025 287.331L499.978 286.367C498.397 285.99 496.771 285.84 495.148 285.92L488.651 286.237C488.382 286.249 488.114 286.242 487.846 286.214L480.409 285.41C480.012 285.368 479.623 285.278 479.246 285.146L474.124 283.338C472.804 282.873 471.352 282.963 470.101 283.588C469.01 284.135 468.147 285.049 467.668 286.17L467.58 286.376C467.229 287.196 467.095 288.091 467.194 288.977L467.268 289.643C467.536 292.05 466.066 294.309 463.76 295.044C463.069 295.264 462.339 295.333 461.619 295.247L455.853 294.56C454.157 294.357 452.675 293.315 451.912 291.788L451.711 291.384C451.145 290.255 450.388 289.233 449.468 288.366L449.038 287.959C447.546 286.549 445.683 285.594 443.667 285.206L442.702 285.021C441.461 284.783 440.272 284.327 439.188 283.677C437.287 282.535 435.079 282.008 432.868 282.166L431.88 282.237C430.56 282.33 429.235 282.182 427.97 281.796L425.619 281.081C424.969 280.884 424.338 280.623 423.736 280.307L421.757 279.266C420.797 278.76 419.919 278.113 419.153 277.347L417.801 275.995L417.491 275.948C417.234 276.612 416.599 277.123 415.778 277.123C414.85 277.123 414.08 277.84 414.015 278.765L413.932 279.932C413.856 280.986 412.938 281.777 411.886 281.696L410.302 281.574C409.798 281.536 409.331 281.298 409.002 280.915L408.78 280.656C408.096 279.858 406.893 279.765 406.094 280.45L403.966 282.276C403.314 282.834 402.958 283.664 403.004 284.521L403.14 287.099C403.212 288.455 402.278 289.624 400.958 289.948C399.783 290.237 398.932 291.259 398.86 292.471L398.794 293.566C398.713 294.958 397.609 296.07 396.218 296.163L395.339 296.221C394.324 296.288 393.443 296.916 393.006 297.834C391.776 300.424 389.438 302.317 386.649 302.981L385.084 303.353C384.506 303.49 384.027 303.89 383.786 304.431L382.563 307.182C382.048 308.34 382.787 309.668 384.043 309.843L390.793 310.773C390.983 310.799 391.177 310.796 391.366 310.764L394.065 310.315C394.902 310.176 395.588 310.755 395.588 311.605C396.231 313.275 397.91 314.311 399.691 314.132L401.917 313.91C404.789 313.622 407.599 314.875 409.307 317.203L409.729 317.781C410.015 318.169 410.436 318.435 410.908 318.527L414.087 319.133C416.064 319.51 418.099 319.471 420.06 319.018L420.698 318.87C421.13 318.771 421.582 318.824 421.977 319.022L424.194 320.13C424.497 320.282 424.835 320.349 425.172 320.327L427.214 320.192C428.433 320.111 429.413 321.182 429.221 322.389L428.995 323.822C428.747 325.392 429.178 326.992 430.179 328.225L431.821 330.247C432.516 331.101 433.446 331.732 434.496 332.06L435.021 332.224C436.956 332.828 438.411 334.432 438.829 336.416C439.229 338.308 440.575 339.859 442.392 340.52L443.572 340.948C445.505 341.651 446.897 343.359 447.197 345.394L447.248 345.741C447.967 350.629 450.293 355.139 453.859 358.557C455.413 360.046 456.537 361.925 457.113 363.999C457.841 366.616 459.374 368.936 461.564 370.543L463.122 371.685C463.153 371.71 463.183 371.733 463.215 371.757L464.933 373.188C466.54 374.528 468.979 373.384 468.979 371.294C469.632 369.985 471.072 369.266 472.511 369.527C475.48 370.066 477.917 372.18 478.872 375.044L479.79 377.798C480.188 378.991 481.542 379.967 482.8 379.967H483.214C486.209 379.967 488.664 382.306 488.858 385.296C489.006 387.585 490.695 389.504 492.981 389.92L495.379 390.357C495.849 390.443 496.33 390.461 496.806 390.41L498.52 390.23C500.864 389.983 503.147 391.079 504.421 393.062C505.001 393.964 505.803 394.701 506.751 395.203L508.113 395.924C509.866 396.852 511.075 398.56 511.365 400.523L512.155 405.85C512.194 406.107 512.285 406.35 512.423 406.57C512.884 406.195 513.459 405.95 514.095 405.894C515.599 405.894 517.097 407.096 517.423 408.563L517.511 408.96C517.684 409.733 518.147 410.412 518.806 410.851L527.061 416.354C527.38 416.565 527.655 416.835 527.875 417.149L530.564 420.988C530.881 421.441 531.07 421.972 531.112 422.525L531.399 426.395C531.5 427.748 531.849 429.071 532.43 430.298C533.311 432.159 534.881 433.605 536.809 434.331L548.031 438.56C549.803 439.228 551.802 438.553 552.806 436.946L557.088 430.095C557.946 428.722 559.683 428.143 561.165 428.795C562.691 429.466 564.476 428.897 565.332 427.469L569.21 421.006C570.012 419.67 569.788 417.924 568.609 416.904C567.216 415.697 567.096 413.582 568.333 412.223L572.688 407.444C573.421 406.641 573.707 405.527 573.451 404.47L572.473 400.421C572.274 399.594 572.81 398.771 573.647 398.62C574.35 398.491 574.861 397.88 574.861 397.164V395.407C574.861 394.884 574.662 394.387 574.341 393.973C573.624 393.049 573.652 391.749 574.41 390.859L576.375 388.547L576.371 388.549Z" fill="#B4BFFA" stroke="#4D4D4D" stroke-width="0.75" stroke-linecap="round" stroke-linejoin="bevel"/>
<path d="M675.093 231.246L673.716 223.142C673.237 220.319 673.151 217.443 673.463 214.597L674.462 205.443C674.485 205.228 674.462 205.013 674.393 204.808L672.996 200.616C672.552 199.286 671.317 198.341 669.916 198.359C668.6 198.375 667.403 197.606 666.869 196.406L665.916 194.262C665.604 193.559 665.978 192.982 666.748 192.982C667.201 192.982 667.521 192.616 667.461 192.167L667.204 190.233C667.081 189.307 666.267 188.632 665.333 188.681L662.931 188.808C662.464 188.833 661.997 188.803 661.537 188.72L660.313 188.498C658.114 188.098 656.518 186.184 656.518 183.95V183.92C656.518 183.365 656.755 182.836 657.169 182.468C657.989 181.74 657.968 180.454 657.125 179.75L655.783 178.631C655.741 178.596 655.702 178.561 655.663 178.522L649.396 172.254C648.781 171.639 648.305 170.897 648.002 170.082L645.586 163.577C645.336 162.903 645.207 162.189 645.207 161.47V160.201C645.207 159.121 645.496 158.062 646.042 157.132C647.082 155.364 647.156 153.19 646.24 151.353L646.222 151.318C645.722 150.319 645.509 149.2 645.605 148.086L646.243 140.759C646.365 139.351 647.544 138.271 648.957 138.271H650.511C651.422 138.271 652.271 137.817 652.777 137.059L654.209 134.909C654.382 134.65 654.509 134.361 654.585 134.058L655.226 131.492C655.52 130.317 655.002 129.089 653.956 128.479L647.285 124.588C646.906 124.368 646.479 124.241 646.042 124.22L642.57 124.054C641.852 124.021 641.151 124.271 640.617 124.75L639.87 125.423C638.33 126.81 635.867 126.037 635.396 124.017L635.382 123.961C635.035 122.472 633.541 121.577 632.056 121.941C631.152 122.163 630.216 122.26 629.608 121.966C627.855 121.119 626.01 120.481 624.072 120.304L623.425 120.246L614.663 114.988L608.654 110.23L605.132 110.054C604.211 110.008 603.333 110.451 602.822 111.217C602.392 111.86 601.702 112.281 600.932 112.368L599.302 112.549C598.289 112.662 597.3 112.176 596.772 111.303L593.286 105.552C592.872 104.87 592.171 104.413 591.38 104.311L584.309 103.405C583.35 103.282 582.406 103.072 581.486 102.776L574.086 100.397C570.669 99.2996 567.008 99.2274 563.551 100.193L560.074 101.164C558.915 101.488 557.687 100.954 557.132 99.8864L555.641 97.0194C555.153 96.0802 554.136 95.541 553.084 95.6661C551.694 95.83 550.434 94.8414 550.26 93.4528L550.253 93.3912C550.142 92.4995 549.569 91.7348 548.746 91.3735L547.405 90.7867C546.577 90.4237 546.003 89.6501 545.897 88.7514L545.821 88.11C545.675 86.8642 544.643 85.9109 543.388 85.8633L536.52 85.6042C533.766 85.5003 531.042 86.2087 528.688 87.643C527.267 88.5083 526.011 89.6184 524.979 90.9224L521.86 94.8626C521.809 94.9278 521.754 94.9894 521.698 95.0493L516.852 100.08C515.846 101.125 514.391 101.566 512.955 101.349C510.713 101.009 508.576 102.419 508.009 104.618L507.833 105.303C507.429 106.866 505.778 108.146 504.164 108.146C503.352 108.146 502.432 108.759 502.12 109.508L500.631 113.08C500.409 113.612 500.582 114.227 501.049 114.565C501.939 115.212 502.466 116.246 502.466 117.346C502.466 117.977 501.962 118.495 501.331 118.511L495.493 118.664C493.573 118.715 491.753 119.529 490.436 120.928C489.661 121.753 488.276 121.3 488.135 120.178L488.029 119.326C487.955 118.731 487.645 118.174 487.14 117.79C486.512 117.312 485.67 117.224 484.93 117.497L483.755 117.931C482.842 118.267 481.818 117.985 481.205 117.231C480.035 115.792 477.856 115.739 476.617 117.122L475.352 118.537C474.947 118.99 474.377 119.261 473.771 119.291L472.829 119.339C471.068 119.427 469.673 120.852 469.624 122.615L469.486 127.422C469.472 127.915 469.13 128.34 468.651 128.46L467.629 128.715C466.658 128.958 466.834 130.386 467.835 130.386C468.064 130.386 468.232 130.572 468.205 130.8L467.828 134.192C467.761 134.789 467.231 135.223 466.632 135.168L464.701 134.992C463.198 134.854 461.767 135.667 461.115 137.027L460.651 137.995C460.306 138.714 459.751 139.265 459.094 139.616L459.214 140.555L459.226 140.677L459.487 144.837C459.531 145.531 459.487 146.229 459.356 146.913L458.784 149.916C458.424 151.806 458.759 153.746 459.651 155.452C460.44 156.964 460.745 158.684 460.525 160.376L460.155 163.216C459.985 164.508 459.208 165.66 458.037 166.23C456.738 166.86 455.887 168.147 455.811 169.586L455.392 177.564C455.32 178.947 455.973 180.267 457.117 181.047L459.601 182.741C461.425 183.985 462.516 186.05 462.516 188.256V192.315C462.516 194.288 461.3 196.059 459.457 196.767C458.782 196.767 458.236 197.314 458.236 197.989V201.696C458.236 202.405 457.838 203.046 457.216 203.384C455.175 204.491 453.81 206.532 453.566 208.842L453.501 209.458C453.367 210.725 452.895 211.931 452.13 212.949C451.36 213.977 450.814 215.133 450.504 216.345C450.809 216.541 451.087 216.777 451.329 217.05L451.665 217.43C453.202 219.171 455.33 220.278 457.637 220.534C459.319 220.72 461.02 220.447 462.56 219.741L462.727 219.665C464.44 218.881 466.468 219.427 467.553 220.965L469.849 224.218C470.654 225.36 472.008 225.986 473.4 225.859L474.24 225.783C475.454 225.672 476.546 225.002 477.197 223.972L478.488 221.92C479.498 220.319 480.994 219.082 482.759 218.396C483.677 218.038 484.648 217.837 485.631 217.802L487.362 217.739C489.102 217.674 490.59 216.467 491.012 214.777L491.398 213.231C491.827 211.52 493.345 210.306 495.109 210.267L498.97 210.183C501.021 210.139 502.758 211.686 502.95 213.73L503.033 214.607C503.19 216.276 504.391 217.661 506.023 218.049C507.308 218.356 508.661 217.993 509.621 217.083L511.052 215.726C511.913 214.911 513.099 214.528 514.274 214.69L521.714 215.712C523.146 215.91 524.353 216.879 524.854 218.236L525.305 219.459C525.523 220.053 525.595 220.69 525.513 221.318L524.753 227.135C524.432 229.589 524.593 232.083 525.222 234.476L526.045 237.6C526.379 238.874 526.845 240.109 527.435 241.286L528.672 243.76C529.681 245.778 530.325 247.96 530.575 250.203L530.698 251.315C530.82 252.413 530.793 253.521 530.617 254.612L530.164 257.422C529.9 259.065 530.439 260.733 531.616 261.911C532.864 263.158 533.39 264.957 533.013 266.681L532.398 269.488C532.154 270.603 531.549 271.608 530.675 272.344L529.692 273.172C528.434 274.231 527.754 275.826 527.86 277.469L528.011 279.803C528.103 281.211 528.374 282.603 528.82 283.943C529.866 287.085 531.84 289.837 534.478 291.839L535.029 292.256C536.359 293.266 537.852 294.043 539.441 294.556C542.523 295.55 545.379 297.138 547.849 299.229L548.001 299.358C549.352 300.502 550.824 301.497 552.387 302.329L553.861 303.113C556.159 304.334 558.251 305.91 560.06 307.779L563.54 311.379C563.605 311.446 563.667 311.517 563.727 311.587C564.108 311.39 564.594 311.393 564.99 311.723L566.113 312.659C569.589 315.556 572.611 318.96 575.076 322.757L580.279 330.772C580.508 331.124 580.716 331.489 580.903 331.864L581.476 333.01L584.929 331.283C585.366 331.064 585.861 330.992 586.34 331.077L587.863 331.346C588.832 331.517 589.59 332.275 589.761 333.244C589.983 334.5 591.17 335.348 592.43 335.149L592.966 335.064C593.887 334.918 594.803 335.35 595.277 336.153L596.752 338.65C597.184 339.382 597.987 339.812 598.835 339.764C600.251 339.685 601.252 338.34 600.919 336.96L600.493 335.193C600.2 333.979 600.94 332.758 602.151 332.455L603.485 332.122C604.686 331.822 605.624 330.883 605.923 329.683C606.304 328.158 605.576 326.574 604.17 325.871L601.268 324.421C600.26 323.917 599.39 323.179 598.727 322.269L597.328 320.345C596.52 319.231 596.054 317.906 595.991 316.53C595.906 314.667 596.565 312.849 597.822 311.473L599.205 309.959C600.146 308.928 600.757 307.642 600.965 306.262L601.161 304.958C601.273 304.207 601.224 303.441 601.014 302.711L600.646 301.425C600.213 299.908 600.475 298.278 601.365 296.974C602.584 295.185 602.597 292.836 601.397 291.035L600.909 290.304C600.463 289.636 600.403 288.783 600.75 288.059L602.348 284.729C602.704 283.987 603.434 283.495 604.257 283.444C605.715 283.352 607.046 282.581 607.849 281.359L609.328 279.111C610.82 276.839 610.72 273.874 609.074 271.708C608.237 270.607 608.57 269.017 609.78 268.346L615.368 265.241C615.584 265.121 615.819 265.037 616.06 264.993L625.11 263.331C626.208 263.13 627.133 262.395 627.58 261.373C628.116 260.15 629.323 259.361 630.658 259.361H637.55C638.309 259.361 639.047 259.109 639.65 258.647C640.938 257.657 642.603 257.301 644.184 257.676L647.286 258.414C649.637 258.975 652.07 257.902 653.244 255.789C654.139 254.178 655.793 253.137 657.631 253.028L661.421 252.8C661.441 252.8 661.462 252.8 661.481 252.798V244.716C661.481 242.724 662.683 240.932 664.522 240.173C665.176 239.519 665.68 238.231 665.643 237.307L665.618 236.703C665.56 235.239 667.127 234.271 668.413 234.988C668.637 235.114 668.889 235.175 669.144 235.195L671.345 235.351C671.914 235.392 672.472 235.172 672.858 234.752L674.624 232.84C675.019 232.412 675.193 231.825 675.096 231.251L675.093 231.246Z" fill="#B4BFFA" stroke="#4D4D4D" stroke-width="0.75" stroke-linecap="round" stroke-linejoin="bevel"/>
<path d="M271.079 297.303H280.724V296.714H271.079V295.148H275.87V294.233H270.071V292.573H283.871V294.233H278.072V295.148H282.863V298.808H273.218V299.474H283.173V301.04H271.079V297.303ZM279.933 287.253C280.957 287.253 281.753 287.465 282.321 287.89C282.89 288.314 283.173 288.887 283.173 289.611C283.173 290.335 282.89 290.908 282.321 291.333C281.752 291.757 280.957 291.969 279.933 291.969H274.009C272.986 291.969 272.189 291.757 271.622 291.333C271.053 290.91 270.769 290.335 270.769 289.611C270.769 288.887 271.053 288.314 271.622 287.89C272.191 287.467 272.986 287.253 274.009 287.253H279.933ZM279.901 290.293C280.252 290.293 280.534 290.233 280.747 290.115C280.959 289.997 281.064 289.828 281.064 289.611C281.064 289.394 280.959 289.225 280.747 289.107C280.536 288.989 280.254 288.929 279.901 288.929H274.041C273.68 288.929 273.394 288.989 273.188 289.107C272.982 289.225 272.878 289.394 272.878 289.611C272.878 289.828 272.982 289.997 273.188 290.115C273.394 290.235 273.68 290.293 274.041 290.293H279.901Z" fill="#333333"/>
<path d="M284.802 295.472H298.602V297.255H292.803V301.1H290.6V297.255H284.802V295.472ZM285.577 292.852C286.259 292.758 286.902 292.614 287.508 292.418C288.112 292.223 288.645 291.974 289.104 291.674C289.564 291.375 289.929 291.028 290.197 290.635C290.465 290.242 290.606 289.803 290.616 289.317H285.809V287.549H297.594V289.317H292.787C292.798 289.803 292.937 290.242 293.206 290.635C293.474 291.028 293.837 291.373 294.292 291.674C294.746 291.974 295.278 292.223 295.888 292.418C296.498 292.614 297.144 292.76 297.826 292.852V294.542C296.575 294.418 295.419 294.152 294.36 293.743C293.302 293.334 292.415 292.795 291.702 292.122C290.988 292.793 290.102 293.334 289.043 293.743C287.984 294.152 286.828 294.418 285.577 294.542V292.852Z" fill="#333333"/>
<path d="M299.532 293.116H310.215V289.052H300.385V287.315H312.324V293.114H313.332V294.774H307.843V297.86H305.641V294.774H299.532V293.114V293.116ZM300.54 296.231H302.649V299.301H312.479V301.039H300.54V296.231Z" fill="#333333"/>
<path d="M488.813 329.237H490.923V334.075H497.636V335.75H488.813V329.237ZM489.201 337.129H500.675V342.867H489.201V337.129ZM498.566 341.191V338.803H491.31V341.191H498.566ZM498.566 329.082H500.675V331.702H502.536V333.594H500.675V336.587H498.566V329.082Z" fill="#333333"/>
<path d="M503.079 336.293H513.452V331.253H504.087V329.454H515.561V336.293H516.879V338.076H511.08V342.929H508.877V338.076H503.079V336.293Z" fill="#333333"/>
<path d="M460.863 254.981H474.663V256.641H468.864V257.836H470.725C471.738 257.836 472.531 258.062 473.105 258.511C473.68 258.96 473.965 259.574 473.965 260.349C473.965 261.124 473.678 261.737 473.105 262.187C472.531 262.636 471.738 262.862 470.725 262.862H464.801C463.788 262.862 462.995 262.636 462.42 262.187C461.846 261.737 461.561 261.124 461.561 260.349C461.561 259.574 461.848 258.96 462.42 258.511C462.995 258.062 463.788 257.836 464.801 257.836H466.662V256.641H460.863V254.981ZM461.638 252.936C462.258 252.895 462.845 252.809 463.398 252.68C463.952 252.551 464.445 252.388 464.878 252.192C465.312 251.996 465.675 251.773 465.964 251.526C466.253 251.277 466.445 251.01 466.538 250.719H461.871V249.075H473.655V250.719H468.987C469.081 251.008 469.271 251.277 469.562 251.526C469.851 251.774 470.214 251.996 470.647 252.192C471.081 252.389 471.576 252.551 472.127 252.68C472.681 252.809 473.267 252.895 473.888 252.936V254.502C472.605 254.419 471.433 254.204 470.367 253.859C469.303 253.514 468.434 253.034 467.763 252.425C467.091 253.034 466.223 253.514 465.159 253.859C464.094 254.206 462.921 254.419 461.638 254.502V252.936ZM470.586 261.184C470.978 261.184 471.289 261.103 471.516 260.945C471.743 260.784 471.858 260.585 471.858 260.347C471.858 260.109 471.743 259.91 471.516 259.75C471.289 259.589 470.978 259.51 470.586 259.51H464.942C464.549 259.51 464.239 259.591 464.012 259.75C463.784 259.91 463.67 260.109 463.67 260.347C463.67 260.585 463.784 260.784 464.012 260.945C464.239 261.105 464.549 261.184 464.942 261.184H470.586Z" fill="#333333"/>
<path d="M475.593 256.222H485.966V251.182H476.601V249.383H488.075V256.222H489.393V258.005H483.594V262.858H481.392V258.005H475.593V256.222Z" fill="#333333"/>
<path d="M563.288 200.938H568.079V199.946H562.435V198.286H576.235V199.946H570.282V200.938H575.227V205.497H573.118V202.674H563.288V200.936V200.938ZM563.443 191.68H565.552V192.952H573.118V191.68H575.227V197.541H563.443V191.68ZM573.118 195.898V194.596H565.552V195.898H573.118Z" fill="#333333"/>
<path d="M577.166 198.859H587.539V193.819H578.174V192.02H589.648V198.859H590.966V200.642H585.167V205.495H582.964V200.642H577.166V198.859Z" fill="#333333"/>
<path d="M615.613 309.132H621.566V308.063H616.62V302.852H628.482V304.526H618.73V306.387H628.715V308.061H623.769V309.131H629.413V310.791H615.613V309.131V309.132ZM625.473 311.613C626.486 311.613 627.279 311.839 627.853 312.288C628.428 312.738 628.713 313.351 628.713 314.126C628.713 314.902 628.426 315.515 627.853 315.964C627.279 316.414 626.486 316.639 625.473 316.639H619.549C618.536 316.639 617.743 316.414 617.168 315.964C616.594 315.515 616.309 314.902 616.309 314.126C616.309 313.351 616.596 312.738 617.168 312.288C617.743 311.839 618.536 311.613 619.549 311.613H625.473ZM625.334 314.963C625.726 314.963 626.037 314.882 626.264 314.724C626.491 314.563 626.606 314.364 626.606 314.126C626.606 313.888 626.491 313.689 626.264 313.529C626.037 313.369 625.726 313.289 625.334 313.289H619.69C619.297 313.289 618.987 313.37 618.76 313.529C618.532 313.689 618.418 313.888 618.418 314.126C618.418 314.364 618.532 314.563 618.76 314.724C618.987 314.884 619.297 314.963 619.69 314.963H625.334Z" fill="#333333"/>
<path d="M630.343 310.001H640.716V304.961H631.351V303.162H642.825V310.001H644.143V311.784H638.344V316.637H636.142V311.784H630.343V310.001Z" fill="#333333"/>
<path d="M650.507 138.268H648.953C647.54 138.268 646.363 139.348 646.24 140.756L645.602 148.083C645.505 149.196 645.718 150.315 646.219 151.314L646.236 151.35C647.154 153.184 647.08 155.359 646.039 157.128C645.491 158.058 645.204 159.117 645.204 160.197V161.466C645.204 162.185 645.332 162.899 645.583 163.574L647.998 170.078C648.301 170.894 648.777 171.636 649.392 172.251L655.659 178.519C655.698 178.557 655.737 178.593 655.779 178.628L657.122 179.747C657.964 180.448 657.985 181.734 657.166 182.464L657.113 182.51C656.706 182.871 656.486 183.4 656.514 183.944C656.634 186.228 658.308 188.129 660.558 188.538L661.536 188.716C661.996 188.799 662.463 188.829 662.929 188.804L665.331 188.677C666.265 188.628 667.079 189.305 667.202 190.23L667.356 191.38C667.437 191.981 667.206 192.584 666.746 192.979C666.145 193.495 665.953 194.344 666.274 195.067L666.866 196.401C667.393 197.588 668.571 198.353 669.87 198.353C671.285 198.353 672.541 199.259 672.989 200.602L674.39 204.803C674.458 205.007 674.481 205.224 674.458 205.437L673.459 214.591C673.149 217.437 673.234 220.313 673.713 223.136L675.089 231.24C675.186 231.815 675.011 232.401 674.617 232.83L672.851 234.742C672.464 235.161 671.907 235.381 671.338 235.341L669.137 235.184C668.873 235.164 668.614 235.09 668.379 234.964C667.098 234.275 665.553 235.239 665.611 236.692L665.678 238.349C665.71 239.136 665.245 239.861 664.517 240.162C662.677 240.92 661.476 242.714 661.476 244.705V252.788C661.476 255.045 661.752 257.295 662.3 259.486L664.036 266.43C664.152 266.894 664.547 267.232 665.023 267.274L666.02 267.364C666.573 267.415 667.007 267.863 667.038 268.418L667.197 271.266C667.22 271.69 667.003 272.09 666.633 272.302C666.031 272.645 665.883 273.449 666.321 273.985L667.482 275.403C667.646 275.604 667.736 275.854 667.736 276.113V282.72C667.736 284.106 666.966 285.38 665.738 286.024L664.85 286.489C663.433 287.231 662.648 288.794 662.896 290.374C663.102 291.684 662.6 293.003 661.574 293.842L661.263 294.098C660.757 294.512 660.424 295.1 660.332 295.747L659.922 298.618C659.797 299.497 660.045 300.39 660.607 301.078C661.433 302.087 661.559 303.501 660.921 304.641L660.338 305.682C659.131 307.837 658.697 310.339 659.109 312.775L660.986 323.876C661.182 325.034 659.939 325.894 658.924 325.305L654.405 322.682C653.957 322.421 653.439 322.306 652.923 322.352L645.78 322.986C643.895 323.154 642.45 324.733 642.45 326.625C642.45 330.793 642.45 337.318 642.45 336.803C642.45 336.053 644.453 333.799 644.453 333.799L649.262 333.621C650.409 333.579 651.379 332.763 651.621 331.64L651.961 330.053C652.326 328.347 654.278 327.526 655.753 328.458C656.755 329.09 657.177 330.338 656.766 331.45L652.465 343.064L651.348 349.769C651.263 350.277 651.418 350.797 651.769 351.174C652.771 352.254 651.977 354.009 650.504 353.967L647.209 353.873C646.356 353.849 645.658 353.183 645.598 352.33L645.568 351.903C645.505 351.019 644.76 350.34 643.873 350.36L637.232 350.504C635.388 350.545 633.899 352.025 633.849 353.87L633.717 358.744C633.7 359.408 634.078 360.02 634.683 360.298L635.796 360.813C636.473 361.125 637.276 360.948 637.759 360.379L640.7 356.92C641.015 356.548 641.479 356.335 641.967 356.335H645.565C646.12 356.335 646.64 356.613 646.948 357.075L648.678 359.671C648.86 359.944 648.957 360.265 648.957 360.592V364.615C648.957 365.347 648.478 365.993 647.778 366.207L643.199 367.6L637.646 369.155C637.195 369.282 636.714 369.211 636.318 368.964L636.246 368.92C635.507 368.459 634.538 368.645 634.024 369.347L632.505 371.419C632.295 371.704 632.182 372.048 632.182 372.402V376.351C632.182 376.836 632.394 377.297 632.762 377.613L635.035 379.56C635.444 379.911 635.997 380.041 636.521 379.911L641.059 378.776C641.468 378.674 641.822 378.42 642.051 378.066L643.421 375.951C643.965 375.109 645.128 374.938 645.893 375.588L649.177 378.379C649.36 378.536 649.508 378.73 649.61 378.95L649.869 379.512C650.379 380.614 649.573 381.872 648.359 381.872H646.155C645.563 381.872 645.017 382.186 644.719 382.697L643.655 384.521C643.519 384.755 643.442 385.019 643.429 385.289L643.251 389.555C643.216 390.381 642.758 391.134 642.037 391.541L638.24 393.687C637.724 393.98 637.335 394.452 637.146 395.014L636.732 396.258C636.406 397.236 635.492 397.895 634.461 397.895H633.178C632.02 397.895 631.028 397.067 630.822 395.929L630.521 394.272C630.32 393.171 629.383 392.355 628.264 392.307L627.215 392.263C625.665 392.198 624.463 393.604 624.768 395.127C625.001 396.288 624.35 397.442 623.239 397.848L621.515 398.475C620.412 398.877 619.175 398.523 618.449 397.599C617.579 396.491 616.007 396.232 614.827 397.002L612.79 398.33C611.812 398.968 611.35 400.16 611.643 401.289L612.321 403.908C612.682 405.302 612.279 406.783 611.26 407.802L607.493 411.57C606.787 412.276 605.844 412.699 604.845 412.754C603.083 412.852 601.46 411.802 600.826 410.154L599.459 406.6C599.409 406.473 599.367 406.343 599.332 406.211L598.378 402.716C598.049 401.511 597.883 400.267 597.883 399.018V392.177C597.883 389.851 598.461 387.56 599.564 385.511L600.495 383.782C602.128 380.748 601.994 377.065 600.144 374.157L598.357 371.35C596.937 369.118 594.652 367.578 592.051 367.098L590.183 366.755C588.268 366.402 587.068 364.48 587.591 362.605L588.45 359.53C589.223 356.76 589.438 353.863 589.08 351.008C588.775 348.567 588.058 346.197 586.957 343.996L580.889 331.861C580.702 331.485 580.492 331.12 580.265 330.77L575.062 322.756C572.597 318.958 569.577 315.554 566.099 312.657L564.976 311.721C564.127 311.013 562.865 311.793 563.119 312.868L565.142 321.482C565.221 322.637 564.218 323.577 563.07 323.423C562.185 323.305 561.343 323.843 561.077 324.694L560.712 329.36C560.388 330.4 562.582 331.628 563.649 331.841L564.033 331.919C564.844 332.081 565.447 332.766 565.503 333.591L565.817 338.137C565.871 338.923 566.421 339.588 567.184 339.787L570.192 342.116C572.345 342.677 573.846 344.619 573.846 346.844V351.427C573.846 352.185 574.022 352.934 574.362 353.612L575.583 356.057C575.922 356.735 576.1 357.482 576.1 358.242V364.251C576.1 365.489 574.998 366.437 573.774 366.254L571.277 365.881C571.154 365.863 571.032 365.833 570.916 365.791L566.225 364.166C565.17 363.801 564.016 363.84 562.987 364.277L557.16 366.749C556.628 366.975 556.025 366.963 555.502 366.716L552.133 365.119C551.765 364.945 551.456 364.663 551.25 364.309L550.272 362.633C549.98 362.132 549.488 361.782 548.921 361.667C547.259 361.334 545.948 363.07 546.722 364.578L549.231 369.472C549.587 370.166 550.311 370.594 551.092 370.571L557.833 370.379C558.314 370.365 558.772 370.182 559.13 369.859L559.981 369.093C560.694 368.45 561.595 368.052 562.552 367.956C564.625 367.748 566.573 368.989 567.261 370.957C567.635 372.025 568.375 372.926 569.349 373.498L569.716 373.715C571.261 374.624 572.475 376.004 573.182 377.652L576.75 385.976C577.118 386.838 576.968 387.833 576.362 388.547L574.398 390.859C573.64 391.751 573.612 393.051 574.331 393.973C574.667 394.406 574.85 394.94 574.85 395.488V397.162C574.85 397.876 574.339 398.489 573.636 398.618C572.801 398.769 572.264 399.594 572.463 400.419L573.441 404.468C573.696 405.525 573.409 406.639 572.678 407.443L568.322 412.221C567.094 413.57 567.203 415.661 568.567 416.874C569.744 417.92 570.008 419.654 569.2 421.004L565.321 427.468C564.47 428.886 562.703 429.457 561.184 428.805C559.685 428.162 557.942 428.708 557.079 430.091L552.797 436.943C551.793 438.55 549.795 439.225 548.022 438.557L536.8 434.328C534.872 433.602 533.302 432.155 532.421 430.294C531.84 429.068 531.491 427.744 531.391 426.391L531.103 422.521C531.063 421.97 530.873 421.439 530.555 420.985L527.867 417.145C527.648 416.831 527.371 416.562 527.052 416.35L518.798 410.847C518.139 410.406 517.673 409.73 517.502 408.956L517.353 408.285C517.018 406.78 515.621 405.754 514.086 405.888C512.389 406.036 511.136 407.534 511.291 409.229L511.408 410.505C511.476 411.252 511.813 411.947 512.359 412.463L520.422 420.079C520.491 420.144 520.556 420.213 520.619 420.283L525.12 425.397C525.708 426.067 526.034 426.927 526.034 427.818V431.101C526.034 431.427 525.77 431.693 525.442 431.693C525.09 431.693 524.815 432 524.855 432.35L525.514 438.277C525.527 438.395 525.55 438.511 525.583 438.625L528.344 448.398C528.607 449.329 529.456 449.97 530.421 449.97H530.603C531.475 449.97 532.261 449.447 532.596 448.642C532.999 447.672 534.041 447.135 535.064 447.366L538.245 448.085C539.829 448.442 540.867 449.961 540.627 451.567L539.801 457.08C539.646 458.113 538.981 458.998 538.035 459.435L535.08 460.799C533.986 461.304 533.56 462.638 534.157 463.685C534.666 464.578 535.759 464.956 536.712 464.571L546.47 460.629C547.449 460.235 548.124 459.324 548.216 458.27L548.678 453.036C548.764 452.064 549.347 451.205 550.219 450.77L551.669 450.046C552.096 449.833 552.572 449.731 553.047 449.752L555.075 449.84C556.7 449.91 557.926 451.341 557.747 452.957C557.641 453.905 557.063 454.733 556.21 455.16L554.954 455.787C554.383 456.073 553.927 456.543 553.659 457.123L550.648 463.65C550.017 465.019 550.42 466.642 551.62 467.555L554.556 469.786C555.356 470.393 555.824 471.34 555.824 472.344V473.305C555.824 475.261 554.092 476.762 552.158 476.485C551.157 476.342 550.147 476.679 549.432 477.394L547.02 479.807C545.8 481.026 545.296 482.787 545.684 484.466C545.768 484.834 545.813 485.211 545.813 485.59V500.912C545.813 501.557 545.328 502.1 544.687 502.17C544.045 502.241 543.561 502.783 543.561 503.428V519.929C543.561 521.949 542.785 523.891 541.395 525.355C539.757 527.08 537.427 527.972 535.056 527.781C533.94 527.691 533.147 528.844 533.628 529.854L534.693 532.09C534.927 532.583 535.048 533.122 535.048 533.669C535.048 535.263 534.019 536.675 532.501 537.163L529.306 538.19C528.466 538.46 527.669 538.851 526.94 539.35L526.882 539.389C524.774 540.83 523.943 543.537 524.876 545.912C525.594 547.738 525.28 549.806 524.055 551.338L522.387 553.424C522.156 553.713 522.031 554.071 522.031 554.441V560.929C522.031 561.396 522.087 561.861 522.202 562.314L522.221 562.388C522.845 564.887 525.09 566.638 527.664 566.638C528.563 566.638 529.292 567.366 529.292 568.267C529.292 569.165 530.02 569.895 530.92 569.895H533.174C534.072 569.895 534.802 570.623 534.802 571.523V574.425C534.802 574.577 534.781 574.727 534.738 574.873L534.271 576.506C534.014 577.405 534.566 578.334 535.475 578.54L539.305 579.41L542.572 583.254C543.059 583.826 542.84 584.706 542.144 584.984C541.254 585.34 541.215 586.586 542.082 586.997C543.444 587.641 544.01 589.28 543.337 590.628L542.2 592.901C541.055 595.192 538.646 596.574 536.09 596.403L534.522 596.299C533.394 596.223 532.266 596.45 531.255 596.956L525.178 599.996C523.49 600.84 521.444 600.391 520.265 598.917L518.725 596.993C518.431 596.625 518.204 596.207 518.054 595.76C517.578 594.332 516.341 593.291 514.852 593.069L513.975 592.937C512.888 592.773 511.781 593.065 510.916 593.742L508.12 595.931C507.112 596.72 506.541 597.945 506.587 599.224L506.724 603.094C506.751 603.816 506.58 604.532 506.231 605.164L505.787 605.973C504.746 607.866 502.539 608.792 500.459 608.209C498.793 607.742 497.009 608.239 495.821 609.497L490.412 615.235C489.924 615.753 490.005 616.583 490.584 616.997C490.981 617.279 491.16 617.778 491.039 618.248L489.966 622.387C489.705 623.395 488.664 623.991 487.663 623.704C486.72 623.434 485.73 623.945 485.406 624.87L482.366 633.508C481.674 635.478 479.892 636.86 477.812 637.041L477.079 637.105C476.18 637.182 475.382 636.537 475.271 635.642C475.126 634.479 473.863 633.822 472.827 634.367L471.757 634.929C470.915 635.373 469.872 635.026 469.463 634.166L467.988 631.066C467.81 630.691 467.777 630.262 467.897 629.864L468.556 627.669C468.905 626.504 468.154 625.299 466.956 625.099C466.475 625.02 465.981 625.115 465.567 625.371C463.899 626.396 461.885 626.698 459.991 626.204L458 625.684C457.506 625.556 457.122 625.168 456.999 624.673C456.828 623.987 456.172 623.538 455.471 623.626L453.746 623.841C453.124 623.919 452.527 623.572 452.285 622.994L451.84 621.922C450.969 619.832 448.449 618.994 446.501 620.146C445.373 620.812 443.979 620.839 442.827 620.215L442.237 619.894C440.32 618.854 439.698 616.4 440.892 614.574L442.931 611.455V607.096C442.931 606.341 443.118 605.599 443.475 604.935C444.226 603.541 444.2 601.857 443.403 600.487L440.864 596.116C440.415 595.342 440.203 594.454 440.256 593.561L440.642 587.004C440.665 586.614 440.75 586.232 440.89 585.869L441.484 584.35C442.267 582.351 441.197 580.108 439.151 579.456C438.059 579.109 437.189 578.276 436.792 577.201L434.9 572.066C434.246 570.291 433.353 568.614 432.244 567.081L425.665 557.985C425.496 557.75 425.251 557.583 424.971 557.507L422.64 556.885C422.062 556.732 421.674 556.191 421.711 555.593L421.889 552.747C421.894 552.659 421.889 552.569 421.877 552.481L420.948 546.347C420.809 545.427 419.753 544.975 418.991 545.505L412.709 549.884C412.499 550.03 412.247 550.109 411.992 550.109H408.029C407.622 550.109 407.24 549.912 407.004 549.579L404.722 546.346C404.503 546.035 404.154 545.84 403.776 545.817L401.837 545.695C401.067 545.648 400.437 546.298 400.511 547.066L400.791 550.004C400.84 550.52 400.567 551.013 400.104 551.244L397.291 552.65C396.754 552.918 396.102 552.769 395.736 552.293L394.539 550.737C394.153 550.235 393.454 550.099 392.908 550.42L391.054 551.51C390.332 551.935 389.403 551.546 389.2 550.733C389.017 550.002 388.237 549.595 387.532 549.866L383.835 551.288C382.901 551.648 382.202 552.439 381.96 553.408C381.506 555.229 379.536 556.219 377.804 555.496C376.031 554.758 374.082 554.554 372.195 554.906L369.434 555.424C367.875 555.717 366.379 556.28 365.015 557.089L363.096 558.228C361.406 559.229 359.287 559.142 357.685 558.007L356.112 556.892C354.965 556.08 353.529 555.791 352.158 556.095C350.672 556.425 349.116 556.057 347.938 555.096L343.201 551.237C343.097 551.153 342.999 551.065 342.902 550.973L339.189 547.415C337.864 546.145 337.346 544.25 337.841 542.483L338.425 540.398C338.664 539.544 339.128 538.768 339.767 538.153L344.285 533.81C344.946 533.175 345.392 532.351 345.564 531.45L345.829 530.06C346.121 528.52 347.208 527.251 348.685 526.724C349.414 526.463 350.063 526.016 350.565 525.425C351.964 523.779 354.815 520.498 354.815 521.066C354.815 521.505 355.155 519.984 355.439 518.639C355.687 517.466 356.402 516.442 357.421 515.806L357.824 515.554C359.072 514.773 359.851 513.423 359.9 511.952L359.926 511.159C360.015 508.491 358.564 506.01 356.198 504.778C354.665 503.98 353.485 502.639 352.889 501.014L352.334 499.501C351.537 497.33 349.712 495.698 347.465 495.152L343.608 494.214C342.423 493.925 341.334 493.328 340.451 492.484L337.782 489.925C336.502 488.699 335.741 487.03 335.655 485.259L335.331 478.603C335.304 478.061 335.509 477.53 335.893 477.146C337.142 475.897 337.336 473.937 336.356 472.466L334.273 469.341C332.917 467.306 330.473 466.282 328.071 466.746C326.445 467.058 325.018 468.022 324.117 469.412L323.097 470.989C322.886 471.317 322.579 471.572 322.22 471.722L321.041 472.214C320.253 472.542 319.351 472.422 318.678 471.897C317.966 471.343 317 471.241 316.188 471.638L309.373 474.957C308.46 475.403 307.357 475.063 306.853 474.18L306.323 473.252C305.969 472.631 305.301 472.258 304.585 472.281L299.565 472.443C298.647 472.473 297.876 473.146 297.726 474.053C297.583 474.908 296.889 475.562 296.029 475.653L293.407 475.934C291.689 476.117 290.07 475.097 289.494 473.467C289.161 472.522 288.461 471.752 287.556 471.329L285.552 470.395C285.33 470.291 285.119 470.166 284.92 470.02L276.911 464.131C276.774 464.03 276.652 463.911 276.55 463.777L272.723 458.784C271.597 457.315 269.881 456.414 268.033 456.323C266.674 456.254 265.374 455.75 264.327 454.883L259.577 450.952C258.988 450.465 258.534 449.838 258.255 449.128L257.979 448.421C256.636 445.003 254.402 442.007 251.507 439.746L249.572 438.236C248.495 437.395 247.713 436.234 247.338 434.92C247.059 433.945 246.556 433.048 245.867 432.305L243.726 429.993C241.728 427.834 239.115 426.342 236.241 425.716C235.39 425.531 234.66 424.983 234.248 424.215C233.6 423.011 233.851 421.522 234.859 420.601L235.034 420.44C235.735 419.797 236.089 418.858 235.983 417.911L235.899 417.155C235.74 415.732 234.962 414.452 233.77 413.658L232.435 412.768C231.15 411.911 230.352 410.496 230.282 408.954C230.197 407.087 229.046 405.435 227.325 404.708L220.169 401.687C219.352 401.342 218.737 400.644 218.497 399.79L217.232 395.293C216.873 394.017 217.419 392.662 218.561 391.989L219.311 391.548C220.272 390.984 220.825 389.921 220.74 388.811C220.67 387.904 220.182 387.081 219.417 386.586L217.548 385.377C216.806 384.896 216.321 384.105 216.231 383.225L215.585 376.917C215.449 375.59 214.813 374.365 213.805 373.493C212.445 372.314 210.572 371.916 208.85 372.441L208.568 372.527C206.884 373.04 205.053 372.651 203.721 371.498C202.687 370.601 201.337 370.157 199.973 370.261C197.188 370.476 194.444 369.493 192.427 367.56L192.088 367.236C190.464 365.678 188.385 364.681 186.154 364.388L184.677 364.194C181.629 363.792 178.664 362.903 175.899 361.556L172.639 359.97C171.422 359.378 170.248 358.7 169.128 357.942L164.013 354.481C162.903 353.731 161.576 353.366 160.238 353.445C158.822 353.528 157.419 353.114 156.274 352.275L147.719 346.002C147.113 345.558 146.685 344.911 146.511 344.178L144.934 337.517C144.68 336.449 144.999 335.325 145.776 334.55C146.266 334.06 146.581 333.425 146.675 332.74L147.08 329.767C147.207 328.831 147.746 328.001 148.549 327.503L151.134 325.903C152.012 325.36 152.56 324.415 152.598 323.385L152.63 322.539C152.708 320.435 150.71 318.868 148.685 319.446L142.747 321.143C142.433 321.233 142.107 321.274 141.78 321.261L135.807 321.055C135.285 321.037 134.767 321.15 134.3 321.383L124.547 326.259C124.183 326.44 123.786 326.549 123.381 326.579L117.237 327.034C116.409 325.515 114.502 324.958 112.987 325.792L111.246 326.749C110.902 326.939 110.543 327.103 110.175 327.238L100.461 330.853C100.131 330.976 99.7841 331.043 99.4317 331.052L94.1827 331.194C92.3097 331.246 90.7943 329.681 90.9036 327.809L91.0269 325.698C91.1238 324.044 89.9415 322.59 88.3029 322.347L85.6563 321.956C84.8722 321.839 84.0741 322.019 83.4133 322.458L82.8777 322.815C82.4231 323.119 81.8997 323.3 81.3553 323.342L76.5063 323.725C74.5117 323.882 72.8659 322.192 73.0739 320.202C73.1373 319.594 73.3752 319.016 73.7575 318.539L75.1759 316.766L74.6191 313.051C74.4958 312.232 74.7425 311.4 75.2905 310.778L77.4225 308.362C77.9088 307.811 78.159 307.092 78.1202 306.359L78.0198 304.438C77.9652 303.398 77.3397 302.473 76.3935 302.038C75.3557 301.559 74.7125 300.498 74.7672 299.356V299.347C74.8517 297.597 73.3294 296.2 71.5938 296.433L71.1727 296.489L67.9447 290.646C66.8822 288.723 64.3484 288.214 62.6252 289.576L58.1426 293.12C56.5251 294.399 54.1623 294.038 52.9994 292.336L44.88 280.439C44.5541 279.964 44.3497 279.416 44.2845 278.841L43.9197 275.678C43.7488 274.193 44.5241 272.758 45.8632 272.089L52.0197 269.01C54.4319 267.805 56.9868 266.908 59.6245 266.342L60.4403 266.168C61.9204 265.851 63.3758 265.429 64.7977 264.906L70.3956 262.844C71.5638 262.414 72.5946 261.683 73.3875 260.723L75.849 257.743C76.5626 256.879 77.4718 256.197 78.5026 255.757C79.766 255.216 80.8443 254.316 81.602 253.167L88.435 242.819C88.9266 242.076 89.6949 241.558 90.5688 241.383L91.4903 241.198C92.4242 241.011 93.233 240.435 93.7157 239.616L94.1492 238.879C94.921 237.566 96.4839 236.941 97.9481 237.36C98.6106 237.549 99.3136 237.529 99.9638 237.304L102.612 236.382C103.854 235.95 104.649 234.733 104.545 233.42C104.342 230.879 105.338 228.391 107.236 226.692L108.014 225.994C108.628 225.446 108.978 224.662 108.978 223.839V217.051C108.978 216.602 109.082 216.16 109.283 215.758L110.675 212.974C110.876 212.572 110.98 212.13 110.98 211.68V209.513C110.98 208.357 110.291 207.31 109.227 206.856C108.164 206.399 107.473 205.354 107.473 204.198V192.249C107.473 190.237 106.598 188.325 105.075 187.009C103.158 185.352 100.491 184.876 98.119 185.766L97.1288 186.138C96.3993 186.411 95.5799 186.295 94.9562 185.826L93.6999 184.883C93.2206 184.524 92.6215 184.367 92.0277 184.446L90.8472 184.603C89.864 184.734 88.909 184.216 88.4826 183.32L87.1858 180.598C86.8756 179.948 86.2783 179.481 85.5718 179.34C83.8468 178.994 83.142 176.91 84.3066 175.59L89.5891 169.593C90.4842 168.576 91.6049 167.782 92.8629 167.274L99.1251 164.742C101.391 163.826 103.105 161.912 103.768 159.558C104.515 156.901 106.596 154.826 109.257 154.086L113.984 152.774L117.823 156.065C118.759 156.867 119.848 157.47 121.023 157.838L123.895 158.735C125.652 159.283 127.479 158.122 127.728 156.298L127.761 156.055C127.911 154.96 128.653 154.039 129.691 153.662C130.378 153.411 130.949 152.918 131.294 152.275L137.63 140.476C137.886 140 138.041 139.478 138.088 138.941L138.393 135.494C138.596 133.194 140.703 131.548 142.983 131.908L146.666 132.489C147.739 132.659 148.787 132.956 149.79 133.376L160.245 137.748C161.431 138.243 162.719 138.447 164 138.34C166.55 138.127 169.048 139.147 170.722 141.082L173.015 143.734C174.775 145.769 177.753 146.229 180.045 144.817C181.626 143.845 182.607 142.141 182.656 140.285L182.76 136.345C182.804 134.699 182.107 133.12 180.861 132.045L177.832 129.43C177.492 129.138 177.191 128.803 176.932 128.437L170.296 119.018C169.827 118.352 169.098 117.915 168.289 117.813L168.192 117.8C166.7 117.613 165.598 116.315 165.66 114.813L165.773 111.992C165.794 111.481 165.949 110.986 166.222 110.554L167.01 109.315C167.362 108.76 167.516 108.103 167.445 107.449L166.439 98.1875C166.353 97.3928 166.599 96.5981 167.119 95.9919L171.454 90.9345C172.662 89.523 172.248 87.3556 170.604 86.4904C169.653 85.9899 169.059 85.0031 169.059 83.93V81.8859C169.059 81.2603 169.262 80.6506 169.637 80.1502L173.233 75.3536C173.94 74.4109 174.363 73.2884 174.453 72.113C174.527 71.1544 174.823 70.2275 175.316 69.4029L178.436 64.201C178.858 63.4979 179.332 62.8283 179.851 62.1957C181.636 60.0265 183.944 58.3489 186.559 57.3198L190.478 55.7762C190.714 55.6828 190.929 55.5418 191.109 55.3638L194.689 51.7831C195.101 51.3708 195.295 50.7893 195.212 50.2131C195.033 48.9496 196.155 47.887 197.408 48.1373L198.925 48.4404C199.506 48.5567 200.107 48.3875 200.543 47.9857L201.683 46.932C202.604 46.0808 203.779 45.5522 205.027 45.4271L206.392 45.2896C207.487 45.1804 208.486 44.6165 209.145 43.7372C209.909 42.7187 211.118 42.1336 212.392 42.1671L219.093 42.3433C219.611 42.3574 220.127 42.2781 220.619 42.109L225.845 40.3116C227.103 39.8781 228.498 40.1724 229.476 41.0746C230.497 42.0156 231.963 42.2905 233.254 41.783L236.769 40.4014C237.647 40.0561 238.327 39.3442 238.632 38.4525L240.203 33.8515C240.915 31.7669 243.468 31.0039 245.208 32.3555C245.823 32.8348 246.593 33.0727 247.371 33.0251L251.618 32.7678C253.195 32.6727 254.425 31.3652 254.425 29.7845V28.7625C254.425 27.862 254.83 27.0109 255.529 26.4435L256.291 25.825C257.499 24.8434 257.751 23.0954 256.869 21.8126C256.153 20.7729 256.169 19.3967 256.906 18.3728L259.254 15.1093C259.834 14.304 260.777 13.8388 261.77 13.8688L266.35 14.008C267.726 14.0503 269.07 14.4274 270.269 15.1058L276.91 18.8751C277.438 19.1746 277.914 19.5623 278.316 20.0187L282.796 25.1113C283.077 25.4285 283.318 25.7774 283.517 26.151C284.55 28.0876 286.639 29.2189 288.826 29.025L294.727 28.4999C295.863 28.3995 296.998 28.7043 297.93 29.3616C299.613 30.5493 301.863 30.5352 303.532 29.3281L306.402 27.2488C307.427 26.5069 308.12 25.3897 308.328 24.1404L308.419 23.5923C308.633 22.3077 309.359 21.1658 310.428 20.424L311.085 19.9693C311.66 19.5711 311.989 18.905 311.956 18.2072C311.877 16.5244 313.767 15.4847 315.145 16.4539L317.857 18.3623C318.281 18.6618 318.576 19.1129 318.678 19.6222L318.986 21.1641C319.155 22.0134 319.846 22.6601 320.704 22.7747L325.259 23.3826C326.161 23.5025 326.875 24.2038 327.014 25.1025C327.167 26.1016 328.027 26.84 329.04 26.84H332.118C332.795 26.84 333.375 27.3263 333.493 27.9942C333.724 29.3034 335.475 29.5766 336.102 28.4047C336.834 27.0391 337.35 25.5589 337.665 24.5069C337.954 23.543 338.513 22.6831 339.277 22.0293L341.861 19.8143C342.77 19.0354 343.989 18.7235 345.161 18.9702C346.87 19.3297 348.123 20.794 348.214 22.5386L348.218 22.5985C348.276 23.7033 348.806 24.7307 349.675 25.4179L357.907 31.9273C358.593 32.47 359.558 32.4753 360.252 31.9431C361.278 31.1537 362.774 31.5942 363.209 32.8136L363.436 33.448C363.531 33.7141 363.685 33.9555 363.884 34.1546L366.881 37.152C368.084 38.3556 369.857 38.7891 371.478 38.2763C372.814 37.8551 374.271 38.0701 375.427 38.8613L376.803 39.8023C377.795 40.4807 378.479 41.5239 378.706 42.7046C379.217 45.3584 381.645 47.2016 384.339 46.976L384.797 46.9372C387.308 46.7275 389.833 47.1152 392.166 48.065L392.934 48.3787C394.55 49.0377 396.264 49.4272 398.005 49.5329L400.371 49.6756C402.526 49.806 404.632 50.3717 406.561 51.3373C408.87 52.4915 410.674 54.4528 411.632 56.8493L412.647 59.3886L414.247 61.2177C415.474 62.6186 416.133 64.4266 416.094 66.2874L415.981 71.9456C415.932 74.4267 414.652 76.721 412.57 78.0709C411.987 78.448 411.609 79.0735 411.546 79.7643L411.303 82.4322C411.21 83.4595 411.823 84.4199 412.794 84.767C413.856 85.1459 414.476 86.2525 414.247 87.3574L412.859 94.0218C412.388 96.2774 411.423 98.399 410.031 100.235C407.839 103.125 406.727 106.693 406.893 110.316L407.069 114.179C407.113 115.132 407.668 115.987 408.521 116.413L409.377 116.842C409.874 117.09 410.281 117.49 410.536 117.985L413.16 123.048C413.472 123.651 414.004 124.109 414.647 124.327L423.122 127.222C423.635 127.397 424.083 127.726 424.402 128.165C425.242 129.321 426.853 129.596 428.03 128.782L430.556 127.032C431.622 126.294 433.071 126.468 433.932 127.437L436.558 130.391C437.562 131.522 439.324 131.541 440.353 130.431C441.141 129.584 442.399 129.367 443.424 129.906L450.03 133.374C451.078 133.924 451.79 134.953 451.937 136.127C452.1 137.441 452.969 138.558 454.202 139.043L456.086 139.783C457.85 140.476 459.848 139.69 460.667 137.982L461.131 137.016C461.784 135.656 463.213 134.844 464.716 134.981L466.647 135.157C467.245 135.212 467.777 134.777 467.844 134.181L468.166 131.275C468.203 130.942 468.087 130.611 467.849 130.373C467.243 129.767 467.53 128.731 468.362 128.523L468.665 128.447C469.144 128.327 469.486 127.903 469.5 127.409L469.638 122.602C469.689 120.842 471.084 119.414 472.843 119.326L473.785 119.279C474.391 119.249 474.961 118.977 475.366 118.524L476.631 117.109C477.868 115.726 480.049 115.779 481.219 117.219C481.832 117.973 482.856 118.255 483.769 117.918L485.002 117.464C486.126 117.05 487.379 117.578 487.866 118.674C487.955 118.879 488.017 119.094 488.043 119.316L488.149 120.167C488.29 121.289 489.675 121.742 490.45 120.917C491.767 119.518 493.588 118.702 495.507 118.653L500.785 118.514C501.533 118.495 502.199 118.031 502.478 117.335C502.797 116.537 502.534 115.624 501.838 115.12L501.465 114.849C500.762 114.338 500.501 113.411 500.836 112.607L502.224 109.275C502.547 108.501 503.343 108.034 504.176 108.133C505.808 108.325 507.33 107.282 507.741 105.691L508.021 104.607C508.592 102.397 510.75 100.982 513.004 101.344C514.435 101.573 515.885 101.086 516.889 100.043L521.71 95.0368C521.766 94.9769 521.821 94.9152 521.872 94.8518L524.991 90.9116C526.023 89.6076 527.28 88.4975 528.7 87.6323C531.054 86.1996 533.778 85.4895 536.532 85.5935L543.4 85.8525C544.655 85.9001 545.686 86.8534 545.834 88.0992L545.909 88.7407C546.015 89.6394 546.59 90.4129 547.418 90.7759L548.759 91.3627C549.581 91.7222 550.152 92.4887 550.265 93.3804L550.272 93.4421C550.445 94.8306 551.706 95.8192 553.097 95.6553C554.147 95.532 555.165 96.0712 555.653 97.0086L557.144 99.8757C557.699 100.944 558.927 101.477 560.087 101.153L563.563 100.182C567.018 99.2184 570.681 99.2889 574.098 100.387L581.498 102.766C582.418 103.062 583.363 103.271 584.321 103.395L591.392 104.3C592.183 104.403 592.886 104.859 593.299 105.541L596.784 111.293C597.312 112.165 598.299 112.651 599.314 112.538L600.944 112.357C601.712 112.272 602.405 111.849 602.835 111.206C603.346 110.438 604.223 109.997 605.145 110.043L608.667 110.219L614.675 114.977L623.438 120.236L624.023 120.288C625.984 120.466 627.85 121.108 629.626 121.957C630.234 122.248 631.164 122.153 632.064 121.932C633.553 121.568 635.047 122.459 635.395 123.952L635.407 124.008C635.877 126.026 638.341 126.8 639.881 125.414L640.628 124.741C641.162 124.262 641.863 124.012 642.578 124.045L646.051 124.211C646.488 124.232 646.915 124.357 647.293 124.579L653.964 128.47C655.011 129.08 655.527 130.308 655.235 131.483L654.593 134.049C654.518 134.352 654.391 134.639 654.218 134.898L652.786 137.048C652.28 137.806 651.431 138.261 650.52 138.261L650.507 138.268Z" stroke="#4D4D4D" stroke-width="0.75" stroke-linecap="round" stroke-linejoin="bevel"/>
</g>
<path d="M224.922 462.203C228.312 462.219 230.25 463.062 230.266 464.656C230.25 466.234 228.312 467.094 224.922 467.094C221.516 467.094 219.547 466.234 219.562 464.656C219.547 463.062 221.516 462.219 224.922 462.203ZM224.922 464.031C222.969 464.031 222.188 464.188 222.188 464.656C222.188 465.172 222.969 465.297 224.922 465.297C226.891 465.297 227.672 465.172 227.672 464.656C227.672 464.188 226.891 464.031 224.922 464.031ZM231.516 467.547V469.484H226.156V470.188H229.953V474.172H222.25V474.641H230.297V476.484H219.797V472.453H227.484V472.016H219.812V470.188H223.625V469.484H218.328V467.547H231.516ZM237.781 464.422C237.781 466.188 238.531 467.953 241.016 468.703L239.688 470.656C238.164 470.18 237.156 469.258 236.547 468.078C235.898 469.352 234.812 470.367 233.203 470.875L231.812 468.906C234.438 468.141 235.234 466.219 235.25 464.438V463H237.781V464.422ZM243.719 462.125V466.141H245.516V468.234H243.719V472.641H241.203V462.125H243.719ZM244.172 474.344V476.344H234.125V471.594H236.672V474.344H244.172ZM251.891 463.703V472.625H253.719V475.016H246.812V472.625H248.906V466.656L246.812 468.109V465.391L249.188 463.703H251.891Z" fill="black"/>
<defs>
<clipPath id="clip0_65_17692">
<rect width="633" height="625" fill="white" transform="translate(43 13)"/>
</clipPath>
</defs>
</svg>
